<?xml version="1.0" encoding="UTF-8" standalone="no"?>
<svg
   version="1.0"
   width="644.000000pt"
   height="644.000000pt"
   viewBox="0 0 644.000000 644.000000"
   preserveAspectRatio="xMidYMid meet"
   id="svg44"
   sodipodi:docname="fée.svg"
   inkscape:version="1.3 (0e150ed6c4, 2023-07-21)"
   xmlns:inkscape="http://www.inkscape.org/namespaces/inkscape"
   xmlns:sodipodi="http://sodipodi.sourceforge.net/DTD/sodipodi-0.dtd"
   xmlns="http://www.w3.org/2000/svg"
   xmlns:svg="http://www.w3.org/2000/svg">
  <sodipodi:namedview
     id="namedview1"
     pagecolor="#505050"
     bordercolor="#eeeeee"
     borderopacity="1"
     inkscape:showpageshadow="0"
     inkscape:pageopacity="0"
     inkscape:pagecheckerboard="0"
     inkscape:deskcolor="#d1d1d1"
     inkscape:document-units="pt"
     inkscape:zoom="0.70710678"
     inkscape:cx="173.94827"
     inkscape:cy="368.40263"
     inkscape:window-width="1920"
     inkscape:window-height="1011"
     inkscape:window-x="0"
     inkscape:window-y="0"
     inkscape:window-maximized="1"
     inkscape:current-layer="svg44" />
  <defs
     id="defs44" />
  <g
     id="g1">
    <g
       id="layer2"
       style="fill:#ffffff;fill-opacity:1">
      <g
         transform="matrix(0.1,0,0,-0.1,0,644)"
         fill="#000000"
         stroke="none"
         id="g44"
         style="fill:#000000;fill-opacity:1">
        <path
           d="M4812 5846 c-100 -54 -166 -109 -333 -275 -202 -202 -337 -367 -590 -721 -172 -241 -264 -388 -351 -564 l-25 -49 -22 24 c-61 64 -72 132 -38 216 14 34 28 75 32 90 4 18 17 33 38 43 24 11 44 37 80 100 76 137 91 182 91 285 1 106 -17 151 -96 239 l-49 55 44 19 c135 60 156 288 37 396 -22 20 -47 36 -56 36 -8 0 -27 6 -42 14 -15 8 -42 16 -60 19 -18 3 -39 10 -46 16 -19 16 -125 41 -171 41 l-40 -1 30 -24 29 -24 -55 6 c-42 4 -64 1 -90 -12 -69 -35 -93 -72 -39 -61 39 7 39 -8 -1 -24 -27 -12 -79 -66 -79 -84 0 -4 9 -2 19 4 32 17 46 12 26 -10 -25 -27 -18 -159 9 -189 12 -13 16 -25 10 -30 -5 -5 -80 -31 -168 -57 -143 -43 -159 -46 -168 -31 -26 47 -205 255 -302 353 -109 108 -220 194 -250 194 -20 0 -21 3 13 -66 49 -98 107 -336 196 -808 19 -102 56 -252 81 -333 82 -265 166 -396 317 -498 13 -9 11 -32 -14 -185 -33 -193 -47 -233 -127 -342 -53 -72 -99 -161 -169 -328 -44 -103 -84 -170 -104 -170 -6 0 -27 13 -47 30 -40 32 -140 70 -181 69 -14 0 6 -9 46 -19 71 -19 118 -38 111 -45 -4 -4 -60 7 -131 26 -39 10 -107 3 -107 -12 0 -5 12 -4 27 2 30 11 79 3 86 -14 3 -9 -17 -12 -70 -13 -47 0 -69 2 -61 8 10 7 10 9 -2 5 -8 -2 -15 -10 -15 -18 0 -8 7 -12 15 -10 71 17 182 0 240 -37 23 -14 24 -14 11 1 -7 10 -34 27 -60 38 -25 12 -41 23 -34 26 15 5 121 -25 128 -38 4 -5 19 -9 34 -9 34 0 70 42 105 123 73 163 150 312 201 386 31 46 64 99 71 118 8 19 33 121 55 226 54 262 66 300 105 346 50 58 63 59 146 9 59 -36 75 -51 94 -93 22 -45 24 -41 9 14 -5 16 2 20 39 25 48 7 105 44 174 109 41 40 42 40 42 16 0 -79 100 -191 203 -225 113 -38 146 -99 212 -397 31 -137 53 -196 99 -252 70 -86 139 -201 207 -342 98 -206 140 -244 207 -189 66 56 223 92 287 67 15 -6 6 -10 -35 -14 -77 -7 -211 -48 -246 -75 -27 -21 -26 -21 19 3 27 13 65 27 85 31 21 3 54 12 76 20 36 14 43 13 97 -8 33 -13 59 -27 59 -32 0 -4 -6 -6 -14 -3 -8 3 -32 9 -53 12 l-38 7 43 -28 c59 -39 52 -63 -8 -29 -33 19 -71 19 -120 -1 -55 -22 -45 -28 14 -8 45 16 96 13 96 -6 0 -5 -15 -6 -32 -3 -38 6 -123 -25 -172 -62 -72 -55 -132 -55 -187 1 -19 19 -77 71 -129 116 -166 145 -232 211 -275 278 -52 79 -67 113 -90 210 -20 85 -89 249 -138 328 -21 36 -47 61 -77 78 l-45 26 28 -26 29 -26 -54 -70 -53 -70 -8 71 c-10 91 -38 166 -88 231 -58 77 -70 82 -169 57 -45 -12 -86 -17 -90 -12 -4 4 -15 35 -23 67 -14 58 -14 60 7 78 11 11 -6 5 -39 -13 -132 -70 -182 -161 -151 -279 8 -30 17 -77 21 -105 3 -27 11 -82 17 -121 l10 -71 -46 -105 c-53 -119 -91 -168 -190 -253 -39 -33 -102 -95 -141 -138 -38 -44 -83 -87 -100 -98 -21 -13 -25 -19 -13 -19 21 0 354 313 391 368 14 20 43 76 63 125 20 48 40 87 44 87 15 0 29 -82 19 -108 -12 -31 -120 -212 -207 -346 -119 -183 -133 -216 -130 -288 l3 -63 41 58 41 58 6 -73 c9 -97 23 -145 46 -151 14 -3 19 -18 25 -69 3 -36 18 -109 33 -164 16 -58 26 -119 25 -148 -4 -73 22 -147 85 -238 55 -82 72 -117 133 -273 17 -44 71 -158 121 -253 l89 -174 -20 -25 c-29 -37 -42 -93 -30 -132 12 -42 28 -61 64 -76 28 -12 30 -16 27 -63 -1 -28 3 -60 9 -71 11 -22 45 -27 70 -11 11 7 18 3 26 -12 10 -18 8 -28 -12 -58 -32 -47 -38 -87 -22 -135 14 -43 65 -85 103 -85 16 0 26 -10 38 -40 20 -51 50 -53 95 -7 63 65 83 152 96 430 l6 108 -31 29 c-18 15 -51 36 -75 45 l-43 16 35 82 c19 45 34 98 34 119 0 33 -5 42 -42 68 -22 17 -54 30 -69 30 -26 0 -32 7 -59 67 -17 38 -40 106 -51 153 -53 229 -96 335 -175 431 -24 30 -44 61 -44 70 0 24 70 114 202 259 62 69 123 138 135 153 18 24 25 27 42 18 30 -16 33 -14 26 19 -5 21 -2 39 10 56 15 23 18 24 33 11 26 -22 107 -67 121 -67 10 0 12 25 9 109 -4 117 0 123 46 72 11 -12 23 -21 27 -21 19 0 -28 176 -75 282 -38 85 -136 208 -207 259 -161 115 -158 111 -144 206 6 40 54 113 74 113 4 0 15 -17 24 -38 24 -54 120 -158 165 -177 34 -15 38 -22 54 -86 23 -88 68 -181 123 -252 24 -30 111 -111 192 -180 81 -68 159 -137 173 -152 72 -78 126 -75 269 15 38 25 66 35 100 36 25 1 48 3 51 4 3 1 15 1 27 0 41 -3 48 12 17 36 l-29 24 39 -7 c53 -8 45 15 -14 44 -40 19 -42 21 -20 25 31 4 29 21 -2 30 -80 22 -214 -7 -294 -64 -34 -24 -46 -28 -62 -19 -27 14 -73 90 -118 191 -35 81 -87 176 -156 283 l-31 48 21 15 c92 64 3 341 -132 411 l-30 16 60 21 c88 32 180 92 255 166 52 51 78 87 118 167 61 123 130 319 176 503 105 417 214 722 306 857 18 26 66 83 106 126 40 43 73 84 73 92 0 24 -41 17 -108 -19z m34 -19 c-94 -71 -299 -263 -415 -388 -352 -378 -645 -779 -812 -1111 -27 -54 -49 -101 -49 -105 1 -5 10 10 22 32 34 66 87 124 141 155 29 17 48 30 44 30 -12 0 -70 -31 -90 -48 -52 -46 -6 48 49 100 16 15 49 36 74 47 25 11 38 21 30 21 -8 0 -35 -11 -59 -25 -23 -14 -45 -25 -47 -25 -6 0 141 226 209 320 130 181 354 457 363 447 2 -1 -3 -21 -11 -42 -8 -22 -14 -51 -14 -65 0 -17 5 -10 13 20 36 128 35 126 187 284 133 138 320 309 359 331 8 4 -35 -43 -97 -106 -121 -123 -144 -150 -235 -278 -56 -79 -131 -218 -156 -290 -9 -25 -16 -31 -41 -31 -23 0 -31 5 -34 23 -4 19 -4 19 -6 -5 -1 -20 -12 -32 -45 -52 -24 -14 -73 -58 -110 -97 -76 -83 -162 -246 -216 -414 -59 -182 -138 -309 -231 -376 -26 -19 -29 -19 -63 -2 -20 9 -36 20 -36 25 0 4 -6 8 -13 8 -28 0 -37 22 -20 54 59 117 249 410 395 612 345 475 626 779 868 938 59 39 93 48 46 13z m-2583 -44 c107 -83 228 -214 429 -464 l38 -47 -24 -16 c-24 -15 -25 -15 -54 47 -71 150 -280 388 -428 489 -31 21 -43 38 -28 38 3 0 33 -21 67 -47z m1145 -2 c63 -32 91 -72 116 -166 3 -11 3 4 1 34 -3 31 -12 62 -21 72 -10 11 -14 22 -11 25 11 11 56 -25 73 -57 8 -17 18 -29 21 -26 2 3 -1 15 -7 27 -20 37 -2 35 35 -6 97 -106 99 -243 4 -329 -52 -47 -66 -44 -32 6 41 62 45 196 8 245 -12 15 -12 12 1 -21 21 -50 14 -136 -14 -191 -33 -66 -39 -67 -117 -28 -88 43 -190 60 -271 45 -53 -10 -85 -8 -53 4 122 44 194 47 282 11 69 -29 76 -19 10 14 -37 18 -67 24 -131 26 -45 2 -87 6 -92 9 -5 3 -14 20 -20 38 -9 29 -9 28 -4 -14 4 -35 1 -48 -10 -52 -20 -8 -37 15 -52 71 -8 29 -13 38 -13 22 0 -14 6 -43 14 -65 13 -37 13 -42 -4 -59 -25 -24 -38 -15 -52 37 -21 79 3 155 56 178 14 6 5 8 -33 6 -28 -1 -52 1 -52 5 0 9 101 58 121 58 10 0 21 4 24 10 6 10 -18 17 -70 22 l-30 3 32 18 c39 21 111 22 158 3 42 -18 46 -5 13 32 l-23 25 52 -6 c28 -3 69 -15 91 -26z m-1094 -74 c33 -28 95 -92 138 -142 68 -78 82 -100 102 -165 19 -61 39 -160 32 -160 0 0 -15 -4 -33 -9 l-31 -9 -32 91 c-17 50 -50 127 -72 171 -45 89 -138 235 -163 256 -9 8 9 -24 40 -71 87 -129 226 -434 209 -460 -7 -11 -34 -12 -34 -1 0 5 -31 43 -68 84 l-69 75 -23 109 c-12 60 -35 145 -51 189 -40 114 -32 119 55 42z m2382 -94 c-24 -37 -52 -102 -130 -304 -30 -77 -47 -105 -85 -142 -26 -25 -56 -62 -66 -81 -11 -20 -22 -36 -25 -36 -3 0 -13 12 -23 26 -18 24 -18 26 14 97 60 132 140 254 275 419 61 73 82 85 40 21z m-2056 -311 c33 -68 31 -84 -11 -75 -24 4 -28 12 -42 81 -8 43 -18 86 -22 97 -13 40 43 -38 75 -103z m674 88 c32 -5 60 -11 63 -13 2 -2 -1 -16 -7 -31 -5 -15 -6 -42 -2 -64 l8 -37 8 58 c11 84 29 75 87 -45 27 -57 47 -92 44 -78 -9 37 -47 133 -58 148 -5 7 -8 15 -5 17 9 10 166 -151 193 -199 53 -91 42 -248 -25 -358 l-20 -33 0 35 c0 19 4 51 10 69 5 19 8 36 7 38 -2 1 -22 -13 -45 -33 l-42 -36 0 37 c0 36 -54 211 -71 229 -4 5 5 -33 22 -85 16 -53 30 -119 31 -150 1 -56 -28 -159 -44 -159 -4 0 -8 20 -8 45 0 28 -13 78 -32 128 -26 66 -33 101 -38 182 l-5 100 -8 -66 c-8 -69 14 -183 47 -248 31 -58 15 -53 -24 8 -87 134 -94 153 -87 244 l6 82 -23 -68 c-22 -66 -66 -125 -111 -149 -19 -11 -19 -10 -2 13 26 36 77 137 77 151 0 7 -13 -14 -29 -48 -26 -54 -147 -201 -158 -190 -2 2 11 28 30 57 80 126 73 135 -9 12 -32 -48 -64 -109 -71 -137 -13 -52 -23 -70 -23 -43 0 8 -14 50 -31 93 -26 65 -30 88 -27 141 2 34 0 57 -4 50 -13 -20 -9 -122 7 -167 8 -24 13 -45 11 -47 -9 -10 -97 105 -102 135 -15 80 13 155 90 240 42 47 45 52 16 29 -19 -15 -57 -43 -85 -62 -53 -36 -91 -79 -118 -132 -27 -51 -19 -53 9 -3 26 47 92 120 107 120 4 0 1 -12 -7 -27 -9 -16 -24 -50 -35 -78 -11 -27 -31 -79 -46 -114 -25 -60 -27 -71 -20 -155 4 -50 5 -89 2 -86 -19 19 -76 111 -85 139 -27 78 -7 195 48 276 35 51 54 68 121 105 72 41 24 27 -71 -20 -80 -40 -108 -64 -167 -141 -20 -27 -39 -47 -41 -44 -10 9 52 123 86 158 49 51 81 66 242 117 74 23 152 51 173 62 69 35 145 44 241 28z m-879 -156 c36 -52 37 -55 26 -98 -33 -131 13 -330 104 -451 50 -66 107 -107 145 -103 21 3 27 11 34 46 9 38 26 59 26 30 0 -6 9 -3 20 7 19 17 21 17 45 -8 28 -28 45 -74 45 -125 l0 -33 -27 19 c-41 28 -77 34 -99 16 -19 -15 -19 -15 1 -6 37 18 125 -30 139 -76 4 -12 18 -34 31 -50 l23 -27 -44 -38 c-36 -32 -47 -36 -63 -27 -25 13 -122 132 -145 178 -9 17 -19 32 -22 32 -16 0 60 -115 117 -175 59 -62 65 -73 56 -92 -14 -33 -28 -29 -85 22 -63 57 -109 119 -156 210 -19 39 -35 66 -36 61 0 -22 73 -155 115 -209 25 -32 67 -73 94 -92 40 -29 47 -39 43 -60 -2 -14 -11 -25 -20 -25 -28 0 -165 151 -204 225 -82 159 -145 376 -213 734 -20 107 -40 202 -43 210 -9 27 54 -37 93 -95z m205 -19 c0 -11 -52 -79 -75 -97 -43 -34 -58 -74 -52 -141 11 -124 134 -303 155 -226 3 12 2 12 -7 -1 -31 -45 -141 154 -141 255 0 39 19 83 44 104 20 17 20 10 -3 -66 -22 -72 -15 -73 52 -8 43 42 55 32 38 -31 -16 -63 -15 -126 2 -168 10 -21 17 -43 17 -48 0 -5 16 -22 35 -39 31 -27 35 -37 35 -78 0 -26 -6 -56 -14 -66 -12 -17 -17 -17 -45 -5 -17 7 -52 35 -77 63 -141 157 -189 464 -85 544 15 11 121 19 121 8z m1880 -38 c0 -2 -14 -45 -30 -97 -17 -52 -47 -157 -66 -234 -69 -280 -173 -552 -250 -652 -87 -113 -254 -223 -345 -227 -27 -2 -35 2 -37 18 -2 17 6 23 44 33 68 18 130 58 211 136 70 65 141 161 177 236 9 19 11 26 4 16 -7 -11 -34 -51 -60 -91 -93 -141 -276 -285 -363 -285 -24 0 -37 7 -49 25 -22 33 -21 35 22 35 72 0 212 83 274 163 27 36 22 33 -34 -21 -122 -115 -263 -156 -333 -96 -21 18 -26 27 -17 31 8 3 42 30 75 60 75 67 96 81 145 99 20 7 29 13 19 14 -10 0 -34 -7 -54 -15 -19 -8 -37 -15 -38 -15 -2 0 12 28 31 63 18 34 47 105 64 157 76 227 159 380 253 468 90 82 177 104 205 52 18 -34 9 -155 -18 -245 -26 -86 -97 -221 -153 -294 -39 -50 -109 -111 -128 -111 -20 0 -49 46 -49 76 0 62 40 207 76 275 37 70 106 144 127 136 21 -7 9 -86 -23 -154 -17 -36 -29 -68 -27 -70 5 -5 64 125 72 160 4 15 4 38 1 52 -10 39 -43 31 -94 -21 -77 -81 -142 -247 -142 -364 0 -69 19 -100 62 -100 62 0 203 179 266 340 34 86 66 240 59 278 -3 17 2 37 16 57 52 74 107 132 107 112z m-1848 -99 c-7 -7 -12 -8 -12 -2 0 6 3 14 7 17 3 4 9 5 12 2 2 -3 -1 -11 -7 -17z m634 -123 c9 -22 34 -64 56 -93 45 -60 98 -157 98 -178 0 -32 19 -10 48 54 16 37 45 81 63 97 l33 30 -18 -29 c-10 -16 -13 -25 -6 -21 18 11 4 -99 -18 -144 -20 -42 -49 -62 -60 -43 -5 7 -15 -11 -26 -50 -10 -35 -30 -84 -44 -110 -34 -65 -129 -153 -198 -185 -52 -24 -58 -24 -92 -11 -51 20 -209 134 -224 161 -11 19 -28 147 -20 147 1 0 15 -8 29 -17 15 -10 24 -12 20 -5 -6 8 -1 12 17 12 14 0 28 5 31 10 4 6 11 8 16 5 5 -4 9 -1 9 4 0 18 -78 91 -97 92 -15 0 -15 2 2 9 15 7 16 9 4 9 -9 1 -33 -6 -54 -14 -29 -13 -40 -13 -51 -4 -21 17 -8 25 13 8 17 -13 17 -13 2 10 -14 23 -14 32 3 105 10 44 21 82 24 85 8 8 112 -101 125 -131 16 -39 25 -35 37 15 13 48 52 93 132 147 30 21 71 54 90 75 29 30 36 33 38 18 2 -10 10 -36 18 -58z m-465 -7 c8 -19 7 -40 -5 -80 -8 -29 -18 -74 -21 -99 -3 -26 -12 -55 -20 -65 -13 -17 -15 -11 -17 56 -3 117 2 162 24 210 16 35 22 41 25 25 2 -11 9 -32 14 -47z m79 -314 c0 -14 5 -34 10 -45 16 -29 -5 -24 -29 7 -27 34 -27 64 -1 64 15 0 20 -7 20 -26z m36 -5 c3 -6 1 -15 -6 -19 -17 -11 6 -24 28 -15 14 5 15 4 4 -7 -17 -17 -46 1 -50 31 -4 22 12 29 24 10z m44 -509 c5 -8 13 -34 20 -58 6 -24 18 -46 27 -49 9 -4 52 3 96 15 56 15 86 18 98 11 28 -15 77 -92 105 -166 29 -74 33 -131 20 -258 -11 -104 1 -128 93 -189 157 -104 290 -303 324 -484 7 -36 6 -36 -47 1 l-29 21 6 -25 c13 -53 17 -135 8 -164 -8 -26 -9 -27 -10 -7 -1 13 -17 59 -36 103 -19 44 -46 124 -60 179 -15 55 -38 127 -51 162 -24 58 -79 148 -90 148 -3 0 4 -13 16 -30 41 -57 64 -122 114 -315 7 -27 32 -91 54 -141 23 -51 42 -101 42 -113 0 -20 -5 -18 -62 19 -35 23 -91 55 -125 72 -34 18 -64 39 -66 47 -3 9 -5 -9 -6 -40 -1 -44 -8 -67 -37 -115 -19 -32 -44 -68 -54 -78 -18 -18 -19 -18 -30 25 -21 77 -94 199 -119 199 -4 0 -13 -19 -20 -42 -14 -47 -111 -238 -120 -238 -15 0 -104 192 -108 234 -3 25 -11 46 -17 46 -6 0 -59 -50 -117 -111 -65 -68 -109 -107 -113 -100 -4 6 -10 51 -13 100 -5 71 -2 95 11 122 l16 33 -26 -25 c-15 -13 -44 -46 -65 -72 l-39 -49 0 42 c0 52 11 72 134 255 56 83 127 189 156 238 30 48 58 87 61 87 8 0 19 -53 19 -96 0 -18 4 -35 8 -38 12 -7 3 87 -15 159 -26 106 -72 329 -73 354 l0 24 27 -24 c25 -23 25 -22 -5 22 -68 101 -62 209 15 286 44 44 69 51 83 23z m913 -275 c54 -68 88 -148 94 -221 5 -54 3 -63 -20 -89 -36 -43 -53 -24 -59 68 -5 72 -30 139 -68 182 -15 16 -50 115 -50 140 0 17 67 -35 103 -80z m-340 -98 c19 -35 38 -74 42 -87 7 -23 5 -23 -31 10 -26 23 -22 16 12 -20 120 -128 97 -167 -25 -42 -42 42 -83 92 -90 110 -13 31 -12 34 14 62 16 17 32 30 36 30 4 0 23 -28 42 -63z m332 -70 c17 -58 19 -97 5 -97 -8 0 -41 95 -55 165 l-6 30 20 -23 c12 -13 28 -47 36 -75z m-365 -859 c21 -15 22 -20 12 -43 -7 -14 -12 -35 -12 -46 0 -20 0 -20 -30 1 -38 27 -57 65 -52 107 l3 32 27 -17 c15 -9 38 -25 52 -34z m-578 -66 c32 -67 19 -67 -27 0 -38 58 -41 68 -23 86 10 10 14 8 19 -10 3 -13 17 -47 31 -76z m270 81 c33 -30 12 -132 -36 -172 -14 -12 -16 -8 -18 35 -2 66 -1 73 14 117 15 42 15 43 40 20z m-323 -69 l21 -36 -50 -146 c-27 -81 -52 -166 -56 -190 -4 -24 -11 -39 -15 -35 -5 5 -21 78 -35 162 l-26 153 64 64 c34 35 66 64 69 64 4 0 17 -16 28 -36z m569 -21 c26 -41 34 -27 -93 -168 -207 -229 -235 -270 -235 -341 0 -30 4 -54 10 -54 5 0 7 7 4 15 -15 38 15 8 58 -58 55 -85 99 -192 123 -297 25 -115 62 -225 89 -268 53 -84 57 -180 11 -287 l-17 -40 -19 38 c-12 23 -34 44 -54 54 -32 15 -35 20 -35 62 0 67 -34 130 -144 266 -53 66 -129 166 -169 223 -40 56 -95 136 -124 177 -66 95 -77 141 -57 255 15 87 111 390 123 390 11 0 77 -72 90 -97 7 -13 16 -23 21 -23 5 0 28 32 51 70 23 39 46 70 52 70 6 0 8 -20 4 -55 -3 -30 -2 -55 2 -55 14 0 71 66 90 105 l19 39 17 -60 c10 -32 19 -65 21 -72 7 -25 29 -6 79 71 28 41 52 76 55 76 3 0 15 -16 28 -36z m-411 -968 c33 -44 90 -118 128 -164 77 -96 115 -169 115 -223 0 -32 -4 -37 -32 -47 -17 -6 -32 -10 -33 -9 -16 18 -228 468 -240 508 -9 32 -9 31 62 -65z m477 -284 c27 -30 22 -94 -12 -171 -17 -36 -39 -101 -51 -145 -26 -94 -56 -144 -113 -185 -55 -40 -75 -39 -83 4 -12 59 -4 78 39 93 53 18 72 37 92 92 9 25 28 69 41 96 32 68 47 162 35 208 -6 20 -8 38 -5 41 8 7 35 -8 57 -33z m-175 -187 c78 -65 33 -189 -73 -201 -42 -5 -48 -3 -76 27 -94 100 45 262 149 174z m205 -99 c54 -23 70 -54 62 -123 -4 -31 -11 -130 -15 -220 -8 -158 -9 -164 -37 -204 -38 -54 -59 -67 -78 -48 -28 30 -27 54 3 72 65 36 90 129 52 193 -19 32 -20 46 -15 138 5 87 3 107 -13 137 -18 34 -20 70 -3 70 4 0 24 -7 44 -15z m-49 -171 l0 -105 -67 -3 c-62 -2 -67 0 -71 20 -3 17 7 33 35 61 24 23 47 60 60 96 30 82 43 61 43 -69z m-27 -125 c86 -30 87 -170 1 -215 -45 -23 -87 -18 -120 15 -24 25 -29 38 -29 79 0 57 25 96 74 118 38 16 36 16 74 3z"
           id="path1"
           style="fill:#000000;fill-opacity:1" />
        <path
           d="M3322 5678 c-23 -23 -13 -59 28 -100 37 -38 59 -45 67 -21 2 5 -9 18 -24 28 l-28 18 24 -27 c37 -39 7 -31 -34 10 -82 81 -5 132 87 57 27 -23 30 -23 13 -4 -39 45 -107 65 -133 39z"
           id="path2"
           style="fill:#000000;fill-opacity:1" />
        <path
           d="M2955 5099 c-4 -6 -5 -12 -2 -15 2 -3 7 2 10 11 7 17 1 20 -8 4z"
           id="path3"
           style="fill:#000000;fill-opacity:1" />
        <path
           d="M2581 4924 c0 -11 3 -14 6 -6 3 7 2 16 -1 19 -3 4 -6 -2 -5 -13z"
           id="path4"
           style="fill:#000000;fill-opacity:1" />
        <path
           d="M2590 4896 c0 -2 8 -10 18 -17 15 -13 16 -12 3 4 -13 16 -21 21 -21 13z"
           id="path5"
           style="fill:#000000;fill-opacity:1" />
        <path
           d="M4131 4735 c-26 -56 -46 -144 -35 -155 5 -5 10 9 11 31 0 22 6 52 12 67 6 15 15 40 21 57 9 23 13 26 20 15 8 -12 10 -10 10 8 0 35 -16 26 -39 -23z"
           id="path6"
           style="fill:#000000;fill-opacity:1" />
        <path
           d="M3948 4343 c12 -2 32 -2 45 0 12 2 2 4 -23 4 -25 0 -35 -2 -22 -4z"
           id="path7"
           style="fill:#000000;fill-opacity:1" />
        <path
           d="M3215 4846 c-45 -20 -89 -56 -70 -56 4 0 31 14 61 30 55 32 92 39 134 27 l25 -8 -25 15 c-35 21 -67 19 -125 -8z"
           id="path8"
           style="fill:#000000;fill-opacity:1" />
        <path
           d="M3240 4767 c-8 -7 -22 -21 -30 -32 -10 -13 -3 -10 18 8 32 26 80 38 67 17 -3 -5 -12 -10 -19 -10 -7 0 -24 -12 -38 -27 -38 -40 -63 -113 -38 -113 5 0 7 6 4 14 -3 8 -1 24 6 35 11 21 11 21 34 -5 17 -21 28 -26 48 -21 29 8 50 49 42 83 -7 26 13 35 22 9 10 -25 -5 -65 -33 -91 -27 -25 -21 -33 8 -11 22 17 39 51 39 80 0 14 7 27 15 31 8 3 15 12 15 20 0 10 -8 13 -29 10 -16 -3 -32 0 -36 6 -9 14 -77 12 -95 -3z m80 -77 c0 -16 -3 -31 -7 -33 -5 -3 -8 12 -8 33 0 21 3 36 8 33 4 -2 7 -17 7 -33z m-40 0 c0 -5 -5 -12 -11 -15 -6 -5 -4 -12 8 -21 10 -7 13 -14 8 -14 -18 0 -35 23 -35 47 0 16 4 21 15 17 8 -4 15 -10 15 -14z"
           id="path9"
           style="fill:#000000;fill-opacity:1" />
        <path
           d="M2868 4754 c-16 -8 -28 -17 -28 -20 0 -2 10 0 21 7 13 6 38 9 60 5 41 -7 54 8 17 18 -32 8 -39 7 -70 -10z"
           id="path10"
           style="fill:#000000;fill-opacity:1" />
        <path
           d="M3243 4603 c9 -2 25 -2 35 0 9 3 1 5 -18 5 -19 0 -27 -2 -17 -5z"
           id="path11"
           style="fill:#000000;fill-opacity:1" />
        <path
           d="M3000 4560 c-9 -6 -10 -10 -3 -10 6 0 15 5 18 10 8 12 4 12 -15 0z"
           id="path12"
           style="fill:#000000;fill-opacity:1" />
        <path
           d="M3057 4523 c-10 -9 -9 -33 1 -33 4 0 8 9 8 20 0 23 0 22 -9 13z"
           id="path13"
           style="fill:#000000;fill-opacity:1" />
        <path
           d="M3226 4431 c-7 -10 -81 -22 -152 -24 l-51 -2 36 -37 c28 -31 42 -38 72 -38 48 0 67 8 80 33 21 37 33 98 15 68z"
           id="path14"
           style="fill:#000000;fill-opacity:1" />
        <path
           d="M3133 3733 c3 -5 24 -15 46 -23 43 -14 97 -8 127 15 17 13 15 13 -21 4 -39 -11 -104 -8 -139 7 -12 4 -17 4 -13 -3z"
           id="path15"
           style="fill:#000000;fill-opacity:1" />
        <path
           d="M3440 3396 c0 -2 8 -10 18 -17 15 -13 16 -12 3 4 -13 16 -21 21 -21 13z"
           id="path16"
           style="fill:#000000;fill-opacity:1" />
        <path
           d="M3050 3065 c-25 -13 -41 -24 -37 -25 11 0 87 39 87 45 0 7 0 7 -50 -20z"
           id="path17"
           style="fill:#000000;fill-opacity:1" />
        <path
           d="M3045 3013 c-50 -21 -65 -24 -90 -14 -27 9 -28 9 -11 -4 29 -22 64 -18 126 15 67 36 56 37 -25 3z"
           id="path18"
           style="fill:#000000;fill-opacity:1" />
        <path
           d="M2914 2149 c-3 -6 -3 -13 0 -16 3 -4 6 -1 6 7 0 10 3 10 15 0 34 -28 2 -66 -33 -39 -15 13 -16 12 -3 -3 7 -10 19 -18 26 -18 20 0 37 27 30 49 -7 22 -32 35 -41 20z"
           id="path19"
           style="fill:#000000;fill-opacity:1" />
        <path
           d="M3364 1237 c3 -9 1 -28 -4 -42 -5 -14 -6 -25 -1 -25 13 0 20 53 9 70 -8 12 -9 12 -4 -3z"
           id="path20"
           style="fill:#000000;fill-opacity:1" />
        <path
           d="M3516 847 c3 -10 9 -15 12 -12 3 3 0 11 -7 18 -10 9 -11 8 -5 -6z"
           id="path21"
           style="fill:#000000;fill-opacity:1" />
        <path
           d="M3519 783 c-13 -16 -12 -17 4 -4 16 13 21 21 13 21 -2 0 -10 -8 -17 -17z"
           id="path22"
           style="fill:#000000;fill-opacity:1" />
        <path
           d="M3490 750 c-9 -6 -10 -10 -3 -10 6 0 15 5 18 10 8 12 4 12 -15 0z"
           id="path23"
           style="fill:#000000;fill-opacity:1" />
        <path
           d="M1931 4458 c-1 -9 -10 -19 -20 -23 -16 -5 -18 -10 -8 -35 10 -28 12 -28 25 -9 7 10 21 19 30 19 12 0 13 3 5 8 -7 4 -16 19 -22 32 -6 17 -10 19 -10 8z"
           id="path24"
           style="fill:#000000;fill-opacity:1" />
        <path
           d="M3463 4130 c-18 -11 -33 -24 -33 -30 0 -7 61 27 79 46 12 12 -18 2 -46 -16z"
           id="path25"
           style="fill:#000000;fill-opacity:1" />
        <path
           d="M4401 3973 c-1 -7 -12 -15 -26 -19 -24 -6 -25 -8 -10 -23 8 -10 15 -26 15 -37 0 -17 1 -16 16 4 8 12 23 22 32 22 12 0 13 3 5 8 -7 4 -16 19 -22 32 -5 14 -10 19 -10 13z"
           id="path26"
           style="fill:#000000;fill-opacity:1" />
        <path
           d="M1988 3920 c-12 -22 -25 -30 -45 -30 -28 -1 -28 -1 -5 -13 12 -7 19 -16 16 -20 -4 -4 -2 -7 4 -7 7 0 12 -12 13 -27 0 -28 0 -28 11 -5 7 13 17 21 25 18 8 -3 11 -1 8 4 -4 6 8 10 27 10 l33 0 -32 19 c-22 14 -33 29 -35 50 l-3 31 -17 -30z"
           id="path27"
           style="fill:#000000;fill-opacity:1" />
        <path
           d="M2281 3943 c-1 -7 -12 -15 -26 -19 -21 -5 -23 -8 -10 -21 8 -8 15 -21 15 -29 0 -13 2 -13 16 0 8 9 25 16 37 16 20 1 21 1 4 11 -10 6 -22 20 -27 32 -5 12 -9 16 -9 10z"
           id="path28"
           style="fill:#000000;fill-opacity:1" />
        <path
           d="M4412 3716 c-12 -32 -16 -35 -30 -24 -13 11 -15 10 -9 -4 5 -15 0 -18 -31 -18 l-37 -1 33 -17 c27 -15 30 -20 20 -31 -11 -12 -10 -13 5 -8 14 5 17 0 18 -36 l0 -42 16 38 c12 30 18 35 29 26 12 -10 13 -9 8 5 -5 13 1 16 37 17 l44 0 -38 16 c-30 12 -35 18 -26 29 9 12 9 13 -4 8 -13 -4 -16 3 -19 37 l-3 43 -13 -38z"
           id="path29"
           style="fill:#000000;fill-opacity:1" />
        <path
           d="M2220 3695 c-12 -36 -25 -44 -33 -22 -3 7 -6 5 -6 -5 -1 -14 -10 -18 -38 -19 l-38 -1 33 -14 c22 -10 32 -20 28 -29 -3 -9 0 -12 10 -8 11 4 14 -4 15 -33 1 -39 1 -39 11 -11 6 18 15 26 24 23 8 -3 14 1 14 9 0 10 12 15 38 16 l37 1 -33 14 c-27 12 -31 18 -22 29 9 11 7 12 -9 8 -17 -4 -19 -1 -14 36 7 50 -1 53 -17 6z"
           id="path30"
           style="fill:#000000;fill-opacity:1" />
        <path
           d="M2780 3642 c0 -4 10 -13 23 -21 22 -14 22 -14 3 8 -20 22 -26 25 -26 13z"
           id="path31"
           style="fill:#000000;fill-opacity:1" />
        <path
           d="M1816 3588 c-10 -27 -21 -48 -24 -48 -3 0 -11 8 -19 18 -12 15 -13 15 -7 -9 5 -26 5 -26 -48 -22 l-53 4 48 -22 c46 -21 47 -22 30 -41 -17 -19 -17 -19 11 -12 l28 7 -7 -49 -6 -49 23 43 c23 40 24 41 41 25 18 -17 18 -17 11 11 l-7 29 54 -6 54 -5 -47 22 c-42 20 -46 24 -32 38 14 14 14 15 -8 11 -22 -4 -24 -2 -20 30 7 64 -3 75 -22 25z"
           id="path32"
           style="fill:#000000;fill-opacity:1" />
        <path
           d="M4670 3600 c0 -21 -41 -50 -72 -51 l-33 -1 28 -11 c16 -6 26 -16 23 -24 -3 -7 1 -13 9 -13 9 0 12 -8 9 -26 -3 -16 -1 -23 6 -19 5 3 10 13 10 22 0 9 6 13 15 9 9 -3 15 0 15 9 0 8 9 15 21 15 19 0 18 2 -7 25 -20 19 -25 30 -20 50 4 14 4 25 1 25 -3 0 -5 -4 -5 -10z"
           id="path33"
           style="fill:#000000;fill-opacity:1" />
        <path
           d="M4461 3307 c-1 -10 -4 -16 -8 -14 -5 3 -14 -1 -21 -9 -8 -9 -9 -14 -2 -14 6 0 9 -4 6 -9 -10 -15 18 -18 44 -4 14 7 20 13 13 13 -6 0 -16 12 -21 28 -7 18 -11 21 -11 9z"
           id="path34"
           style="fill:#000000;fill-opacity:1" />
        <path
           d="M2073 3193 c9 -2 25 -2 35 0 9 3 1 5 -18 5 -19 0 -27 -2 -17 -5z"
           id="path35"
           style="fill:#000000;fill-opacity:1" />
        <path
           d="M2035 3180 c3 -5 8 -10 11 -10 2 0 4 5 4 10 0 6 -5 10 -11 10 -5 0 -7 -4 -4 -10z"
           id="path36"
           style="fill:#000000;fill-opacity:1" />
        <path
           d="m 2086,3104 c -21,-20 -11,-35 16,-25 28,10 96,-16 167,-63 30,-21 110.2252,-37.7284 126.2252,-36.7284 26,1 -19.7726,4.8151 -48.7726,11.8151 -16,4 -60.4526,23.9133 -95.4526,46.9133 -35,23 -72,42 -83,42 -10,0 -18,5 -18,10 0,11 42,4 74,-12 12,-7 16,-7 12,0 -13,21 -75,34 -108,23 -40,-14 -43,-14 -28,4 26.5444,32.1631 10.2425,24.4065 -14,-1 z"
           id="path37"
           style="fill:#000000;fill-opacity:1" />
        <path
           d="M4444 2953 c-21 -12 -52 -37 -69 -56 -16 -19 -43 -41 -60 -50 -23 -13 -26 -16 -11 -17 11 0 40 22 65 49 54 57 78 71 151 87 l55 13 -46 -2 c-25 -1 -63 -12 -85 -24z"
           id="path38"
           style="fill:#000000;fill-opacity:1" />
        <path
           d="M2175 2420 c-20 -43 -24 -46 -44 -27 -11 10 -12 8 -6 -10 6 -22 3 -23 -42 -24 l-48 -1 43 -20 c41 -18 43 -21 28 -37 -16 -17 -15 -18 6 -14 22 4 23 2 21 -44 l-3 -48 20 43 c20 44 29 49 47 31 9 -9 10 -7 6 10 -5 19 -1 21 43 22 l49 0 -40 16 c-51 21 -50 20 -36 37 10 12 8 13 -10 9 -21 -6 -22 -4 -16 45 3 29 5 52 3 52 -2 0 -11 -18 -21 -40z"
           id="path39"
           style="fill:#000000;fill-opacity:1" />
        <path
           d="M4016 2417 c-7 -22 -11 -25 -22 -16 -12 10 -13 8 -8 -6 6 -15 3 -17 -26 -13 -30 4 -31 4 -15 -9 11 -7 23 -13 28 -13 4 0 5 -4 2 -10 -3 -5 -1 -10 4 -10 6 0 11 -12 12 -27 0 -28 0 -28 11 -5 6 13 17 21 25 18 7 -3 12 0 10 7 -1 7 9 11 28 9 l30 -3 -32 20 c-23 15 -33 29 -35 53 l-4 33 -8 -28z"
           id="path40"
           style="fill:#000000;fill-opacity:1" />
        <path
           d="M2526 2207 c-6 -19 -13 -26 -23 -23 -8 3 -11 1 -8 -4 4 -6 -8 -10 -27 -10 l-33 0 33 -20 c25 -15 32 -27 33 -52 l1 -33 10 28 c8 23 13 26 24 16 12 -10 13 -9 8 5 -5 12 0 16 22 16 29 1 29 1 6 13 -12 7 -19 16 -16 20 4 4 2 7 -4 7 -6 0 -12 15 -14 33 l-4 32 -8 -28z"
           id="path41"
           style="fill:#000000;fill-opacity:1" />
        <path
           d="M3910 2075 c-10 -18 -19 -24 -33 -19 -18 6 -18 5 2 -15 12 -12 21 -26 21 -32 0 -6 7 -3 16 5 8 9 23 16 31 16 13 0 13 3 -3 18 -11 9 -18 25 -16 35 5 24 -2 21 -18 -8z"
           id="path42"
           style="fill:#000000;fill-opacity:1" />
        <path
           d="M2376 1892 c-5 -14 -13 -21 -22 -18 -7 3 -13 0 -11 -7 1 -7 -10 -11 -33 -9 l-35 2 33 -15 c18 -8 31 -19 27 -25 -3 -5 -1 -10 4 -10 6 0 11 -12 12 -27 0 -28 0 -28 11 -5 6 13 17 21 24 18 9 -3 11 1 7 11 -5 14 0 15 33 11 l39 -6 -33 14 c-18 8 -30 19 -27 24 3 6 2 10 -4 10 -5 0 -11 12 -13 28 -3 27 -4 27 -12 4z"
           id="path43"
           style="fill:#000000;fill-opacity:1" />
        <path
           d="M4286 1812 c-5 -15 -13 -21 -22 -18 -9 3 -12 1 -9 -4 4 -6 -8 -10 -27 -11 l-33 -1 28 -10 c19 -7 26 -15 23 -25 -3 -8 -1 -11 4 -8 6 4 10 -8 11 -27 l1 -33 10 28 c8 23 13 26 24 16 12 -10 13 -9 8 5 -5 13 1 16 27 17 l34 1 -28 10 c-15 5 -25 14 -21 19 3 5 1 9 -5 9 -5 0 -11 12 -13 28 -3 27 -4 27 -12 4z"
           id="path44"
           style="fill:#000000;fill-opacity:1" />
      </g>
      <path
         style="fill:#fccd97;fill-opacity:1;fill-rule:evenodd;stroke-width:0;stroke-linecap:round;stroke-linejoin:round;stroke-opacity:0.540421;paint-order:markers stroke fill"
         d="m 419.1672,288.6386 c -6.24956,-2.58461 -23.77638,-14.7574 -28.45611,-19.76344 -1.83793,-1.96608 -3.23364,-7.46445 -4.04411,-15.9316 l -0.44571,-4.65643 2.82817,1.65741 c 3.16884,1.85707 4.29566,2.06521 4.29566,0.79349 0,-0.53194 0.98,-0.99537 2.55025,-1.20598 1.40264,-0.18814 3.00893,-0.72273 3.56954,-1.188 0.56061,-0.46527 1.54388,-0.75706 2.18505,-0.64844 3.5288,0.59782 -2.38913,-7.537 -8.43062,-11.58878 -1.49347,-1.0016 -2.83672,-1.90553 -2.98499,-2.00872 -0.14828,-0.1032 0.2779,-0.60183 0.94706,-1.10808 1.13637,-0.85972 1.06087,-0.92178 -1.14422,-0.94054 -1.29849,-0.011 -3.85554,0.54801 -5.68236,1.24235 -1.82681,0.69433 -3.48225,1.26257 -3.67874,1.26274 -0.87763,7.9e-4 -3.11529,-5.12129 -3.11529,-7.131 0,-1.22325 0.99254,-6.15663 2.20563,-10.96305 1.21309,-4.80643 2.20751,-8.80999 2.2098,-8.8968 0.0406,-1.53212 7.29565,5.05909 12.16957,11.05597 1.90194,2.34014 3.96008,5.24922 4.57365,6.46461 2.1274,4.21406 3.4775,3.73717 5.06522,-1.78916 2.00769,-6.9881 6.56674,-12.24318 17.65653,-20.35213 3.47255,-2.53915 8.35875,-6.55141 10.85823,-8.91611 2.49948,-2.3647 4.79687,-4.29946 5.10531,-4.29946 0.30844,0 1.04202,1.73085 1.63018,3.84633 1.48422,5.33844 3.51624,9.13537 9.68502,18.09692 5.94277,8.63323 12.18204,20.1725 12.18204,22.53019 0,2.22832 1.26811,2.69497 2.65826,0.97821 0.65505,-0.80896 2.87494,-4.76078 4.93308,-8.78183 3.91064,-7.64033 9.21747,-14.71484 8.44431,-11.25707 -0.26365,1.17913 -0.13357,1.73627 0.40537,1.73627 1.16253,0 0.36746,9.38161 -1.23065,14.52157 -2.26032,7.26973 -6.28728,12.00555 -8.58619,10.09762 -0.59496,-0.49378 -1.22346,-0.59555 -1.56243,-0.25302 -0.3119,0.31518 -1.75353,3.98246 -3.20363,8.14952 -4.1847,12.02528 -6.88719,16.66684 -14.00945,24.06142 -6.54994,6.80038 -13.1122,11.77672 -18.91258,14.34192 -5.38778,2.38274 -6.69776,2.48624 -10.67085,0.8431 z m 2.22304,-7.35008 c 4.64593,-0.76082 6.73747,-2.61145 8.47609,-7.49982 1.91856,-5.39429 2.17731,-7.0338 1.11008,-7.0338 -0.49856,0 -1.00869,0.30665 -1.13362,0.68145 -0.3894,1.16819 -7.38135,2.42727 -17.18725,3.09499 -5.17936,0.35268 -9.50322,0.72745 -9.60859,0.83283 -0.14861,0.1486 6.38908,6.90644 8.73376,9.02786 0.41034,0.37127 3.80496,1.30886 5.24086,1.44753 0.34725,0.0335 2.31316,-0.21444 4.36867,-0.55104 z m -12.64406,-21.84604 c 0.55484,-1.4459 0.4706,-4.68366 -0.12187,-4.68366 -1.0264,0 -2.02039,1.56347 -2.02039,3.17791 0,2.48642 1.39081,3.46399 2.14226,1.50575 z m -6.92265,-8.2013 c 1.05641,-1.05642 1.31305,-2.16471 0.50127,-2.16471 -0.81901,0 -3.29735,1.92511 -3.29735,2.56129 0,0.93744 1.7037,0.6958 2.79608,-0.39658 z m 35.71765,-6.58432 c 0,-0.34725 -1.27853,-0.63137 -2.84118,-0.63137 -1.56265,0 -2.84118,0.28412 -2.84118,0.63137 0,0.34726 1.27853,0.63138 2.84118,0.63138 1.56265,0 2.84118,-0.28412 2.84118,-0.63138 z m -10.10196,-2.87253 c 0,-1.23263 0.44464,-3.101 0.9881,-4.15193 l 0.98809,-1.91077 3.08878,2.88918 c 3.81016,3.56397 5.87648,3.77658 9.11014,0.9374 2.50302,-2.19769 3.68356,-5.55453 3.38271,-9.61869 -0.23818,-3.21757 1.34034,-3.72134 2.20572,-0.70393 0.84076,2.93157 -0.43516,6.52959 -3.65185,10.29804 -3.00412,3.51941 -3.4306,4.50186 -1.95426,4.50186 2.86344,0 7.92142,-7.53254 7.93444,-11.81627 0.004,-1.34916 0.64142,-2.7535 1.90028,-4.18727 1.04177,-1.1865 1.89412,-2.75904 1.89412,-3.49452 0,-1.20143 -0.35585,-1.33723 -3.5039,-1.33723 -1.97874,0 -4.35521,-0.44023 -5.45968,-1.01137 -1.42809,-0.73849 -3.20423,-0.94833 -6.58289,-0.77772 -4.50416,0.22745 -4.70303,0.30816 -7.48346,3.03695 -4.03454,3.9596 -3.61256,5.00958 0.77405,1.926 3.87753,-2.72572 7.46937,-4.11334 8.08191,-3.12224 0.20054,0.32448 -0.86107,1.11633 -2.35914,1.75965 -4.82793,2.0733 -10.48776,9.59808 -11.57387,15.38753 -0.47396,2.52641 -0.0738,3.63649 1.31091,3.63649 0.62128,0 0.9098,-0.71073 0.9098,-2.24116 z m -43.94206,-15.34854 c 1.35511,-0.34678 4.40937,-0.4674 6.78726,-0.26805 3.70335,0.31048 4.32342,0.21669 4.32342,-0.65395 0,-1.32553 -1.79401,-2.24749 -5.31143,-2.72961 -2.33237,-0.31968 -3.43164,-0.0824 -6.18134,1.33425 -1.83947,0.94769 -3.77066,2.15517 -4.29154,2.68328 -1.03891,1.05332 -0.79898,1.03454 4.67363,-0.36592 z m 43.58716,-9.81069 c 8.54962,-4.48397 12.19422,-5.31258 17.49446,-3.97745 2.18706,0.55092 4.07767,0.90048 4.20135,0.77679 0.12369,-0.12368 -1.10597,-1.00481 -2.73257,-1.95806 -5.37501,-3.14997 -10.57586,-2.69218 -19.37023,1.70502 -3.66793,1.83397 -8.07733,5.27093 -8.07733,6.29597 0,1.18951 2.20591,0.45053 8.48432,-2.84227 z"
         id="path45"
         transform="scale(0.75)" />
      <path
         style="fill:#fccd97;fill-opacity:1;fill-rule:evenodd;stroke-width:0;stroke-linecap:round;stroke-linejoin:round;stroke-opacity:0.540421;paint-order:markers stroke fill"
         d="m 316.14722,460.36462 c -1.62324,-0.28289 -3.58203,-0.72286 -4.35286,-0.97771 -2.38505,-0.78855 -8.37293,-3.86731 -12.11627,-6.22977 -4.64811,-2.93348 -8.4419,-4.81901 -10.58649,-5.26152 -0.91164,-0.18812 -1.79058,-0.45245 -1.95321,-0.58741 -0.45689,-0.37919 -0.3514,-0.84458 0.25395,-1.12039 1.13512,-0.5172 6.20884,0.72261 9.25973,2.2627 0.73651,0.37179 1.44243,0.67598 1.5687,0.67598 0.37647,0 0.26172,-0.56862 -0.24466,-1.21238 -1.59269,-2.02478 -6.31161,-3.39483 -11.04725,-3.20737 -2.05132,0.0812 -2.83925,0.22962 -5.05629,0.95242 -1.44446,0.47092 -2.68854,0.79398 -2.76462,0.7179 -0.0761,-0.0761 0.47895,-0.95583 1.23339,-1.95501 0.75443,-0.99918 1.45733,-1.9697 1.56199,-2.15671 0.16769,-0.29966 0.58486,-0.30836 3.51354,-0.0733 8.00854,0.64284 14.17041,2.40364 19.93652,5.69703 1.23093,0.70307 2.34855,1.24147 2.48359,1.19645 0.46436,-0.15478 -1.6344,-2.44181 -3.22149,-3.51048 -0.87397,-0.58849 -3.22975,-1.89894 -5.23506,-2.9121 -3.42531,-1.7306 -5.17132,-2.88203 -5.17132,-3.41029 0,-0.35456 2.78472,-0.007 5.75787,0.71938 5.17299,1.26319 9.60317,2.88836 11.06226,4.05808 1.1372,0.91166 2.51962,1.30155 4.61485,1.30155 2.4027,0 4.23781,-0.91948 6.41996,-3.21671 2.94085,-3.09595 4.72209,-6.14506 8.74877,-14.97604 10.68537,-23.43423 18.9681,-39.16724 26.79399,-50.89505 5.17621,-7.75702 7.88467,-12.4271 8.90652,-15.35712 1.37487,-3.94228 5.24829,-20.353 8.32207,-35.25855 l 1.18527,-5.74766 2.17643,-3.5e-4 c 1.19704,-2e-4 2.17644,0.0519 2.17644,0.11569 0,0.0638 -0.25536,0.74187 -0.56745,1.50677 -1.40693,3.44812 -2.01287,7.24198 -1.80866,11.32417 0.14043,2.80717 0.2738,3.5601 1.89797,10.71475 1.11989,4.93327 1.63534,8.09942 3.8296,23.52362 l 1.77458,12.47403 -3.0994,7.06798 c -4.2071,9.59404 -6.12061,13.66234 -8.03972,17.09321 -5.00051,8.93962 -9.01166,13.59293 -20.21358,23.44966 -2.08596,1.83547 -5.80264,5.25944 -8.25929,7.60883 -4.07059,3.89288 -6.06265,5.96765 -14.36931,14.96595 -3.20272,3.46939 -6.80844,6.86119 -9.0371,8.50095 -0.87825,0.64619 -1.99862,1.50749 -2.48971,1.91401 l -0.8929,0.73913 z m 59.94786,-83.32152 c -0.15589,-0.4301 -3.20364,-3.84799 -3.91532,-4.39082 -0.90241,-0.6883 -1.49212,-0.63136 -1.58358,0.15291 -0.0887,0.7604 1.06656,1.89426 3.40614,3.3431 1.75745,1.08834 2.23725,1.29349 2.09276,0.89481 z"
         id="path46"
         transform="scale(0.75)" />
      <path
         style="fill:#fccd97;fill-opacity:1;fill-rule:evenodd;stroke-width:0;stroke-linecap:round;stroke-linejoin:round;stroke-opacity:0.540421;paint-order:markers stroke fill"
         d="m 568.55129,483.844 c -2.25678,-0.81112 -4.63255,-2.50302 -8.20998,-5.84671 -1.88305,-1.76002 -7.6368,-6.91013 -12.78611,-11.44467 -14.75029,-12.98932 -21.86034,-19.55326 -28.13521,-25.9742 -6.96085,-7.12289 -8.55384,-9.03893 -12.37978,-14.89043 -6.0846,-9.30596 -7.90756,-13.53757 -11.27415,-26.1706 -5.35774,-20.10479 -17.31703,-45.66549 -24.21305,-51.75075 -2.21783,-1.95709 -10.28008,-6.92167 -10.64608,-6.55566 -0.11703,0.11702 1.41534,1.71091 3.40527,3.54197 l 3.61804,3.32919 -1.75644,2.22206 c -0.96604,1.22214 -4.06579,5.26075 -6.88832,8.97471 l -5.13189,6.75264 -0.52,-4.77149 c -1.56346,-14.34612 -4.44924,-23.55098 -9.96373,-31.78158 -3.1138,-4.64747 -7.47767,-9.80079 -9.34693,-11.03783 -2.97259,-1.96721 -6.93256,-1.95543 -15.33692,0.0456 -3.6803,0.87628 -7.88997,1.64876 -9.35482,1.71663 l -2.66337,0.12339 -0.82772,-1.7328 c -1.17706,-2.46414 -3.43795,-11.32038 -3.44133,-13.48021 -0.002,-1.36596 0.2754,-2.08098 1.11328,-2.86812 1.02907,-0.96677 1.50134,-2.23224 0.83305,-2.23224 -0.7165,0 -7.90896,3.91674 -11.32458,6.16693 -4.47564,2.94854 -10.03549,8.3932 -11.60687,11.36642 -1.09065,2.06361 -1.16235,2.11035 -3.23675,2.11035 -1.40113,0 -2.12035,-0.18947 -2.11831,-0.55806 0.008,-1.48898 4.21492,-18.43602 5.64462,-22.73987 1.88234,-5.66648 4.04319,-9.24448 7.93087,-13.13216 3.30151,-3.3015 5.1088,-3.99531 8.0789,-3.10145 4.13142,1.24338 13.78074,7.10858 17.04997,10.36359 1.03153,1.02703 2.67241,3.43947 3.64641,5.36096 3.22119,6.35473 4.07333,6.7377 2.75271,1.23712 -0.66242,-2.75909 -0.73281,-3.66892 -0.31679,-4.09453 0.29418,-0.30097 2.24024,-0.86456 4.32458,-1.25243 6.92977,-1.28955 13.36228,-5.23715 23.65664,-14.51797 l 5.13415,-4.62866 0.31669,3.15579 c 0.57571,5.73691 3.72977,11.57576 9.45627,17.50563 5.42701,5.61973 10.87914,9.25739 17.68942,11.80236 7.17623,2.68172 11.13969,5.51017 14.35402,10.24349 4.70119,6.9228 7.20616,14.87332 14.87607,47.21518 2.16351,9.1229 4.37076,15.87642 6.72166,20.56626 1.05441,2.10345 4.42914,7.17405 7.49939,11.26801 9.41763,12.55771 15.95874,23.55848 25.27028,42.49929 7.87254,16.01369 11.61143,22.19491 15.6073,25.80229 4.17111,3.76558 7.43139,3.51798 13.43751,-1.02051 6.84362,-5.17136 19.31683,-9.05495 29.24233,-9.10476 4.38113,-0.022 9.18705,0.73227 8.57374,1.34558 -0.12217,0.12217 -2.90484,0.60859 -6.18372,1.08094 -12.74467,1.83597 -27.26978,6.40365 -32.41363,10.19305 -2.87995,2.12162 -2.27158,2.48474 1.21836,0.72724 4.96005,-2.49784 9.64615,-4.22141 14.71732,-5.4131 2.59189,-0.60908 6.60343,-1.71026 8.91454,-2.44708 3.69761,-1.17885 4.45516,-1.28537 6.31084,-0.8874 3.8163,0.81845 12.92563,4.75736 13.62715,5.89244 0.35529,0.57488 0.56703,0.60366 -7.62143,-1.03603 -4.55668,-0.91245 -5.92454,-1.01693 -9.15218,-0.69906 -11.505,1.13301 -15.15525,2.84006 -23.66313,11.06609 -2.57747,2.49209 -6.04068,5.36833 -7.69601,6.39164 -1.65534,1.0233 -3.01142,1.98974 -3.01352,2.14763 -0.002,0.15789 0.32544,0.41342 0.72788,0.56785 1.44965,0.55628 4.6289,-1.65726 10.83478,-7.54367 7.61772,-7.22557 9.16676,-8.07731 19.20276,-10.55858 l 7.25008,-1.79249 3.54883,2.32987 c 3.63186,2.38439 7.09466,5.41927 7.09466,6.21793 0,0.89174 -1.95629,0.40889 -5.73804,-1.41627 -3.65023,-1.76168 -4.07953,-1.86333 -7.87862,-1.8654 -3.44976,-0.002 -4.5712,0.20472 -7.9293,1.46074 -3.81749,1.42785 -6.17214,2.82112 -5.65161,3.3441 0.14243,0.14311 1.74964,-0.14388 3.57158,-0.63775 1.82193,-0.49388 4.40955,-1.19638 5.75026,-1.56111 4.39147,-1.19469 9.17507,-0.67028 9.74925,1.06876 0.16347,0.49512 -0.35456,0.57232 -2.64343,0.39392 -7.02937,-0.54789 -15.36794,2.32577 -24.63659,8.49034 -5.87803,3.90947 -8.71988,5.02124 -12.715,4.97425 -1.64823,-0.0194 -3.59948,-0.25187 -4.33612,-0.51663 z M 461.16733,310.70743 c 4.86102,-2.52899 8.54507,-5.78357 6.54674,-5.78357 -2.14958,0 -10.55151,5.53789 -10.55151,6.95472 0,0.88651 0.11345,0.85333 4.00477,-1.17115 z"
         id="path47"
         transform="scale(0.75)" />
      <path
         style="fill:#fcf997;fill-opacity:1;fill-rule:evenodd;stroke-width:0;stroke-linecap:round;stroke-linejoin:round;stroke-opacity:0.540421;paint-order:markers stroke fill"
         d="m 373.0369,333.66742 c 0.24757,-1.16444 0.45717,-2.16559 0.74993,-3.58204 1.1941,-5.77733 2.21598,-10.6273 2.99098,-14.19565 l 0.12878,-0.59294 0.0872,-0.004 c 0.0506,-0.002 0.0872,0.002 0.0872,0.01 0,0.008 -0.0593,0.28251 -0.13183,0.61105 -0.3816,1.72913 -0.59364,2.85727 -0.59364,3.15847 0,0.11708 0.0272,0.17918 0.11229,0.25602 0.15595,0.14089 0.48963,0.23588 1.04334,0.297 0.18344,0.0202 0.35992,0.0242 1.09753,0.0245 0.89457,4.1e-4 1.03288,-0.006 1.29749,-0.0569 0.24877,-0.0481 0.39825,-0.10622 0.57479,-0.22341 0.33316,-0.22115 0.56317,-0.55181 1.15922,-1.66655 0.24419,-0.45667 0.37302,-0.67341 0.62138,-1.04539 0.24064,-0.3604 0.58387,-0.82679 0.88554,-1.20331 l 0.13135,-0.16393 h 0.11709 c 0.0644,0 0.11709,0.003 0.11709,0.007 0,0.004 -0.10888,0.15275 -0.24195,0.33135 -0.4771,0.64032 -0.9856,1.38759 -1.39343,2.04773 -2.9302,4.74305 -4.19073,9.96071 -3.79859,15.72334 0.0112,0.16497 0.0242,0.33605 0.029,0.38017 0.008,0.0728 0.006,0.0802 -0.0183,0.0802 -0.0296,0 -0.0327,-0.0368 -0.0808,-0.95881 -0.16032,-3.06941 0.1419,-6.01513 0.89477,-8.72112 0.2805,-1.00822 0.52046,-1.70333 1.00981,-2.92524 0.30483,-0.76116 0.46049,-1.18158 0.46049,-1.24376 0,-0.0396 -0.0468,-0.0535 -0.25113,-0.0742 -0.38955,-0.0394 -0.67535,-0.0458 -2.35083,-0.052 l -1.75789,-0.007 -0.62654,3.0391 c -1.09526,5.3126 -1.3639,6.59019 -2.2371,10.63917 l -0.0654,0.30344 h -0.0442 -0.0442 z"
         id="path48"
         transform="scale(0.75)" />
      <path
         style="fill:#fbd13a;fill-opacity:1;fill-rule:evenodd;stroke-width:0;stroke-linecap:round;stroke-linejoin:round;stroke-opacity:0.540421;paint-order:markers stroke fill"
         d="m 462.03273,231.16127 c -0.11309,-0.39066 -0.33535,-2.42224 -0.49392,-4.51462 -0.46062,-6.07828 -1.11958,-8.59466 -5.65858,-21.60841 -2.61763,-7.50502 -3.2148,-11.30108 -3.96753,-25.22062 -0.24733,-4.57365 -0.50836,-8.37439 -0.58007,-8.4461 -0.157,-0.157 -0.71665,4.03238 -1.22214,9.14862 -0.93291,9.44241 1.82922,23.47801 6.5708,33.38901 0.97244,2.03263 1.70619,3.88134 1.63056,4.10825 -0.44274,1.32822 -12.37723,-17.20775 -14.73153,-22.88017 -2.01768,-4.8614 -2.2731,-8.24056 -1.43883,-19.03568 0.27302,-3.53271 0.44688,-6.67105 0.38635,-6.97409 -0.0605,-0.30305 -1.00759,2.0771 -2.10459,5.28921 -3.21177,9.40431 -6.47779,15.06688 -11.30544,19.60119 -1.85644,1.74364 -5.22208,4.07528 -5.88252,4.07528 -0.0996,0 0.56904,-1.10096 1.48575,-2.44657 3.43237,-5.03825 9.52974,-16.91648 9.87726,-19.24182 l 0.17917,-1.19887 -0.64522,0.63138 c -0.35488,0.34725 -1.72971,2.68545 -3.05518,5.19599 -1.32548,2.51054 -3.42757,5.99099 -4.67132,7.73432 -4.72144,6.61794 -12.10524,15.36939 -14.78339,17.5216 -2.64969,2.12936 -2.01743,0.62772 3.52674,-8.37608 5.68091,-9.22588 6.86282,-11.50034 5.97606,-11.50034 -0.62824,0 -6.70305,8.43539 -10.60172,14.72141 -4.26857,6.88243 -6.64656,11.93996 -8.20439,17.44919 -0.46184,1.63329 -1.05985,3.48005 -1.32891,4.10392 l -0.48921,1.1343 -0.36507,-1.73628 c -0.48624,-2.31262 -1.39155,-5.01634 -3.98278,-11.89468 -3.54568,-9.4119 -3.50668,-9.22263 -3.72375,-18.06982 -0.13542,-5.51931 -0.29546,-7.74389 -0.5635,-7.8328 -1.03883,-0.34456 -1.62104,6.58784 -1.06663,12.70025 0.39116,4.31257 1.05808,7.69484 2.39611,12.15181 1.22632,4.08485 1.01605,4.3591 -1.4459,1.88582 -1.98805,-1.9972 -6.59361,-7.89855 -8.31215,-10.65081 -2.91505,-4.66847 -3.71957,-8.2745 -3.07168,-13.76802 0.91338,-7.7447 4.3056,-14.24148 12.28927,-23.5364 2.17126,-2.52787 4.16099,-4.8456 4.42164,-5.15052 0.26064,-0.30491 0.38454,-0.64373 0.27533,-0.75294 -0.10921,-0.10921 -2.36944,1.43167 -5.02274,3.42418 -2.6533,1.99251 -6.3158,4.66433 -8.13888,5.93737 -8.52189,5.95075 -12.87616,10.79468 -16.99004,18.90063 -1.9072,3.75793 -2.25805,4.77162 -1.65152,4.77162 0.40709,0 1.49323,-1.51209 3.48484,-4.85151 2.94309,-4.93479 8.4294,-11.674 11.63419,-14.29105 2.92096,-2.38529 3.08992,-1.74707 0.7637,2.88472 -2.7199,5.41566 -12.11272,28.81318 -12.82482,31.94663 -0.57419,2.52663 -0.65368,7.01132 -0.21153,11.93376 0.56971,6.34237 0.76117,12.58038 0.37888,12.34411 -1.10354,-0.68203 -8.45315,-12.3552 -10.21497,-16.22413 -4.06661,-8.93024 -2.80574,-22.74653 3.12198,-34.20978 1.73107,-3.34759 5.09795,-8.17201 7.30425,-10.46627 1.90002,-1.97578 4.13929,-3.56137 10.04041,-7.10944 5.63253,-3.38658 6.91261,-4.45928 4.82251,-4.04126 -3.04588,0.60917 -16.5772,7.14984 -21.51181,10.39821 -3.96715,2.6115 -8.03293,6.62015 -13.0299,12.84679 -4.17236,5.19911 -6.00468,7.20105 -6.31076,6.89496 -0.56061,-0.56061 3.119,-8.18287 6.78815,-14.06157 4.00409,-6.41532 8.46815,-10.70629 14.20252,-13.65181 4.71698,-2.42292 8.05863,-3.6398 26.4371,-9.62716 10.18717,-3.31878 15.60888,-5.3018 20.12901,-7.36229 4.18115,-1.90597 7.61385,-3.01685 11.56703,-3.74328 4.01064,-0.73699 12.38985,-0.73584 17.46063,0.002 5.03503,0.73303 10.04538,1.74647 10.41165,2.10595 0.18445,0.18104 0.005,1.27705 -0.47353,2.89881 -0.98789,3.34507 -1.01387,8.58075 -0.0607,12.23615 0.33955,1.30221 0.69742,2.15456 0.79527,1.89412 0.0979,-0.26044 0.53817,-2.99434 0.97848,-6.07533 1.76466,-12.34795 3.04281,-11.72936 11.90065,5.75964 4.51367,8.91184 5.17573,10.06236 5.56585,9.67224 0.54236,-0.54236 -5.11262,-15.67848 -7.36285,-19.70744 -0.60982,-1.09186 -1.05894,-2.13468 -0.99805,-2.31736 0.48103,-1.4431 17.08585,15.1005 23.35199,23.2659 4.73815,6.17426 6.82944,13.86182 6.47778,23.81215 -0.20069,5.67843 -0.8044,9.45123 -2.32371,14.52157 -1.34933,4.50309 -3.20027,8.69695 -5.64675,12.79441 l -1.87944,3.14775 -0.0958,-2.52549 c -0.11609,-3.05987 0.34946,-6.78656 1.37833,-11.03325 0.87241,-3.60093 0.94878,-4.59322 0.35353,-4.59322 -0.44418,0 -4.44236,3.12691 -8.58113,6.71115 l -2.52549,2.18712 -0.19682,-4.05453 c -0.14918,-3.07314 -0.4387,-4.97146 -1.19614,-7.84276 -2.93072,-11.1098 -6.97202,-22.57993 -8.22947,-23.35708 -0.68677,-0.42444 -0.26488,1.44044 2.22375,9.82959 2.27728,7.67672 3.53158,13.01951 4.26128,18.15129 0.46617,3.27838 0.49273,4.33443 0.18126,7.20623 -0.60225,5.55282 -2.65771,13.16856 -4.31942,16.00406 -0.90292,1.5407 -1.24017,1.6847 -1.53779,0.65659 z m -67.25989,-50.87102 c 0.62577,-0.95505 0.98926,-3.03241 0.53059,-3.03241 -0.45485,0 -1.61503,1.51632 -1.83707,2.401 -0.35772,1.42526 0.51118,1.8452 1.30648,0.63141 z"
         id="path49"
         transform="scale(0.75)" />
      <path
         style="fill:#a0cd4a;fill-opacity:1;fill-rule:evenodd;stroke-width:0;stroke-linecap:round;stroke-linejoin:round;stroke-opacity:0.540421;paint-order:markers stroke fill"
         d="m 406.16162,506.82464 c -3.20911,-4.90089 -9.26978,-18.93797 -11.52262,-26.68745 -1.15746,-3.98153 -2.6764,-7.23915 -3.37542,-7.23915 -0.69902,0 -7.68972,6.27217 -15.5349,13.93814 -12.99436,12.69756 -14.33284,13.681 -15.0379,11.04902 -1.49976,-5.59859 -0.82797,-22.49427 1.083,-27.23752 1.76197,-4.37341 1.27345,-4.05487 -7.13734,4.65384 l -9.02877,9.34857 0.71438,-5.32604 c 0.82208,-6.12906 3.85564,-11.29984 28.08187,-47.86613 18.84724,-28.44741 19.1396,-28.68455 19.44668,-15.77362 0.0692,2.91068 0.69411,5.64333 1.38862,6.07256 2.6474,1.63619 1.09425,-11.40635 -4.41961,-37.11348 -3.1253,-14.57098 -5.68235,-27.7353 -5.68235,-29.25403 0,-2.3308 0.30007,-2.51229 1.92463,-1.16402 3.16292,2.62499 3.59718,0.39439 0.71203,-3.65743 -9.54417,-13.40355 -7.86056,-30.10484 4.0027,-39.70657 5.52315,-4.47026 7.2833,-3.65494 9.70236,4.49426 2.84411,9.58108 4.37631,10.07499 19.95303,6.43187 l 9.14574,-2.13903 3.25566,3.05854 c 4.36249,4.09835 12.92272,21.75396 14.34679,29.59049 0.63019,3.46792 0.82957,13.41584 0.44306,22.10649 -0.70039,15.74823 -0.69142,15.81465 2.67862,19.81972 1.85976,2.21019 6.99927,6.60021 11.42113,9.75558 18.76869,13.39307 36.81704,40.34652 40.54961,60.55688 l 0.90437,4.89691 -4.83435,-3.28503 c -2.6589,-1.80677 -5.00723,-3.11219 -5.21849,-2.90092 -0.21127,0.21127 0.21447,3.6222 0.94608,7.57986 0.73162,3.95764 1.15628,9.59415 0.94371,12.52556 -0.38519,5.31194 -0.40192,5.28952 -4.97994,-6.66624 -2.5264,-6.59784 -6.96788,-19.95137 -9.86994,-29.67451 -5.08336,-17.03136 -11.38818,-30.4347 -18.39033,-39.09575 -5.36705,-6.63858 -4.59947,-2.57943 1.1271,5.96039 5.33136,7.95045 9.50688,18.65045 14.16253,36.29223 1.19131,4.51431 4.9203,15.11288 8.28663,23.55238 3.36632,8.43949 6.1206,15.94545 6.1206,16.67991 0,1.19395 -6.88287,-2.59506 -26.03811,-14.33397 -3.38904,-2.07691 -6.50649,-3.94383 -6.92766,-4.14872 -0.42118,-0.2049 -1.09044,2.77308 -1.48724,6.61774 -0.50583,4.90108 -2.0681,9.20709 -5.22723,14.40757 -5.69425,9.37376 -7.98277,11.44971 -9.03165,8.19279 -3.90263,-12.11815 -13.16808,-28.23829 -16.23067,-28.23829 -0.85785,0 -3.68753,4.89917 -6.28818,10.88703 -2.60065,5.98788 -6.61673,14.29396 -8.92463,18.45798 l -4.19617,7.57093 z m 2.71986,-48.56112 c 9.30528,-4.63702 8.13848,-6.14121 -1.84797,-2.38232 -5.89677,2.21954 -9.76428,2.94754 -12.94314,2.43635 -4.27073,-0.68677 -4.39143,-0.6147 -2.08235,1.24338 3.56879,2.87176 9.40803,2.42277 16.87346,-1.29741 z m -1.05018,-6.8141 c 5.0666,-2.58479 7.56374,-5.06903 5.09536,-5.06903 -1.96252,0 -11.35216,5.47764 -11.36399,6.62941 -0.0145,1.41273 0.87475,1.19137 6.26863,-1.56038 z m 31.01318,-87.7144 c 2.40848,-1.00632 4.37905,-2.07783 4.37905,-2.38113 0,-0.30329 -4.40382,-0.47435 -9.78627,-0.38012 -5.38246,0.0942 -11.34893,-0.26567 -13.25883,-0.79979 -4.91151,-1.37353 -4.43716,1.1734 0.63137,3.38998 5.41032,2.36605 12.61773,2.43441 18.03468,0.17106 z"
         id="path50"
         transform="scale(0.75)" />
      <path
         style="fill:#a0cd4a;fill-opacity:1;fill-rule:evenodd;stroke-width:0;stroke-linecap:round;stroke-linejoin:round;stroke-opacity:0.540421;paint-order:markers stroke fill"
         d="m 327.05098,160.37063 c -1.73627,-2.37784 -5.89418,-7.43467 -9.2398,-11.2374 -5.74301,-6.5277 -6.28511,-7.78293 -9.70096,-22.46286 -1.98992,-8.55184 -4.79289,-18.90511 -6.22883,-23.00727 -3.78709,-10.818851 -3.2356,-11.240941 2.62895,-2.01212 11.63142,18.30392 28.80955,54.59097 28.84278,60.92745 0.0184,3.5049 -2.86953,2.49319 -6.30214,-2.2078 z"
         id="path51"
         transform="scale(0.75)" />
      <path
         style="fill:#a0cd4a;fill-opacity:1;fill-rule:evenodd;stroke-width:0;stroke-linecap:round;stroke-linejoin:round;stroke-opacity:0.540421;paint-order:markers stroke fill"
         d=""
         id="path52"
         transform="scale(0.75)" />
      <path
         style="fill:#d4ece4;fill-opacity:1;fill-rule:evenodd;stroke-width:0;stroke-linecap:round;stroke-linejoin:round;stroke-opacity:0.540421;paint-order:markers stroke fill"
         d="m 506.36078,327.14891 c 0,-0.9879 2.13089,-2.48607 4.7353,-3.32926 16.93319,-5.48215 36.93449,-23.26443 48.88501,-43.46151 6.50789,-10.9987 5.46698,-12.86896 -1.41406,-2.54074 -11.78735,17.69244 -25.99219,31.50738 -40.12099,39.01973 -7.53923,4.00865 -15.19069,4.37854 -17.09181,0.82628 -1.9004,-3.55095 -1.69904,-3.87125 2.4337,-3.87125 6.04258,0 16.48223,-4.60796 25.42811,-11.22371 7.23565,-5.35098 15.39255,-14.03119 13.1853,-14.03119 -0.41307,0 -4.57147,3.15227 -9.24089,7.00504 -10.99308,9.07046 -20.2497,13.56067 -29.30594,14.21574 -6.22368,0.45018 -7.61487,0.10824 -10.83747,-2.66372 l -3.6972,-3.1802 3.5238,-2.77183 c 1.9381,-1.5245 6.4826,-5.31675 10.09891,-8.42723 3.6163,-3.11047 9.27421,-7.03723 12.57314,-8.72611 3.29892,-1.68889 5.99804,-3.41628 5.99804,-3.83865 0,-0.83073 -5.51278,0.0797 -9.26203,1.52963 -1.96867,0.76133 -1.75375,-0.22186 1.42981,-6.54098 2.0607,-4.09034 6.12449,-14.1655 9.03063,-22.38924 10.31665,-29.19387 20.327,-47.51682 31.98172,-58.53937 11.18866,-10.58177 22.21134,-14.62255 26.32995,-9.65225 2.40077,2.89722 2.00078,19.12287 -0.72486,29.40415 -4.72096,17.8078 -16.42697,38.35267 -28.31138,49.68847 -4.15632,3.96446 -8.43689,7.20811 -9.51238,7.20811 -3.49045,0 -6.17518,-7.26516 -5.25317,-14.21562 0.97838,-7.37535 6.36311,-24.95427 9.59055,-31.30916 2.53947,-5.00025 13.44275,-17.61247 15.22602,-17.61247 2.45181,0 0.9357,11.0656 -2.67667,19.53612 -4.24711,9.9589 -4.11981,9.50702 -2.67827,9.50702 1.37904,0 8.73496,-15.90677 9.78589,-21.16145 2.32495,-11.62472 -4.10106,-13.96117 -12.96235,-4.71301 -13.41201,13.99755 -23.47735,47.30624 -17.73993,58.70583 1.1909,2.36618 2.76114,3.25464 6.26935,3.54724 4.09413,0.34147 5.49549,-0.37042 11.18572,-5.68236 17.50791,-16.34394 30.74218,-45.10791 33.76334,-73.38282 0.76885,-7.19563 1.71437,-9.73431 5.59377,-15.01911 4.92925,-6.71498 8.49812,-10.2655 8.47094,-8.42737 -0.009,0.60592 -1.18069,4.7952 -2.60383,9.30952 -1.42314,4.51431 -6.00191,20.67898 -10.17503,35.92148 -13.55835,49.52242 -24.83093,75.95836 -38.156,89.48168 -9.10931,9.24484 -16.63098,14.65004 -27.62199,19.84966 -8.56614,4.05246 -16.13275,4.96936 -16.13275,1.95491 z m 25.25491,-47.45087 c 1.42034,-0.9179 0.78864,-1.22407 -2.52549,-1.22407 -3.31413,0 -3.94583,0.30617 -2.52549,1.22407 1.04176,0.67324 2.17823,1.22407 2.52549,1.22407 0.34725,0 1.48372,-0.55083 2.52549,-1.22407 z m 16.41568,-35.11167 c 0,-1.94868 1.17732,-7.02929 2.61627,-11.29024 1.97087,-5.83607 3.08854,-7.56597 4.53073,-7.01255 1.41273,0.54211 1.8026,0.0131 1.48765,-2.0186 -0.7348,-4.74011 -2.82525,-3.53842 -6.45273,3.70934 -3.81861,7.62963 -6.06861,20.15509 -3.62055,20.15509 0.79125,0 1.43863,-1.59437 1.43863,-3.54304 z"
         id="path53"
         transform="scale(0.75)" />
      <path
         style="fill:#d4ece4;fill-opacity:1;fill-rule:evenodd;stroke-width:0;stroke-linecap:round;stroke-linejoin:round;stroke-opacity:0.540421;paint-order:markers stroke fill"
         d=""
         id="path54"
         transform="scale(0.75)" />
      <path
         style="fill:#d4ece4;fill-opacity:1;fill-rule:evenodd;stroke-width:0;stroke-linecap:round;stroke-linejoin:round;stroke-opacity:0.540421;paint-order:markers stroke fill"
         d="m 329.79351,163.4328 c -0.80778,-0.69155 -1.67888,-1.68106 -2.83154,-3.21648 -2.19255,-2.92063 -5.34391,-6.7481 -9.18299,-11.15321 -0.72822,-0.83558 -1.57208,-1.81794 -1.87525,-2.18301 -2.77353,-3.33986 -3.95542,-5.62999 -5.28834,-10.24713 -0.60559,-2.09769 -1.16937,-4.34458 -2.27238,-9.05625 -1.49956,-6.40559 -3.05615,-12.48575 -4.45855,-17.41543 -0.15025,-0.52816 -0.27318,-0.96766 -0.27318,-0.97666 0,-0.009 1.2146,-0.0164 2.69913,-0.0164 h 2.69913 l 0.61135,1.07531 c 10.37112,18.24188 21.84623,43.02029 23.48357,50.70845 0.075,0.35194 0.15764,0.81427 0.18375,1.02741 0.054,0.44055 0.0319,1.25422 -0.0418,1.5362 l -0.0489,0.18743 h -1.54415 -1.54415 z"
         id="path55"
         transform="scale(0.75)" />
      <path
         style="fill:#d4ece4;fill-opacity:1;fill-rule:evenodd;stroke-width:0;stroke-linecap:round;stroke-linejoin:round;stroke-opacity:0.540421;paint-order:markers stroke fill"
         d="m 336.24115,162.25288 c -0.0229,-0.0597 -1.06174,-3.01184 -2.30845,-6.56035 -1.24672,-3.54852 -2.43369,-6.91353 -2.63771,-7.47782 -2.15669,-5.96501 -5.86952,-14.67233 -8.66548,-20.32231 -1.76289,-3.56238 -4.56092,-8.58401 -7.68457,-13.79154 -0.71795,-1.19691 -2.71844,-4.47154 -2.95911,-4.84381 l -0.0574,-0.0888 h 4.10493 4.10492 l 1.1614,1.25288 c 2.63641,2.84406 5.07657,5.59744 8.12223,9.16477 5.38816,6.31105 7.59671,9.63208 9.37068,14.0908 1.71876,4.31993 3.7664,11.77844 5.18291,18.87868 0.64579,3.23702 0.96143,5.36755 0.96754,6.53076 0.004,0.83376 -3.5e-4,0.85035 -0.26346,0.92436 -0.11366,0.032 -1.03237,0.28208 -2.04158,0.55578 -1.00921,0.27371 -2.84117,0.78958 -4.07103,1.14638 -1.22986,0.3568 -2.24691,0.64873 -2.26011,0.64873 -0.0132,0 -0.0428,-0.0488 -0.0657,-0.10852 z"
         id="path56"
         transform="scale(0.75)" />
      <path
         style="fill:#d4ece4;fill-opacity:1;fill-rule:evenodd;stroke-width:0;stroke-linecap:round;stroke-linejoin:round;stroke-opacity:0.540421;paint-order:markers stroke fill"
         d="m 303.52845,108.74365 c -0.0847,-0.22269 -0.15394,-0.47642 -0.15394,-0.56385 0,-0.0874 -0.70675,-2.30247 -1.57056,-4.92232 -2.11198,-6.405465 -2.52853,-7.999146 -2.0908,-7.999146 0.38074,0 1.71438,1.782515 4.11852,5.504736 1.26235,1.95444 4.369,7.05982 4.90229,8.05629 0.17528,0.3275 0.16294,0.32917 -2.4377,0.32917 h -2.61388 z"
         id="path57"
         transform="scale(0.75)" />
      <path
         style="fill:#d4ece4;fill-opacity:1;fill-rule:evenodd;stroke-width:0;stroke-linecap:round;stroke-linejoin:round;stroke-opacity:0.540421;paint-order:markers stroke fill"
         d="m 329.83452,164.8557 c -0.22874,-0.17993 -0.41589,-0.42297 -0.41589,-0.5401 0,-0.11712 -0.31963,-0.68961 -0.7103,-1.27219 -0.39066,-0.58258 -0.71029,-1.09735 -0.71029,-1.14393 0,-0.0466 0.51496,0.41426 1.14436,1.02409 1.55585,1.50747 2.62855,2.024 3.50494,1.6877 0.75214,-0.28863 0.92736,-2.10187 0.40997,-4.24264 -2.50268,-10.35539 -18.79044,-43.78962 -29.09206,-59.7179 -2.56537,-3.966564 -3.77282,-5.55024 -4.2317,-5.55024 -0.66577,0 -0.41168,1.101008 1.82134,7.89216 2.29435,6.97765 3.55821,11.70089 7.81373,29.20098 1.59995,6.57955 2.65894,9.42098 4.56911,12.25962 0.51586,0.7666 2.37296,3.063 4.1269,5.10312 4.76709,5.54494 9.42368,11.29568 9.27053,11.44883 -0.0381,0.0381 -0.85194,-0.87086 -1.80851,-2.01992 -2.4474,-2.93988 -9.13097,-10.37209 -13.80204,-15.34802 l -0.59269,-0.63138 -1.98934,-9.43347 c -3.07908,-14.60097 -4.72696,-20.89388 -8.13169,-31.05329 -3.25539,-9.713777 -3.54623,-11.731233 -1.66138,-11.524235 1.90477,0.209186 11.95634,8.877923 18.89899,16.298985 l 1.73509,1.85466 -4.00331,-2.6e-4 -4.00332,-2.6e-4 -0.85879,-1.38087 c -1.48159,-2.3823 -4.66492,-7.16317 -6.1833,-9.286381 -1.74505,-2.440177 -2.58275,-3.498174 -3.64342,-4.601571 -2.2489,-2.339507 -0.61962,0.852956 4.36913,8.561012 5.15327,7.96224 8.87997,14.60631 14.10414,25.14523 9.03224,18.22109 15.09586,33.86652 14.07792,36.32405 -0.45041,1.08738 -3.04882,1.70081 -4.00812,0.94622 z"
         id="path58"
         transform="scale(0.75)" />
      <path
         style="fill:#d4ece4;fill-opacity:1;fill-rule:evenodd;stroke-width:0;stroke-linecap:round;stroke-linejoin:round;stroke-opacity:0.540421;paint-order:markers stroke fill"
         d="m 352.06912,161.92351 c -1.21698,-0.17108 -2.80836,-0.54464 -3.21417,-0.75449 -0.62107,-0.32116 -1.35833,-1.19875 -1.76146,-2.09671 -0.51825,-1.15441 -1.29819,-4.34066 -2.44525,-9.98947 -1.08864,-5.36115 -1.91787,-8.98712 -2.44718,-10.70085 -0.64179,-2.07785 -0.34702,-2.19592 1.12283,-0.44974 3.56506,4.23529 9.21825,14.2281 11.0233,19.48526 0.81796,2.38225 0.78178,3.79565 -0.10936,4.27253 -0.35362,0.18923 -1.55975,0.31908 -2.16871,0.23347 z"
         id="path59"
         transform="scale(0.75)" />
      <path
         style="fill:#d4ece4;fill-opacity:1;fill-rule:evenodd;stroke-width:0;stroke-linecap:round;stroke-linejoin:round;stroke-opacity:0.540421;paint-order:markers stroke fill"
         d="m 357.33767,158.28055 c -0.53232,-0.48092 -1.04195,-1.38308 -2.78643,-4.9326 -3.0327,-6.17066 -4.65997,-9.04707 -7.86769,-13.90716 -7.57902,-11.4831 -17.54369,-23.48789 -29.01539,-34.95583 -8.06217,-8.059536 -13.38286,-12.671175 -20.36768,-17.653426 -3.50325,-2.498852 -5.29068,-4.183152 -5.29068,-4.985413 0,-0.09299 0.17446,-0.248552 0.38768,-0.345703 0.34955,-0.159266 0.56299,-0.0597 2.17034,1.012389 3.14058,2.094741 7.48608,5.383369 11.01649,8.337151 3.88015,3.246392 6.59787,5.777173 11.92699,11.106582 11.44865,11.44925 21.79731,23.36059 41.73968,48.04246 2.47419,3.06221 4.51557,5.61817 4.5364,5.67991 0.0431,0.12774 -3.32434,2.34677 -4.33281,2.85518 -0.94764,0.47775 -1.36244,0.42807 -2.1169,-0.25354 z"
         id="path60"
         transform="scale(0.75)" />
      <path
         style="fill:#d4ece4;fill-opacity:1;fill-rule:evenodd;stroke-width:0;stroke-linecap:round;stroke-linejoin:round;stroke-opacity:0.540421;paint-order:markers stroke fill"
         d="m 342.30558,265.21593 c -0.12004,-0.28214 -0.64771,-1.517 -1.17259,-2.74413 -8.22868,-19.23776 -15.37868,-46.14889 -23.31145,-87.73945 -2.22238,-11.65163 -5.07768,-25.53845 -5.45518,-26.53135 -0.4118,-1.0831 -0.0877,-1.09901 1.29107,-0.0634 1.89139,1.42072 5.8921,5.86272 8.91422,9.89747 2.02748,2.70685 4.87462,7.00878 5.48606,8.28926 1.04499,2.18842 1.04775,3.10142 0.0226,7.46093 -2.05289,8.72974 -1.89644,18.50121 0.47259,29.51667 2.6261,12.21081 7.86553,23.86022 14.42624,32.07548 3.91836,4.90654 8.28487,8.81902 12.00911,10.7604 2.86902,1.49557 5.02715,1.9676 6.99462,1.52988 2.1766,-0.48425 2.88216,-1.47536 3.80946,-5.35124 0.82511,-3.44874 1.9386,-6.02985 2.73275,-6.33459 0.38334,-0.1471 0.67005,0.32757 0.67005,1.10934 0,0.39697 0.0952,0.73984 0.23851,0.85875 0.37806,0.31376 1.41146,-0.17667 2.68159,-1.27262 1.55277,-1.33983 2.15816,-1.63758 2.85918,-1.40622 0.73754,0.24341 3.14458,2.55677 4.41591,4.24406 1.862,2.47119 3.29576,5.83125 4.02601,9.43508 0.28135,1.38844 0.35915,2.42923 0.41946,5.61124 0.0407,2.14864 0.0242,3.90662 -0.0368,3.90662 -0.061,0 -1.01006,-0.63098 -2.10907,-1.40217 -1.09901,-0.77119 -2.7085,-1.7982 -3.57663,-2.28224 -3.57279,-1.99205 -7.18478,-2.57674 -9.5672,-1.54868 -1.11991,0.48327 -3.68791,2.54975 -3.16854,2.54975 0.10093,0 0.80585,-0.26636 1.56649,-0.59191 1.33987,-0.57346 1.43955,-0.59154 3.19817,-0.5801 1.50265,0.01 2.05979,0.086 3.23578,0.4429 5.73505,1.74039 11.53643,6.50436 12.47509,10.24426 l 0.10766,0.42897 -11.5002,-1.4e-4 -11.5002,-1.4e-4 -1.3902,-2.1702 c -0.76461,-1.19361 -1.89077,-3.05807 -2.50257,-4.14324 -1.53523,-2.72308 -2.48531,-3.84907 -2.80765,-3.32751 -0.39798,0.64395 1.30789,4.05995 4.1249,8.2601 l 0.92632,1.38113 h -5.51696 -5.51695 l -1.2543,-2.32818 c -0.68986,-1.28051 -1.79297,-3.39363 -2.45137,-4.69584 -2.08117,-4.11624 -3.37551,-6.2348 -3.80917,-6.2348 -0.18107,0 -0.18109,0.14229 -1.3e-4,0.9076 0.38733,1.63805 2.33931,5.90379 4.62039,10.09711 0.62428,1.14761 1.13505,2.12427 1.13505,2.17034 0,0.0461 -1.34861,0.0838 -2.9969,0.0838 h -2.9969 z"
         id="path61"
         transform="scale(0.75)" />
      <path
         style="fill:#d4ece4;fill-opacity:1;fill-rule:evenodd;stroke-width:0;stroke-linecap:round;stroke-linejoin:round;stroke-opacity:0.540421;paint-order:markers stroke fill"
         d="m 358.45763,245.63993 c -2.84127,-1.14606 -5.62856,-3.2148 -9.39871,-6.97574 -2.69883,-2.69224 -4.4562,-4.82946 -6.68933,-8.1352 -7.18175,-10.63128 -11.90725,-23.79552 -13.52652,-37.68198 -0.34117,-2.92582 -0.39049,-10.06677 -0.0864,-12.51123 0.31312,-2.51713 0.91692,-5.33783 1.54599,-7.22226 1.49961,-4.4922 4.39491,-8.41175 6.73323,-9.11518 2.34178,-0.70448 6.94105,-1.22463 10.92932,-1.23605 2.29376,-0.007 2.95431,0.0414 3.42837,0.24913 0.57496,0.2519 0.58342,0.26807 0.40623,0.77636 -0.27893,0.80014 -2.747,4.39394 -4.64366,6.76173 -1.64327,2.05144 -3.58277,4.07573 -6.95667,7.26078 -4.14499,3.91298 -5.79918,8.94651 -5.27848,16.06189 0.44859,6.13011 2.0686,11.63976 5.46448,18.58468 2.69006,5.50147 5.31141,9.42739 8.28133,12.40269 2.15194,2.15585 3.27402,2.82918 4.71471,2.82918 0.79987,0 0.91203,-0.0469 1.44125,-0.60328 0.60636,-0.63741 1.11917,-1.92178 1.10558,-2.76902 l -0.008,-0.49486 -0.50506,0.61682 c -1.16598,1.42399 -1.47335,1.6719 -2.07295,1.6719 -2.48165,0 -6.84243,-5.30581 -10.70397,-13.02365 -3.5728,-7.14075 -5.81832,-13.96697 -6.43786,-19.57059 -0.40936,-3.70264 0.34114,-7.5914 2.16004,-11.19231 0.9558,-1.89222 1.87038,-3.14706 3.22525,-4.42517 1.25431,-1.18326 1.7916,-1.50337 2.06477,-1.2302 0.29307,0.29307 -0.2243,2.59774 -1.76645,7.86891 -0.78436,2.68097 -1.57589,5.62553 -1.75896,6.54347 -0.29596,1.48401 -0.30784,1.72018 -0.10726,2.13088 0.58465,1.19709 2.04012,0.25471 7.31586,-4.73683 2.92473,-2.76717 4.02431,-3.66429 5.08829,-4.1514 0.96102,-0.43997 1.36366,-0.37427 1.7007,0.2775 0.46566,0.90049 0.24659,2.95023 -0.73238,6.85263 -2.2189,8.845 -1.96752,17.48761 0.67977,23.37098 0.73422,1.63176 1.86032,4.88872 1.86375,5.39049 0.004,0.57915 1.36044,2.18344 3.68631,4.35975 3.10277,2.90326 3.96906,3.83975 4.5405,4.9084 0.73826,1.3806 0.937,2.30722 1.03937,4.84608 0.10918,2.70756 -0.11452,5.18834 -0.66271,7.34938 -0.49929,1.96826 -0.90439,2.78185 -1.89368,3.80323 -0.77958,0.80488 -0.8346,0.83231 -1.66542,0.83033 -0.64128,-0.002 -1.2806,-0.17203 -2.52069,-0.67224 z m -9.16653,-36.61616 c -0.31077,-0.5975 -1.88684,-2.46666 -2.63565,-3.12579 -0.74894,-0.65925 -1.19922,-0.78369 -1.35613,-0.37478 -0.17973,0.46837 0.40668,1.12247 2.58696,2.88559 1.27412,1.03033 1.72307,1.22687 1.40482,0.61498 z m -4.31687,-6.03243 c 0.27524,-0.65874 0.29745,-1.81239 0.0455,-2.36529 -0.20441,-0.44864 -0.67864,-0.53613 -0.82591,-0.15236 -0.12439,0.32416 -0.12439,2.49121 0,2.81536 0.16194,0.42201 0.53991,0.27781 0.78038,-0.29771 z"
         id="path62"
         transform="scale(0.75)" />
      <path
         style="fill:#d4ece4;fill-opacity:1;fill-rule:evenodd;stroke-width:0;stroke-linecap:round;stroke-linejoin:round;stroke-opacity:0.540421;paint-order:markers stroke fill"
         d="m 379.69167,284.3277 c -1.76092,-0.65559 -5.60089,-4.50898 -10.6694,-10.70668 -1.3476,-1.64782 -4.76286,-6.11065 -5.64699,-7.37911 l -0.35756,-0.51299 11.49384,0.005 11.49383,0.005 0.78266,1.40904 c 1.04216,1.87627 2.40338,3.76813 4.42011,6.14325 0.91488,1.07745 1.65958,2.00083 1.6549,2.05196 -0.0117,0.12769 -7.70815,6.72187 -8.80256,7.54186 -1.80253,1.35055 -3.29353,1.84285 -4.36883,1.44252 z"
         id="path63"
         transform="scale(0.75)" />
      <path
         style="fill:#d4ece4;fill-opacity:1;fill-rule:evenodd;stroke-width:0;stroke-linecap:round;stroke-linejoin:round;stroke-opacity:0.540421;paint-order:markers stroke fill"
         d="m 375.27206,293.92386 c -2.37589,-1.11864 -8.33924,-6.28973 -12.51059,-10.8485 -3.97468,-4.34384 -7.42925,-8.98308 -10.68154,-14.34452 -0.91749,-1.5125 -1.66816,-2.80668 -1.66816,-2.87596 0,-0.0693 2.44562,-0.12596 5.43471,-0.12596 h 5.43472 l 0.91031,1.30221 c 3.53615,5.05849 6.6735,8.91984 11.16464,13.74107 5.25378,5.63991 6.56052,7.44585 6.56882,9.07823 0.005,0.98318 -0.84489,2.91895 -1.65084,3.76009 -0.604,0.63037 -0.72431,0.68788 -1.43604,0.68647 -0.48428,-9.6e-4 -1.07402,-0.14148 -1.56603,-0.37313 z"
         id="path64"
         transform="scale(0.75)" />
      <path
         style="fill:#d4ece4;fill-opacity:1;fill-rule:evenodd;stroke-width:0;stroke-linecap:round;stroke-linejoin:round;stroke-opacity:0.540421;paint-order:markers stroke fill"
         d="m 372.31345,303.42663 c -3.01895,-1.63796 -9.83702,-8.35965 -16.08634,-15.85892 -3.67561,-4.41079 -7.03688,-8.99732 -9.03276,-12.32541 -0.56118,-0.93574 -3.64644,-7.17602 -4.33284,-8.76362 l -0.32415,-0.74976 h 3.03213 3.03214 l 1.47716,2.56495 c 4.79053,8.31831 7.91297,12.65762 12.54691,17.43669 2.78848,2.87581 5.14067,4.95302 8.42017,7.43579 3.06819,2.3228 4.37611,3.58767 4.90552,4.74407 0.34087,0.74455 0.37794,0.99654 0.29937,2.03535 -0.15851,2.09593 -1.41255,3.9899 -2.63323,3.97698 -0.21859,-0.002 -0.80542,-0.22556 -1.30408,-0.49612 z"
         id="path65"
         transform="scale(0.75)" />
      <path
         style="fill:#d4ece4;fill-opacity:1;fill-rule:evenodd;stroke-width:0;stroke-linecap:round;stroke-linejoin:round;stroke-opacity:0.540421;paint-order:markers stroke fill"
         d="m 484.22329,303.18777 c -0.71411,-0.21847 -1.19387,-0.42441 -2.9201,-1.25346 -2.74442,-1.31805 -3.98043,-2.05779 -4.79449,-2.86946 -0.29617,-0.2953 -0.4538,-0.51709 -0.4538,-0.63852 0,-0.20274 -0.17944,-0.49865 -0.43164,-0.71177 -0.26867,-0.22704 -0.82779,-0.37146 -1.74677,-0.45117 -1.64154,-0.14239 -2.59492,-0.71128 -3.12755,-1.86624 -0.15943,-0.3457 -0.17893,-0.5096 -0.17769,-1.49323 10e-4,-1.07108 0.0105,-1.13147 0.29989,-1.97304 0.81538,-2.37145 6.09123,-11.70868 12.41924,-21.97965 3.69228,-5.99293 8.46382,-13.4972 12.79635,-20.125 1.14918,-1.75798 2.26663,-3.47157 2.48322,-3.80797 l 0.39382,-0.61164 h 2.04115 c 1.12264,0 2.04116,0.021 2.04116,0.0467 0,0.0257 -0.63487,1.0645 -1.41082,2.30845 -7.74101,12.40988 -14.00345,23.54496 -19.89189,35.36933 -3.84052,7.71199 -5.96883,12.3734 -5.74957,12.59266 0.27851,0.2785 1.11291,-0.95971 3.06122,-4.54266 1.18015,-2.17029 1.99276,-3.53819 3.02402,-5.09044 3.49209,-5.25628 7.59178,-9.66367 12.12782,-13.03807 1.28556,-0.95634 2.11376,-1.49492 4.34069,-2.82277 2.96801,-1.76973 5.1299,-3.24064 5.1299,-3.49029 0,-0.36046 -1.55145,0.19531 -4.2223,1.51256 -3.33159,1.64311 -6.01919,3.28631 -8.00732,4.89566 -1.14839,0.9296 -1.76211,1.33405 -2.24291,1.4781 -0.28209,0.0845 -0.31819,0.0773 -0.45397,-0.0904 -0.34001,-0.41989 -0.0469,-1.48422 0.96171,-3.49239 1.86932,-3.7218 5.58247,-8.65008 8.55866,-11.35947 2.18483,-1.98897 6.15209,-4.52624 9.43374,-6.03336 2.38229,-1.09409 3.77626,-1.87075 4.38058,-2.4407 0.85793,-0.80913 -0.39637,-0.73388 -2.66304,0.15978 -1.32551,0.52259 -3.46916,1.54742 -4.64025,2.2184 -0.45577,0.26113 -1.55437,0.89231 -2.44134,1.40263 -1.81325,1.04324 -4.31138,2.31528 -4.39085,2.23581 -0.14771,-0.14771 2.73647,-4.94028 6.49563,-10.79362 l 0.63356,-0.98652 8.44325,-0.0201 8.44324,-0.0201 -0.42467,1.20391 c -0.23357,0.66215 -0.94227,2.76655 -1.5749,4.67646 -2.07552,6.26599 -3.61414,10.39159 -5.57765,14.95563 -6.9142,16.07165 -15.08681,27.59835 -24.64082,34.7536 -1.53722,1.15125 -2.38498,1.71111 -3.09318,2.04272 -0.45918,0.215 -0.6404,0.25466 -1.24751,0.27298 -0.51492,0.0155 -0.84055,-0.0184 -1.18382,-0.12344 z"
         id="path66"
         transform="scale(0.75)" />
      <path
         style="fill:#d4ece4;fill-opacity:1;fill-rule:evenodd;stroke-width:0;stroke-linecap:round;stroke-linejoin:round;stroke-opacity:0.540421;paint-order:markers stroke fill"
         d="m 584.47397,184.44178 c -1.36933,-1.44714 -3.40714,-4.43956 -3.55309,-5.21753 -0.3309,-1.76388 0.3458,-3.76384 3.80592,-11.24826 7.47924,-16.17796 17.82675,-32.10824 33.34885,-51.3415 5.07789,-6.29195 10.10288,-11.83087 10.73314,-11.83087 0.39885,0 -0.31629,1.44405 -2.31997,4.68462 -3.79297,6.1344 -6.90486,13.2422 -15.73597,35.94213 -6.15177,15.81286 -7.2774,17.84464 -13.43504,24.25034 -3.8998,4.05691 -6.50344,7.18634 -8.0101,9.62768 -1.95787,3.17247 -3.68317,5.7279 -3.9121,5.79441 -0.12777,0.0371 -0.54251,-0.26034 -0.92164,-0.66102 z"
         id="path67"
         transform="scale(0.75)" />
      <path
         style="fill:#d4ece4;fill-opacity:1;fill-rule:evenodd;stroke-width:0;stroke-linecap:round;stroke-linejoin:round;stroke-opacity:0.540421;paint-order:markers stroke fill"
         d="m 507.64928,241.62031 c 3.73571,-5.74682 11.52772,-17.37329 14.74202,-21.9966 15.31269,-22.02509 49.25878,-64.37148 51.60205,-64.37148 0.22878,0 -0.12869,1.39773 -1.14179,4.46447 -0.54753,1.65744 -1.23592,4.06826 -1.52975,5.35738 -0.54006,2.36939 -0.72465,5.5806 -0.32079,5.5806 0.40965,0 0.85976,-1.24486 2.46367,-6.81368 3.81786,-13.2557 4.89294,-14.88797 20.65341,-31.35761 10.76476,-11.24913 25.56849,-25.6463 36.37782,-35.378768 6.70687,-6.038704 13.82553,-11.921854 14.09702,-11.650359 0.1776,0.177599 -2.97157,3.60387 -9.59812,10.442662 -14.08179,14.532835 -16.59951,17.221945 -20.47304,21.866805 -6.05397,7.25949 -14.86357,19.53966 -19.44726,27.10858 -5.842,9.64673 -11.1397,20.01191 -14.28718,27.95349 -0.75004,1.89246 -1.57495,3.75003 -1.83315,4.12795 -0.7957,1.16466 -1.74479,1.51376 -4.11541,1.51376 -3.24463,0 -3.90964,-0.47018 -4.51344,-3.19113 -0.46893,-2.11317 -0.71124,-1.9091 -0.98509,0.82964 -0.2726,2.72622 -1.23814,3.89075 -5.64454,6.80787 -1.50422,0.99582 -3.96372,2.8387 -5.46555,4.09529 -4.02986,3.37178 -10.44686,9.87055 -12.87828,13.04236 -7.84243,10.23057 -15.59652,24.72444 -21.53284,40.24899 -0.82157,2.14853 -1.58785,4.13244 -1.70286,4.40868 -0.19933,0.47874 -0.32691,0.50227 -2.72517,0.50271 -1.38383,2.5e-4 -5.16033,0.0668 -8.39221,0.14785 l -5.87616,0.14739 z"
         id="path68"
         transform="scale(0.75)" />
      <path
         style="fill:#d4ece4;fill-opacity:1;fill-rule:evenodd;stroke-width:0;stroke-linecap:round;stroke-linejoin:round;stroke-opacity:0.540421;paint-order:markers stroke fill"
         d="m 501.08186,245.26876 c -0.95149,-0.0418 -1.72998,-0.12504 -1.72998,-0.18488 0,-0.19815 10.13987,-15.27737 14.62446,-21.74836 18.22076,-26.29145 40.78388,-55.67575 59.13486,-77.01225 9.74467,-11.33003 16.6562,-18.79545 26.5634,-28.69219 14.29922,-14.28412 24.91867,-23.39401 37.07159,-31.801834 6.3098,-4.365346 12.1657,-7.596836 12.1657,-6.713457 0,0.129923 -1.95507,1.790828 -4.34461,3.690899 -11.00503,8.750779 -26.02131,22.467782 -41.43062,37.845832 -29.90557,29.84492 -63.84791,70.90485 -88.46973,107.02151 -3.59154,5.26826 -10.1495,15.24943 -11.1927,17.03518 -0.23309,0.39901 -0.47748,0.70526 -0.54309,0.68055 -0.0656,-0.0247 -0.89779,-0.0792 -1.84928,-0.121 z"
         id="path69"
         transform="scale(0.75)" />
      <path
         style="fill:#d4ece4;fill-opacity:1;fill-rule:evenodd;stroke-width:0;stroke-linecap:round;stroke-linejoin:round;stroke-opacity:0.540421;paint-order:markers stroke fill"
         d="m 526.42699,389.58152 c -1.267,-1.38565 -1.90929,-4.02434 -2.513,-10.3241 -0.63376,-6.61338 -1.21521,-9.60029 -2.70199,-13.88007 -1.00206,-2.88451 -3.1473,-7.06915 -4.67122,-9.112 -2.39607,-3.21198 -3.07542,-4.33261 -4.09742,-6.75894 -2.06514,-4.90284 -4.08796,-11.35628 -4.21363,-13.44282 -0.0574,-0.95291 -0.0319,-1.00128 0.49755,-0.94174 2.23599,0.2515 10.25663,7.35168 13.97095,12.36763 7.64475,10.32375 11.6998,21.58251 11.6998,32.48425 0,3.37449 -0.54799,4.67887 -3.17425,7.55568 -2.28122,2.49883 -3.79583,3.1468 -4.79679,2.05211 z"
         id="path70"
         transform="scale(0.75)" />
      <path
         style="fill:#d4ece4;fill-opacity:1;fill-rule:evenodd;stroke-width:0;stroke-linecap:round;stroke-linejoin:round;stroke-opacity:0.540421;paint-order:markers stroke fill"
         d=""
         id="path71"
         transform="scale(0.75)" />
      <path
         style="fill:#d4ece4;fill-opacity:1;fill-rule:evenodd;stroke-width:0;stroke-linecap:round;stroke-linejoin:round;stroke-opacity:0.540421;paint-order:markers stroke fill"
         d="m 521.0584,380.87579 c -1.20711,-1.50307 -4.11562,-9.95167 -5.97472,-17.35527 -0.66879,-2.66338 -1.66353,-7.44635 -1.56844,-7.54144 0.16613,-0.16613 3.11181,3.5909 3.91211,4.98964 3.30021,5.76801 6.03601,17.43989 4.6011,19.62984 -0.40732,0.62165 -0.64004,0.68816 -0.97005,0.27723 z"
         id="path72"
         transform="scale(0.75)" />
      <path
         style="fill:#d4ece4;fill-opacity:1;fill-rule:evenodd;stroke-width:0;stroke-linecap:round;stroke-linejoin:round;stroke-opacity:0.540421;paint-order:markers stroke fill"
         d="m 487.63262,387.10227 c -3.68784,-1.72374 -13.21619,-10.79331 -19.36476,-18.43237 -2.72459,-3.38506 -3.6417,-4.79303 -4.44491,-6.82395 -0.816,-2.06327 -0.81178,-3.09119 0.0181,-4.39973 1.17839,-1.85812 6.20237,-6.64985 6.97216,-6.64985 0.86301,0 7.39659,11.36047 10.14197,17.63469 0.81011,1.85138 1.49984,4.02431 1.33101,4.19315 -0.18147,0.18146 -1.01319,-0.44912 -3.58495,-2.71798 -2.44913,-2.16068 -3.55076,-2.89394 -3.07765,-2.04855 0.0983,0.17573 1.80808,2.10941 3.79941,4.29706 5.79265,6.36371 9.12896,10.78995 10.11059,13.41362 0.7766,2.07563 0.21962,2.52507 -1.90093,1.53391 z"
         id="path73"
         transform="scale(0.75)" />
      <path
         style="fill:#d4ece4;fill-opacity:1;fill-rule:evenodd;stroke-width:0;stroke-linecap:round;stroke-linejoin:round;stroke-opacity:0.540421;paint-order:markers stroke fill"
         d="m 455.52871,688.97621 c -1.84028,-3.7294 -4.88465,-7.01628 -8.07216,-8.71521 -4.03473,-2.15048 -4.19181,-2.43204 -4.59146,-8.22992 -0.7298,-10.58762 -3.41642,-15.44324 -20.69647,-37.40552 -12.27641,-15.60284 -28.00139,-37.2161 -38.97818,-53.57373 -9.43981,-14.06721 -9.57297,-22.75936 -0.8002,-52.2344 4.24871,-14.27492 10.10914,-31.25134 10.78828,-31.25134 1.23118,0 8.62721,8.02185 11.79733,12.79556 2.3483,3.53619 2.93634,3.78227 4.52813,1.89493 0.70521,-0.83616 3.00085,-4.23245 5.10142,-7.54733 4.15381,-6.55506 6.77893,-10.03574 7.22611,-9.58121 0.15669,0.15927 0.2849,3.4163 0.2849,7.23784 0,5.20375 0.1418,6.99659 0.56479,7.14073 0.70342,0.2397 5.98435,-5.02563 8.5543,-8.52903 1.05527,-1.43855 2.79691,-4.25117 3.87033,-6.25027 1.07341,-1.99909 1.96725,-3.53427 1.9863,-3.41149 0.019,0.12277 1.18592,4.1408 2.59304,8.92895 2.41981,8.23412 2.62053,8.71306 3.70503,8.84096 1.58965,0.18747 3.80754,-2.38173 10.6647,-12.35403 3.05972,-4.44971 5.76402,-8.02597 6.00957,-7.94723 0.62871,0.20159 3.59457,4.17906 4.77956,6.40981 0.95165,1.79148 0.96232,1.93394 0.25584,3.41545 -0.87187,1.82833 -3.6309,5.09711 -14.19214,16.81427 -16.61884,18.43773 -23.20961,26.34123 -26.99768,32.37491 -3.06076,4.87522 -3.99342,7.88498 -4.00971,12.93954 -0.0167,5.18325 0.44411,7.47601 1.46023,7.26539 0.57703,-0.1196 0.73373,-0.57505 0.66237,-1.92523 l -0.0935,-1.76858 1.89283,2.05554 c 4.19797,4.55882 10.37002,14.93912 14.30689,24.06166 3.45737,8.01144 5.65877,14.87546 8.51939,26.56365 3.54707,14.49297 6.78616,23.95157 11.03838,32.23364 4.58211,8.92458 5.47283,12.07628 5.46327,19.33108 -0.006,4.25963 -0.24307,6.52824 -1.00317,9.58403 -0.93451,3.75696 -4.19079,12.56242 -4.91543,13.29204 -0.18051,0.18176 -0.94683,-0.9232 -1.70293,-2.45546 z M 392.00167,580.92602 c 2.18713,-1.72351 2.84841,-4.93763 1.53746,-7.47274 -1.24949,-2.41625 -4.30968,-3.08486 -5.1978,-1.13566 -0.50188,1.10152 -0.27119,2.48394 0.41452,2.48394 0.20585,0 0.56373,-0.53733 0.79529,-1.19407 l 0.42102,-1.19407 1.45096,1.45163 c 0.92867,0.92911 1.45095,1.89067 1.45095,2.67131 0,2.98665 -2.64596,3.75632 -5.78103,1.68163 -2.293,-1.51744 -2.33231,-0.70999 -0.0753,1.54702 1.82317,1.82317 3.6142,2.24039 4.98394,1.16101 z"
         id="path74"
         transform="scale(0.75)" />
      <path
         style="fill:#facb95;fill-opacity:1;fill-rule:evenodd;stroke-width:0;stroke-linecap:round;stroke-linejoin:round;stroke-opacity:0.540421;paint-order:markers stroke fill"
         d="m 374.4227,543.6691 c -0.49771,-0.81583 -2.69243,-11.64331 -4.56262,-22.50929 -1.11351,-6.46957 -2.30645,-13.26962 -2.65098,-15.11122 l -0.62642,-3.34835 8.73746,-8.69698 8.73747,-8.69697 1.20235,1.44022 c 0.66128,0.79211 2.07742,2.96964 3.14695,4.83895 l 1.94461,3.39874 -4.96611,14.79599 c -4.94348,14.72853 -7.86919,24.37271 -9.26127,30.52835 -0.69216,3.06067 -1.23287,4.12865 -1.70144,3.36056 z"
         id="path75"
         transform="scale(0.75)" />
      <path
         style="fill:#facb95;fill-opacity:1;fill-rule:evenodd;stroke-width:0;stroke-linecap:round;stroke-linejoin:round;stroke-opacity:0.540421;paint-order:markers stroke fill"
         d="m 455.29701,688.08769 c -2.04231,-3.5411 -4.1767,-5.72501 -7.97414,-8.1591 -1.65772,-1.06258 -3.1605,-2.16893 -3.3395,-2.45857 -0.17901,-0.28963 -0.59752,-2.86589 -0.93002,-5.72502 -1.26633,-10.88881 -3.48345,-15.06409 -17.81433,-33.54785 -14.76609,-19.04511 -28.87862,-38.28718 -39.12838,-53.35052 -5.10181,-7.49777 -6.57841,-10.09499 -8.24911,-14.50955 -1.20948,-3.19587 -1.26633,-3.68385 -1.24833,-10.71475 0.0161,-6.31084 0.19026,-8.13556 1.21509,-12.73423 3.12577,-14.02619 14.25363,-48.87557 15.6066,-48.87557 0.79504,0 6.75744,6.41906 10.12893,10.90471 1.75625,2.33664 3.3862,4.36772 3.62211,4.51352 1.11334,0.68808 2.49622,-0.86659 7.68965,-8.64493 3.07797,-4.60996 5.9161,-8.64715 6.30696,-8.97153 0.64435,-0.53477 0.71064,0.0158 0.71064,5.90186 0,6.75963 0.16087,7.90402 1.1111,7.90402 1.25756,0 8.50418,-8.3369 11.16228,-12.84168 1.47112,-2.49316 2.79292,-4.39061 2.93734,-4.21656 0.14442,0.17404 1.12326,3.32997 2.17521,7.01316 2.56037,8.96466 2.8397,9.59863 4.22913,9.59863 1.62784,0 3.50577,-2.082 9.56104,-10.59997 2.92501,-4.11464 5.71421,-7.96637 6.19819,-8.5594 l 0.87997,-1.07823 1.80396,2.41757 c 2.06416,2.7663 3.24722,4.9516 3.24722,5.99816 0,1.33412 -2.61081,4.54003 -15.51406,19.05028 -27.69434,31.14347 -30.13492,34.84062 -29.9708,45.40175 0.0729,4.6902 0.41756,6.07773 1.50975,6.07773 0.62892,0 0.94983,-0.37859 1.11174,-1.31156 l 0.2276,-1.31157 1.84341,2.20446 c 2.84861,3.40654 7.05385,10.12223 10.18644,16.26756 4.9663,9.74258 8.08576,18.46974 11.59074,32.42683 3.94492,15.70898 6.41931,22.89275 11.87041,34.46286 4.32107,9.17158 5.14774,12.61478 4.78286,19.9213 -0.13552,2.71372 -0.57049,6.13945 -0.9666,7.61273 -0.91446,3.4012 -4.36158,12.72376 -4.70475,12.72376 -0.14249,0 -0.98325,-1.25564 -1.86835,-2.7903 z m -62.2394,-107.96301 c 2.29666,-2.72943 1.24797,-7.75636 -1.86499,-8.93991 -1.60998,-0.61211 -3.22947,0.53512 -3.22947,2.28773 0,1.54821 1.27765,1.88463 1.65643,0.43616 0.31676,-1.2113 0.68212,-1.12583 1.83119,0.42837 1.37293,1.85698 1.30037,3.90785 -0.16182,4.57407 -0.9692,0.4416 -1.5008,0.34122 -3.57158,-0.67439 -2.92438,-1.43425 -3.23032,-0.80979 -0.79593,1.62459 2.19511,2.19511 4.43001,2.29103 6.13617,0.26338 z"
         id="path76"
         transform="scale(0.75)" />
      <path
         style="fill:#facb95;fill-opacity:1;fill-rule:evenodd;stroke-width:0;stroke-linecap:round;stroke-linejoin:round;stroke-opacity:0.540421;paint-order:markers stroke fill"
         d="m 374.18068,541.96851 c -0.73919,-2.75941 -2.9006,-14.02851 -5.20825,-27.15455 l -2.1087,-11.99446 8.5716,-8.54214 8.5716,-8.54214 1.19683,1.51578 c 0.65825,0.83369 2.02817,2.91423 3.04427,4.62343 l 1.84744,3.10764 -3.97796,11.89514 c -4.65831,13.92955 -7.87811,24.32316 -9.56286,30.86918 -1.55985,6.06071 -1.77767,6.44811 -2.37397,4.22212 z"
         id="path77"
         transform="scale(0.75)" />
      <path
         style="fill:#facb95;fill-opacity:1;fill-rule:evenodd;stroke-width:0;stroke-linecap:round;stroke-linejoin:round;stroke-opacity:0.540421;paint-order:markers stroke fill"
         d="m 427.08065,669.75901 c -12.36843,-25.16292 -26.89504,-56.86203 -26.53699,-57.9075 0.0788,-0.23007 3.65903,4.23828 7.95609,9.92964 4.29706,5.69137 10.98116,14.34491 14.85356,19.23009 8.09725,10.215 11.64267,15.40086 14.40551,21.07086 2.29971,4.71955 3.33162,8.38223 3.33162,11.82533 0,3.75359 -1.11688,4.9193 -6.13779,6.40621 l -2.34298,0.69385 z"
         id="path78"
         transform="scale(0.75)" />
      <path
         style="fill:#a0cd4a;fill-opacity:1;fill-rule:evenodd;stroke-width:0;stroke-linecap:round;stroke-linejoin:round;stroke-opacity:0.540421;paint-order:markers stroke fill"
         d="m 424.35003,503.37428 c -0.1551,-0.48869 -0.30582,-3.85379 -0.33492,-7.478 -0.0489,-6.0912 0.0415,-6.87643 1.19558,-10.38429 1.51468,-4.60384 2.32596,-6.25026 3.07987,-6.25026 0.8318,0 3.28688,2.68419 3.87924,4.24125 0.28025,0.73664 0.49823,2.72808 0.48442,4.42543 -0.043,5.28317 -2.11462,10.70547 -5.48845,14.36565 -2.0364,2.20923 -2.41171,2.35321 -2.81574,1.08022 z"
         id="path79"
         transform="scale(0.75)" />
      <path
         style="fill:#a0cd4a;fill-opacity:1;fill-rule:evenodd;stroke-width:0;stroke-linecap:round;stroke-linejoin:round;stroke-opacity:0.540421;paint-order:markers stroke fill"
         d="m 468.23979,494.44642 c -5.73281,-4.20964 -7.93675,-9.5309 -6.69864,-16.17339 l 0.30911,-1.65836 4.91093,3.15541 c 5.34736,3.43584 7.36639,5.10949 7.36639,6.10626 0,0.35406 -0.50226,2.03611 -1.11612,3.73789 -0.61387,1.70178 -1.11612,3.87392 -1.11612,4.82698 0,0.95306 -0.15917,1.83121 -0.35371,1.95144 -0.19454,0.12023 -1.68037,-0.75557 -3.30184,-1.94623 z"
         id="path80"
         transform="scale(0.75)" />
      <path
         style="fill:#a0cd4a;fill-opacity:1;fill-rule:evenodd;stroke-width:0;stroke-linecap:round;stroke-linejoin:round;stroke-opacity:0.540421;paint-order:markers stroke fill"
         d="m 394.61233,495.66868 c -4.10095,-5.18422 -7.54208,-11.02232 -7.54208,-12.79563 0,-1.13519 1.93597,-3.40068 2.57078,-3.00834 0.26663,0.16478 0.93244,1.65351 1.47956,3.30828 0.54713,1.65477 1.95601,5.11814 3.13085,7.69638 2.11394,4.63912 2.98198,7.14316 2.47622,7.14316 -0.14368,0 -1.09558,-1.05473 -2.11533,-2.34385 z"
         id="path81"
         transform="scale(0.75)" />
      <path
         style="fill:#a0cd4a;fill-opacity:1;fill-rule:evenodd;stroke-width:0;stroke-linecap:round;stroke-linejoin:round;stroke-opacity:0.540421;paint-order:markers stroke fill"
         d="m 440.20825,730.11998 c -1.57376,-0.81903 -2.57778,-4.32256 -2.57778,-8.99515 0,-2.63829 0.0333,-2.84688 0.61051,-3.82884 0.98994,-1.68397 1.90652,-2.23722 6.9791,-4.21261 2.4403,-0.95031 3.91993,-1.83304 5.4554,-3.25461 2.00364,-1.85501 2.99424,-3.60965 5.37805,-9.52606 1.19814,-2.97368 2.75111,-6.66233 3.45104,-8.19699 3.20335,-7.02368 4.48452,-10.66193 5.54478,-15.746 0.85551,-4.10233 1.1297,-6.60713 1.12306,-10.25958 -0.005,-2.82853 -0.0971,-3.72957 -0.59238,-5.80383 -1.21189,-5.07549 -0.9179,-5.68655 2.03401,-4.22763 2.10497,1.04033 5.25689,4.05383 6.05618,5.7902 0.89475,1.94376 1.22268,4.53196 0.93332,7.36639 -0.45461,4.45326 -1.60522,8.28205 -4.66222,15.51406 -1.94823,4.60899 -3.84004,10.08828 -5.8667,16.99187 -0.86504,2.94666 -2.02661,6.53177 -2.58126,7.96692 -3.20001,8.27993 -7.39374,13.55705 -14.48504,18.22704 -3.45719,2.27674 -5.4233,2.91133 -6.80007,2.19482 z"
         id="path82"
         transform="scale(0.75)" />
      <path
         style="fill:#a0cd4a;fill-opacity:1;fill-rule:evenodd;stroke-width:0;stroke-linecap:round;stroke-linejoin:round;stroke-opacity:0.540421;paint-order:markers stroke fill"
         d="m 468.4217,777.85177 c -1.75615,-1.07091 -3.4463,-3.87635 -3.4463,-5.7204 0,-1.76682 0.79443,-2.81595 3.5101,-4.63543 4.25869,-2.85329 6.7873,-6.38029 8.14537,-11.36143 0.41884,-1.53624 0.50734,-2.42568 0.5072,-5.09768 -2.1e-4,-4.02752 -0.39174,-5.54264 -2.47227,-9.56699 -2.26212,-4.3756 -2.39666,-5.76535 -1.74228,-17.99677 0.38665,-7.22721 0.31072,-12.12324 -0.22164,-14.29072 -0.18093,-0.73664 -0.88427,-2.54475 -1.56299,-4.01803 -1.40884,-3.05816 -2.00523,-5.2832 -1.86883,-6.97229 0.1005,-1.24451 0.62062,-2.06828 1.30588,-2.06828 0.21846,0 1.58409,0.41277 3.03473,0.91727 6.8177,2.37104 9.86944,5.03025 10.9212,9.51645 0.41851,1.78517 0.33785,6.28902 -0.21492,12.00028 -0.4816,4.97584 -0.94042,12.05468 -1.59152,24.55463 -1.14625,22.00581 -1.26344,22.61297 -5.49094,28.44822 -4.15188,5.73086 -6.72243,7.56589 -8.81279,6.29117 z"
         id="path83"
         transform="scale(0.75)" />
      <path
         style="fill:#facb95;fill-opacity:1;fill-rule:evenodd;stroke-width:0;stroke-linecap:round;stroke-linejoin:round;stroke-opacity:0.540421;paint-order:markers stroke fill"
         d="m 453.93859,734.98438 c -1.69965,-0.36036 -2.67222,-2.25993 -2.15,-4.19928 0.37522,-1.39349 1.75537,-3.30874 4.46797,-6.2003 3.84673,-4.10051 6.08534,-7.73269 8.39228,-13.61666 1.26118,-3.21669 1.6825,-4.07306 2.45636,-4.99273 0.73618,-0.87491 1.11254,-0.88231 1.553,-0.0306 0.85119,1.64601 1.05359,4.57132 1.16757,16.87454 l 0.10979,11.85124 -2.59404,0.14816 c -4.56032,0.26046 -12.49322,0.35847 -13.40293,0.16559 z"
         id="path84"
         transform="scale(0.75)" />
      <path
         style="fill:#d4ece4;fill-opacity:1;fill-rule:evenodd;stroke-width:0;stroke-linecap:round;stroke-linejoin:round;stroke-opacity:0.540421;paint-order:markers stroke fill"
         d="m 430.65799,708.28945 c -1.51069,-1.59605 -3.19672,-3.77955 -3.74674,-4.85222 -2.51633,-4.90745 -0.0737,-14.14369 4.74233,-17.93197 6.23112,-4.90141 12.00458,-4.72033 17.65876,0.55383 2.9072,2.7118 3.6484,4.08691 4.03059,7.47771 0.62584,5.55245 -0.11817,8.06361 -3.54571,11.96737 -3.45544,3.93552 -7.31193,5.68719 -12.52098,5.68719 -3.20921,0 -4.34145,-0.49645 -6.61825,-2.90191 z m 18.81943,-6.54652 c 0.69842,-1.82007 0.69842,-6.96283 0,-8.7829 -1.06804,-2.78326 -1.69296,-1.30123 -1.85522,4.39976 -0.15662,5.50284 0.67321,7.4634 1.85522,4.38314 z"
         id="path85"
         transform="scale(0.75)" />
      <path
         style="fill:#d4ece4;fill-opacity:1;fill-rule:evenodd;stroke-width:0;stroke-linecap:round;stroke-linejoin:round;stroke-opacity:0.540421;paint-order:markers stroke fill"
         d="m 454.8815,766.58758 c -1.00903,-0.40865 -3.1185,-2.20528 -4.6877,-3.9925 -2.46879,-2.8118 -2.85309,-3.91065 -2.85309,-8.15803 0,-6.21009 1.55369,-9.92869 5.65173,-13.52682 5.59307,-4.91078 11.59399,-4.9829 17.03603,-0.20472 7.17359,6.29849 5.2487,19.73585 -3.54026,24.71408 -3.58648,2.03144 -8.30282,2.50605 -11.60671,1.16799 z m 12.70827,-7.84952 c 0.30213,-0.85942 1.56608,-2.66334 2.8088,-4.00872 1.24271,-1.34538 1.9467,-2.75169 1.56442,-3.12514 -0.38229,-0.37344 -1.3575,0.2687 -2.16715,1.42698 -0.80965,1.15828 -2.37614,3.01247 -3.4811,4.12042 -2.35858,2.36496 -2.51834,3.14902 -0.64165,3.14902 0.75205,0 1.61456,-0.70315 1.91668,-1.56256 z m 2.96622,-12.22462 c 0,-1.34039 -1.60304,-2.76532 -2.31266,-2.0557 -0.62277,0.62277 0.61018,3.34234 1.5153,3.34234 0.43855,0 0.79736,-0.57899 0.79736,-1.28664 z"
         id="path86"
         transform="scale(0.75)" />
      <path
         style="fill:#fbd13a;fill-opacity:1;fill-rule:evenodd;stroke-width:0;stroke-linecap:round;stroke-linejoin:round;stroke-opacity:0.540421;paint-order:markers stroke fill"
         d="m 371.09951,231.91216 c -0.77148,-2.21306 -0.94776,-19.60655 -0.25717,-25.37441 0.5585,-4.66469 1.56348,-8.01833 3.64455,-12.16198 0.97009,-1.93158 1.47645,-2.67528 1.82149,-2.67528 0.30947,0 0.33717,0.0641 0.68229,1.57843 0.1286,0.56429 0.71153,2.48209 1.2954,4.26177 1.0478,3.19377 1.06162,3.25832 1.06437,4.97206 0.003,2.00747 -0.0715,2.41206 -1.32593,7.18186 -1.19744,4.553 -2.09661,8.74617 -2.68732,12.532 -0.62231,3.9884 -1.25977,6.42294 -2.14461,8.19058 -0.4304,0.8598 -1.40873,2.00683 -1.71168,2.00683 -0.11163,0 -0.28325,-0.23034 -0.38139,-0.51186 z"
         id="path87"
         transform="scale(0.75)" />
      <path
         style="fill:#ffffff;fill-opacity:1;fill-rule:evenodd;stroke-width:0;stroke-linecap:round;stroke-linejoin:round;stroke-opacity:0.540421;paint-order:markers stroke fill"
         d="m 389.69634,248.64165 c -1.08603,-0.74004 -3.15344,-3.07717 -4.06261,-4.5926 -1.24873,-2.08146 -1.72948,-4.16356 -1.23474,-5.34764 0.35153,-0.84132 1.06214,-1.22509 2.26981,-1.22582 1.96301,-0.001 2.36753,0.5266 2.58274,3.36967 0.17487,2.31032 0.69686,4.50343 1.48994,6.25992 0.59402,1.31563 0.67138,2.08881 0.21761,2.17476 -0.14032,0.0266 -0.70856,-0.26066 -1.26275,-0.63829 z"
         id="path88"
         transform="scale(0.75)" />
      <path
         style="fill:#ffffff;fill-opacity:1;fill-rule:evenodd;stroke-width:0;stroke-linecap:round;stroke-linejoin:round;stroke-opacity:0.540421;paint-order:markers stroke fill"
         d="m 436.83088,239.66138 c -2.08751,-1.13515 -3.39362,-3.44298 -3.39362,-5.99631 0,-1.33673 0.30057,-2.13869 0.85361,-2.27749 0.83314,-0.2091 2.93573,1.22589 2.93358,2.00214 -10e-4,0.49639 -0.4238,1.11596 -1.23329,1.80885 -0.36288,0.31062 -0.65979,0.70481 -0.65979,0.87598 0,0.55376 0.44562,1.19459 1.37454,1.9767 1.59663,1.34429 1.83714,1.79486 0.95365,1.7866 -0.28214,-0.003 -0.65505,-0.0821 -0.82868,-0.17647 z"
         id="path89"
         transform="scale(0.75)" />
      <path
         style="fill:#ffffff;fill-opacity:1;fill-rule:evenodd;stroke-width:0;stroke-linecap:round;stroke-linejoin:round;stroke-opacity:0.540421;paint-order:markers stroke fill"
         d="m 441.19953,237.23657 c -0.50251,-1.1029 -0.59511,-5.18251 -0.16364,-7.20935 0.56832,-2.66964 1.71806,0.53751 1.50998,4.212 -0.14376,2.53859 -0.84453,4.09871 -1.34634,2.99735 z"
         id="path90"
         transform="scale(0.75)" />
      <path
         style="fill:#ffffff;fill-opacity:1;fill-rule:evenodd;stroke-width:0;stroke-linecap:round;stroke-linejoin:round;stroke-opacity:0.540421;paint-order:markers stroke fill"
         d="m 394.32708,247.47091 c -0.95643,-0.33842 -2.16127,-1.57429 -2.73962,-2.81018 -0.56712,-1.21191 -0.7809,-3.18888 -0.41826,-3.86791 0.46821,-0.87672 1.31868,-0.8891 2.2348,-0.0325 1.08216,1.0118 1.05901,2.11384 -0.0646,3.0756 -1.47532,1.26282 -0.87105,2.41896 1.3578,2.59787 0.80068,0.0643 1.27256,-0.005 2.36569,-0.34545 0.75103,-0.23416 1.39332,-0.39793 1.42731,-0.36394 0.034,0.034 -0.26119,0.39892 -0.65598,0.81094 -1.13486,1.18441 -2.08651,1.43828 -3.50716,0.9356 z"
         id="path91"
         transform="scale(0.75)" />
      <path
         style="fill:#ffffff;fill-opacity:1;fill-rule:evenodd;stroke-width:0;stroke-linecap:round;stroke-linejoin:round;stroke-opacity:0.540421;paint-order:markers stroke fill"
         d="m 394.21324,247.27933 c -1.56747,-0.7217 -2.90218,-2.80891 -3.04152,-4.75628 -0.096,-1.34193 0.019,-1.8168 0.51946,-2.14472 0.50561,-0.33128 1.13548,-0.098 1.81021,0.67049 0.87158,0.99268 0.82397,1.54732 -0.23521,2.73991 -0.37532,0.42258 -0.73008,0.91857 -0.78836,1.10219 -0.14513,0.45726 0.2935,1.08183 0.95341,1.35756 0.76552,0.31985 2.49375,0.27686 3.7021,-0.0921 0.56429,-0.1723 1.05816,-0.31381 1.09748,-0.31448 0.17329,-0.003 -1.21872,1.30978 -1.60263,1.51132 -0.58576,0.3075 -1.65785,0.2747 -2.41494,-0.0739 z"
         id="path92"
         transform="scale(0.75)" />
      <path
         style="fill:#a32832;fill-opacity:1;fill-rule:evenodd;stroke-width:0;stroke-linecap:round;stroke-linejoin:round;stroke-opacity:0.540421;paint-order:markers stroke fill"
         d="m 413.78514,280.68881 c -1.69464,-0.63422 -2.95015,-1.67247 -6.85181,-5.6662 l -3.45099,-3.53241 5.42795,-0.22581 c 11.65913,-0.48504 20.21358,-1.92529 21.6053,-3.63754 0.89288,-1.09852 0.91038,-0.64423 0.0976,2.53383 -0.79272,3.09948 -2.46135,6.69569 -3.83017,8.2547 -1.72154,1.96076 -3.27056,2.47354 -7.8673,2.60439 -2.85178,0.0812 -4.27455,-0.0106 -5.13055,-0.33096 z"
         id="path93"
         transform="scale(0.75)" />
      <path
         style="fill:#fbd13a;fill-opacity:1;fill-rule:evenodd;stroke-width:0;stroke-linecap:round;stroke-linejoin:round;stroke-opacity:0.540421;paint-order:markers stroke fill"
         d="m 476.0549,148.28546 c 0,-0.30834 0.62602,-1.56656 1.39115,-2.79605 2.59762,-4.17409 3.581,-6.53741 4.42948,-10.64515 1.64002,-7.93985 1.14375,-16.29533 -1.28994,-21.71832 -0.76416,-1.70278 -2.13598,-3.39941 -2.47472,-3.06067 -0.086,0.086 0.44619,1.85044 1.18258,3.92102 l 1.3389,3.76469 -0.0202,6.15588 c -0.0186,5.67157 -0.0875,6.40425 -0.87599,9.31275 -0.98194,3.62215 -3.7727,9.51534 -5.4142,11.43307 -2.23261,2.6083 -3.65367,2.48305 -10.90214,-0.96091 -7.5957,-3.60893 -12.96023,-5.35425 -20.19631,-6.57073 -5.43621,-0.9139 -12.57571,-0.91105 -17.99412,0.007 -4.09383,0.69376 -8.06461,0.8876 -7.74985,0.37831 0.0987,-0.15979 2.13148,-0.93492 4.51716,-1.72249 15.06898,-4.97468 23.03127,-4.93529 35.88946,0.17752 3.24981,1.29223 6.17264,1.89041 6.17264,1.26327 0,-0.49799 -2.25736,-1.97325 -5.52451,-3.61043 -5.46136,-2.73673 -7.87343,-3.25686 -17.97574,-3.87622 -7.36638,-0.45162 -11.94203,-0.91644 -12.5165,-1.27148 -0.54589,-0.33738 -1.82112,-2.8581 -2.67051,-5.27874 -0.47383,-1.35035 -0.92794,-2.38876 -1.00913,-2.30757 -0.0812,0.0812 0.0288,2.10941 0.24437,4.50715 0.34512,3.83829 0.33277,4.49973 -0.10327,5.53212 -0.59017,1.39731 -1.78774,1.85571 -3.02854,1.15927 -1.6707,-0.93774 -2.76335,-2.94094 -4.44754,-8.15386 -0.90076,-2.78805 -1.75122,-5.06918 -1.8899,-5.06918 -0.88851,0 -0.22009,4.83061 1.3647,9.86251 0.63288,2.00947 1.15069,4.13836 1.15069,4.73087 0,1.28293 -1.53869,3.25559 -3.26422,4.18485 -0.96234,0.51825 -1.22948,0.54567 -1.88717,0.19369 -2.89123,-1.54735 -4.96871,-12.70862 -3.55131,-19.07953 1.02001,-4.58474 3.35469,-8.05406 6.84806,-10.17617 1.04762,-0.6364 1.78694,-1.27325 1.64294,-1.41524 -0.14401,-0.142 -2.7719,-0.30243 -5.83977,-0.35653 -3.06787,-0.0541 -5.68558,-0.20638 -5.81715,-0.3384 -0.80947,-0.81223 11.50386,-6.861044 15.33138,-7.531397 0.96033,-0.168194 2.132,-0.457016 2.6037,-0.641827 0.97282,-0.381144 1.41609,-1.356801 0.89934,-1.979452 -0.55709,-0.671256 -3.64831,-1.397017 -8.2192,-1.929718 -2.33808,-0.272485 -4.28638,-0.530758 -4.32957,-0.573941 -0.22991,-0.229913 6.01471,-3.114534 7.61335,-3.516883 4.94208,-1.243837 11.04119,-0.888397 16.48635,0.960782 1.76327,0.598808 3.64555,1.088741 4.18284,1.088741 0.85554,0 0.97676,-0.107851 0.97572,-0.868137 -0.002,-1.112061 -0.6919,-2.200639 -3.25134,-5.12658 -1.1375,-1.300379 -2.032,-2.400498 -1.98779,-2.444709 0.1617,-0.161699 7.98326,0.901849 9.97561,1.356447 6.93351,1.582038 12.46149,4.549376 16.22704,8.710439 2.32865,2.573239 5.1069,8.117775 6.51515,13.002235 0.58356,2.02406 1.19549,3.68011 1.35983,3.68011 0.39745,0 -0.002,-6.08154 -0.57833,-8.79888 -0.64881,-3.060542 -1.27162,-4.623184 -2.68797,-6.744193 -1.41682,-2.121707 -1.47055,-2.303918 -0.75977,-2.57667 1.56927,-0.602187 7.38736,4.26215 9.06403,7.578173 1.00358,1.98484 2.32791,3.59647 2.95532,3.59647 0.62458,0 0.33793,-1.36054 -0.8758,-4.156833 -1.02576,-2.363233 -1.10007,-2.788264 -0.48746,-2.788264 1.45179,0 6.56519,5.349497 9.5025,9.941247 3.60195,5.63076 5.3086,11.26168 5.31109,17.52346 0.003,7.70126 -3.06557,14.5101 -9.0623,20.10791 -2.64803,2.47188 -5.40628,4.51562 -6.09432,4.51562 -0.21935,0 -0.39882,-0.25228 -0.39882,-0.56062 z m -21.63865,-28.67862 c 0.28106,-0.10785 0.7225,-0.60506 0.98099,-1.1049 0.81484,-1.57574 -0.1339,-2.81526 -4.20641,-5.49565 -1.26088,-0.82987 -2.36334,-1.43803 -2.4499,-1.35147 -0.0866,0.0866 0.66481,1.06744 1.66972,2.17972 4.06599,4.50043 4.41913,5.21649 1.90225,3.85722 -2.47838,-1.33847 -7.16852,-6.14004 -8.39423,-8.59365 -1.5621,-3.12701 -1.22541,-5.72531 0.88319,-6.81571 3.41136,-1.76408 8.64961,-0.14486 14.36996,4.44197 1.38565,1.11107 2.6259,2.02225 2.75612,2.02484 1.0637,0.0212 -2.43741,-3.72984 -5.18833,-5.55865 -3.31865,-2.20622 -5.83067,-3.0599 -9.09647,-3.09129 -3.13325,-0.0301 -4.27819,0.43898 -5.51546,2.25979 -0.63945,0.94103 -0.79827,1.55999 -0.79827,3.11102 0,3.07611 1.54107,5.8094 5.50662,9.7667 3.7879,3.78001 5.91788,5.00796 7.58022,4.37006 z"
         id="path94"
         transform="scale(0.75)" />
    </g>
  </g>
</svg>
