<?xml version="1.0" encoding="UTF-8" standalone="no"?>
<svg
        xmlns:inkscape="http://www.inkscape.org/namespaces/inkscape"
        xmlns:sodipodi="http://sodipodi.sourceforge.net/DTD/sodipodi-0.dtd"
        version="1.0"
        viewBox="0 0 256 256"
        id="svg26"
        sodipodi:docname="fée(1).svg"
        width="256"
        height="256"
        inkscape:version="1.3 (0e150ed6c4, 2023-07-21)"
        xmlns="http://www.w3.org/2000/svg"
>
    <defs
            id="defs26"/>
    <sodipodi:namedview
            id="namedview26"
            pagecolor="#505050"
            bordercolor="#eeeeee"
            borderopacity="1"
            inkscape:showpageshadow="0"
            inkscape:pageopacity="0"
            inkscape:pagecheckerboard="0"
            inkscape:deskcolor="#d1d1d1"
            inkscape:zoom="2.5"
            inkscape:cx="219.2"
            inkscape:cy="130.6"
            inkscape:window-width="1920"
            inkscape:window-height="1011"
            inkscape:window-x="0"
            inkscape:window-y="0"
            inkscape:window-maximized="1"
            inkscape:current-layer="svg26"/>
    <g
            fill="#ffffff"
            id="g26"
            transform="matrix(0.4729473,0,0,0.4729473,-27.717899,-23.837356)">
        <g
                fill="#000000"
                id="g3">
            <path
                    d="m 481.2,59.4 c -10,5.4 -16.6,10.9 -33.3,27.5 -20.2,20.2 -33.7,36.7 -59,72.1 -17.2,24.1 -26.4,38.8 -35.1,56.4 l -2.5,4.9 -2.2,-2.4 c -6.1,-6.4 -7.2,-13.2 -3.8,-21.6 1.4,-3.4 2.8,-7.5 3.2,-9 0.4,-1.8 1.7,-3.3 3.8,-4.3 2.4,-1.1 4.4,-3.7 8,-10 7.6,-13.7 9.1,-18.2 9.1,-28.5 0.1,-10.6 -1.7,-15.1 -9.6,-23.9 l -4.9,-5.5 4.4,-1.9 c 13.5,-6 15.6,-28.8 3.7,-39.6 -2.2,-2 -4.7,-3.6 -5.6,-3.6 -0.8,0 -2.7,-0.6 -4.2,-1.4 -1.5,-0.8 -4.2,-1.6 -6,-1.9 -1.8,-0.3 -3.9,-1 -4.6,-1.6 C 340.7,63.5 330.1,61 325.5,61 l -4,0.1 3,2.4 2.9,2.4 -5.5,-0.6 c -4.2,-0.4 -6.4,-0.1 -9,1.2 -6.9,3.5 -9.3,7.2 -3.9,6.1 3.9,-0.7 3.9,0.8 -0.1,2.4 -2.7,1.2 -7.9,6.6 -7.9,8.4 0,0.4 0.9,0.2 1.9,-0.4 3.2,-1.7 4.6,-1.2 2.6,1 -2.5,2.7 -1.8,15.9 0.9,18.9 1.2,1.3 1.6,2.5 1,3 -0.5,0.5 -8,3.1 -16.8,5.7 -14.3,4.3 -15.9,4.6 -16.8,3.1 C 271.2,110 253.3,89.2 243.6,79.4 232.7,68.6 221.6,60 218.6,60 c -2,0 -2.1,-0.3 1.3,6.6 4.9,9.8 10.7,33.6 19.6,80.8 1.9,10.2 5.6,25.2 8.1,33.3 8.2,26.5 16.6,39.6 31.7,49.8 1.3,0.9 1.1,3.2 -1.4,18.5 -3.3,19.3 -4.7,23.3 -12.7,34.2 -5.3,7.2 -9.9,16.1 -16.9,32.8 -4.4,10.3 -8.4,17 -10.4,17 -0.6,0 -2.7,-1.3 -4.7,-3 -4,-3.2 -14,-7 -18.1,-6.9 -1.4,0 0.6,0.9 4.6,1.9 7.1,1.9 11.8,3.8 11.1,4.5 -0.4,0.4 -6,-0.7 -13.1,-2.6 -3.9,-1 -10.7,-0.3 -10.7,1.2 0,0.5 1.2,0.4 2.7,-0.2 3,-1.1 7.9,-0.3 8.6,1.4 0.3,0.9 -1.7,1.2 -7,1.3 -4.7,0 -6.9,-0.2 -6.1,-0.8 1,-0.7 1,-0.9 -0.2,-0.5 -0.8,0.2 -1.5,1 -1.5,1.8 0,0.8 0.7,1.2 1.5,1 7.1,-1.7 18.2,0 24,3.7 2.3,1.4 2.4,1.4 1.1,-0.1 -0.7,-1 -3.4,-2.7 -6,-3.8 -2.5,-1.2 -4.1,-2.3 -3.4,-2.6 1.5,-0.5 12.1,2.5 12.8,3.8 0.4,0.5 1.9,0.9 3.4,0.9 3.4,0 7,-4.2 10.5,-12.3 7.3,-16.3 15,-31.2 20.1,-38.6 3.1,-4.6 6.4,-9.9 7.1,-11.8 0.8,-1.9 3.3,-12.1 5.5,-22.6 5.4,-26.2 6.6,-30 10.5,-34.6 5,-5.8 6.3,-5.9 14.6,-0.9 5.9,3.6 7.5,5.1 9.4,9.3 2.2,4.5 2.4,4.1 0.9,-1.4 -0.5,-1.6 0.2,-2 3.9,-2.5 4.8,-0.7 10.5,-4.4 17.4,-10.9 4.1,-4 4.2,-4 4.2,-1.6 0,7.9 10,19.1 20.3,22.5 11.3,3.8 14.6,9.9 21.2,39.7 3.1,13.7 5.3,19.6 9.9,25.2 7,8.6 13.9,20.1 20.7,34.2 9.8,20.6 14,24.4 20.7,18.9 6.6,-5.6 22.3,-9.2 28.7,-6.7 1.5,0.6 0.6,1 -3.5,1.4 -7.7,0.7 -21.1,4.8 -24.6,7.5 -2.7,2.1 -2.6,2.1 1.9,-0.3 2.7,-1.3 6.5,-2.7 8.5,-3.1 2.1,-0.3 5.4,-1.2 7.6,-2 3.6,-1.4 4.3,-1.3 9.7,0.8 3.3,1.3 5.9,2.7 5.9,3.2 0,0.4 -0.6,0.6 -1.4,0.3 -0.8,-0.3 -3.2,-0.9 -5.3,-1.2 l -3.8,-0.7 4.3,2.8 c 5.9,3.9 5.2,6.3 -0.8,2.9 -3.3,-1.9 -7.1,-1.9 -12,0.1 -5.5,2.2 -4.5,2.8 1.4,0.8 4.5,-1.6 9.6,-1.3 9.6,0.6 0,0.5 -1.5,0.6 -3.2,0.3 -3.8,-0.6 -12.3,2.5 -17.2,6.2 -7.2,5.5 -13.2,5.5 -18.7,-0.1 -1.9,-1.9 -7.7,-7.1 -12.9,-11.6 -16.6,-14.5 -23.2,-21.1 -27.5,-27.8 -5.2,-7.9 -6.7,-11.3 -9,-21 -2,-8.5 -8.9,-24.9 -13.8,-32.8 -2.1,-3.6 -4.7,-6.1 -7.7,-7.8 l -4.5,-2.6 2.8,2.6 2.9,2.6 -5.4,7 -5.3,7 -0.8,-7.1 c -1,-9.1 -3.8,-16.6 -8.8,-23.1 -5.8,-7.7 -7,-8.2 -16.9,-5.7 -4.5,1.2 -8.6,1.7 -9,1.2 -0.4,-0.4 -1.5,-3.5 -2.3,-6.7 -1.4,-5.8 -1.4,-6 0.7,-7.8 1.1,-1.1 -0.6,-0.5 -3.9,1.3 -13.2,7 -18.2,16.1 -15.1,27.9 0.8,3 1.7,7.7 2.1,10.5 0.3,2.7 1.1,8.2 1.7,12.1 l 1,7.1 -4.6,10.5 c -5.3,11.9 -9.1,16.8 -19,25.3 -3.9,3.3 -10.2,9.5 -14.1,13.8 -3.8,4.4 -8.3,8.7 -10,9.8 -2.1,1.3 -2.5,1.9 -1.3,1.9 2.1,0 35.4,-31.3 39.1,-36.8 1.4,-2 4.3,-7.6 6.3,-12.5 2,-4.8 4,-8.7 4.4,-8.7 1.5,0 2.9,8.2 1.9,10.8 -1.2,3.1 -12,21.2 -20.7,34.6 -11.9,18.3 -13.3,21.6 -13,28.8 l 0.3,6.3 4.1,-5.8 4.1,-5.8 0.6,7.3 c 0.9,9.7 2.3,14.5 4.6,15.1 1.4,0.3 1.9,1.8 2.5,6.9 0.3,3.6 1.8,10.9 3.3,16.4 1.6,5.8 2.6,11.9 2.5,14.8 -0.4,7.3 2.2,14.7 8.5,23.8 5.5,8.2 7.2,11.7 13.3,27.3 1.7,4.4 7.1,15.8 12.1,25.3 l 8.9,17.4 -2,2.5 c -2.9,3.7 -4.2,9.3 -3,13.2 1.2,4.2 2.8,6.1 6.4,7.6 2.8,1.2 3,1.6 2.7,6.3 -0.1,2.8 0.3,6 0.9,7.1 1.1,2.2 4.5,2.7 7,1.1 1.1,-0.7 1.8,-0.3 2.6,1.2 1,1.8 0.8,2.8 -1.2,5.8 -3.2,4.7 -3.8,8.7 -2.2,13.5 1.4,4.3 6.5,8.5 10.3,8.5 1.6,0 2.6,1 3.8,4 2,5.1 5,5.3 9.5,0.7 6.3,-6.5 8.3,-15.2 9.6,-43 l 0.6,-10.8 -3.1,-2.9 c -1.8,-1.5 -5.1,-3.6 -7.5,-4.5 l -4.3,-1.6 3.5,-8.2 c 1.9,-4.5 3.4,-9.8 3.4,-11.9 0,-3.3 -0.5,-4.2 -4.2,-6.8 -2.2,-1.7 -5.4,-3 -6.9,-3 -2.6,0 -3.2,-0.7 -5.9,-6.7 -1.7,-3.8 -4,-10.6 -5.1,-15.3 -5.3,-22.9 -9.6,-33.5 -17.5,-43.1 -2.4,-3 -4.4,-6.1 -4.4,-7 0,-2.4 7,-11.4 20.2,-25.9 6.2,-6.9 12.3,-13.8 13.5,-15.3 1.8,-2.4 2.5,-2.7 4.2,-1.8 3,1.6 3.3,1.4 2.6,-1.9 -0.5,-2.1 -0.2,-3.9 1,-5.6 1.5,-2.3 1.8,-2.4 3.3,-1.1 2.6,2.2 10.7,6.7 12.1,6.7 1,0 1.2,-2.5 0.9,-10.9 -0.4,-11.7 0,-12.3 4.6,-7.2 1.1,1.2 2.3,2.1 2.7,2.1 1.9,0 -2.8,-17.6 -7.5,-28.2 -3.8,-8.5 -13.6,-20.8 -20.7,-25.9 -16.1,-11.5 -15.8,-11.1 -14.4,-20.6 0.6,-4 5.4,-11.3 7.4,-11.3 0.4,0 1.5,1.7 2.4,3.8 2.4,5.4 12,15.8 16.5,17.7 3.4,1.5 3.8,2.2 5.4,8.6 2.3,8.8 6.8,18.1 12.3,25.2 2.4,3 11.1,11.1 19.2,18 8.1,6.8 15.9,13.7 17.3,15.2 7.2,7.8 12.6,7.5 26.9,-1.5 3.8,-2.5 6.6,-3.5 10,-3.6 2.5,-0.1 4.8,-0.3 5.1,-0.4 0.3,-0.1 1.5,-0.1 2.7,0 4.1,0.3 4.8,-1.2 1.7,-3.6 l -2.9,-2.4 3.9,0.7 c 5.3,0.8 4.5,-1.5 -1.4,-4.4 -4,-1.9 -4.2,-2.1 -2,-2.5 3.1,-0.4 2.9,-2.1 -0.2,-3 -8,-2.2 -21.4,0.7 -29.4,6.4 -3.4,2.4 -4.6,2.8 -6.2,1.9 -2.7,-1.4 -7.3,-9 -11.8,-19.1 -3.5,-8.1 -8.7,-17.6 -15.6,-28.3 l -3.1,-4.8 2.1,-1.5 c 9.2,-6.4 0.3,-34.1 -13.2,-41.1 l -3,-1.6 6,-2.1 c 8.8,-3.2 18,-9.2 25.5,-16.6 5.2,-5.1 7.8,-8.7 11.8,-16.7 6.1,-12.3 13,-31.9 17.6,-50.3 10.5,-41.7 21.4,-72.2 30.6,-85.7 1.8,-2.6 6.6,-8.3 10.6,-12.6 4,-4.3 7.3,-8.4 7.3,-9.2 0,-2.4 -4.1,-1.7 -10.8,1.9 z m 3.4,1.9 c -9.4,7.1 -29.9,26.3 -41.5,38.8 -35.2,37.8 -64.5,77.9 -81.2,111.1 -2.7,5.4 -4.9,10.1 -4.9,10.5 0.1,0.5 1,-1 2.2,-3.2 3.4,-6.6 8.7,-12.4 14.1,-15.5 2.9,-1.7 4.8,-3 4.4,-3 -1.2,0 -7,3.1 -9,4.8 -5.2,4.6 -0.6,-4.8 4.9,-10 1.6,-1.5 4.9,-3.6 7.4,-4.7 2.5,-1.1 3.8,-2.1 3,-2.1 -0.8,0 -3.5,1.1 -5.9,2.5 -2.3,1.4 -4.5,2.5 -4.7,2.5 -0.6,0 14.1,-22.6 20.9,-32 13,-18.1 35.4,-45.7 36.3,-44.7 0.2,0.1 -0.3,2.1 -1.1,4.2 -0.8,2.2 -1.4,5.1 -1.4,6.5 0,1.7 0.5,1 1.3,-2 3.6,-12.8 3.5,-12.6 18.7,-28.4 13.3,-13.8 32,-30.9 35.9,-33.1 0.8,-0.4 -3.5,4.3 -9.7,10.6 -12.1,12.3 -14.4,15 -23.5,27.8 -5.6,7.9 -13.1,21.8 -15.6,29 -0.9,2.5 -1.6,3.1 -4.1,3.1 -2.3,0 -3.1,-0.5 -3.4,-2.3 -0.4,-1.9 -0.4,-1.9 -0.6,0.5 -0.1,2 -1.2,3.2 -4.5,5.2 -2.4,1.4 -7.3,5.8 -11,9.7 -7.6,8.3 -16.2,24.6 -21.6,41.4 -5.9,18.2 -13.8,30.9 -23.1,37.6 -2.6,1.9 -2.9,1.9 -6.3,0.2 -2,-0.9 -3.6,-2 -3.6,-2.5 0,-0.4 -0.6,-0.8 -1.3,-0.8 -2.8,0 -3.7,-2.2 -2,-5.4 5.9,-11.7 24.9,-41 39.5,-61.2 34.5,-47.5 62.6,-77.9 86.8,-93.8 5.9,-3.9 9.3,-4.8 4.6,-1.3 z m -258.3,4.4 c 10.7,8.3 22.8,21.4 42.9,46.4 l 3.8,4.7 -2.4,1.6 c -2.4,1.5 -2.5,1.5 -5.4,-4.7 -7.1,-15 -28,-38.8 -42.8,-48.9 -3.1,-2.1 -4.3,-3.8 -2.8,-3.8 0.3,0 3.3,2.1 6.7,4.7 z m 114.5,0.2 c 6.3,3.2 9.1,7.2 11.6,16.6 0.3,1.1 0.3,-0.4 0.1,-3.4 -0.3,-3.1 -1.2,-6.2 -2.1,-7.2 -1,-1.1 -1.4,-2.2 -1.1,-2.5 1.1,-1.1 5.6,2.5 7.3,5.7 0.8,1.7 1.8,2.9 2.1,2.6 0.2,-0.3 -0.1,-1.5 -0.7,-2.7 -2,-3.7 -0.2,-3.5 3.5,0.6 9.7,10.6 9.9,24.3 0.4,32.9 -5.2,4.7 -6.6,4.4 -3.2,-0.6 4.1,-6.2 4.5,-19.6 0.8,-24.5 -1.2,-1.5 -1.2,-1.2 0.1,2.1 2.1,5 1.4,13.6 -1.4,19.1 -3.3,6.6 -3.9,6.7 -11.7,2.8 -8.8,-4.3 -19,-6 -27.1,-4.5 -5.3,1 -8.5,0.8 -5.3,-0.4 12.2,-4.4 19.4,-4.7 28.2,-1.1 6.9,2.9 7.6,1.9 1,-1.4 -3.7,-1.8 -6.7,-2.4 -13.1,-2.6 -4.5,-0.2 -8.7,-0.6 -9.2,-0.9 -0.5,-0.3 -1.4,-2 -2,-3.8 -0.9,-2.9 -0.9,-2.8 -0.4,1.4 0.4,3.5 0.1,4.8 -1,5.2 -2,0.8 -3.7,-1.5 -5.2,-7.1 -0.8,-2.9 -1.3,-3.8 -1.3,-2.2 0,1.4 0.6,4.3 1.4,6.5 1.3,3.7 1.3,4.2 -0.4,5.9 -2.5,2.4 -3.8,1.5 -5.2,-3.7 -2.1,-7.9 0.3,-15.5 5.6,-17.8 1.4,-0.6 0.5,-0.8 -3.3,-0.6 -2.8,0.1 -5.2,-0.1 -5.2,-0.5 0,-0.9 10.1,-5.8 12.1,-5.8 1,0 2.1,-0.4 2.4,-1 0.6,-1 -1.8,-1.7 -7,-2.2 l -3,-0.3 3.2,-1.8 c 3.9,-2.1 11.1,-2.2 15.8,-0.3 4.2,1.8 4.6,0.5 1.3,-3.2 l -2.3,-2.5 5.2,0.6 c 2.8,0.3 6.9,1.5 9.1,2.6 z m -109.4,7.4 c 3.3,2.8 9.5,9.2 13.8,14.2 6.8,7.8 8.2,10 10.2,16.5 1.9,6.1 3.9,16 3.2,16 0,0 -1.5,0.4 -3.3,0.9 l -3.1,0.9 -3.2,-9.1 c -1.7,-5 -5,-12.7 -7.2,-17.1 C 237.3,86.7 228,72.1 225.5,70 c -0.9,-0.8 0.9,2.4 4,7.1 8.7,12.9 22.6,43.4 20.9,46 -0.7,1.1 -3.4,1.2 -3.4,0.1 0,-0.5 -3.1,-4.3 -6.8,-8.4 l -6.9,-7.5 -2.3,-10.9 c -1.2,-6 -3.5,-14.5 -5.1,-18.9 -4,-11.4 -3.2,-11.9 5.5,-4.2 z m 238.2,9.4 c -2.4,3.7 -5.2,10.2 -13,30.4 -3,7.7 -4.7,10.5 -8.5,14.2 -2.6,2.5 -5.6,6.2 -6.6,8.1 -1.1,2 -2.2,3.6 -2.5,3.6 -0.3,0 -1.3,-1.2 -2.3,-2.6 -1.8,-2.4 -1.8,-2.6 1.4,-9.7 6,-13.2 14,-25.4 27.5,-41.9 6.1,-7.3 8.2,-8.5 4,-2.1 z M 264,113.8 c 3.3,6.8 3.1,8.4 -1.1,7.5 -2.4,-0.4 -2.8,-1.2 -4.2,-8.1 -0.8,-4.3 -1.8,-8.6 -2.2,-9.7 -1.3,-4 4.3,3.8 7.5,10.3 z m 67.4,-8.8 c 3.2,0.5 6,1.1 6.3,1.3 0.2,0.2 -0.1,1.6 -0.7,3.1 -0.5,1.5 -0.6,4.2 -0.2,6.4 l 0.8,3.7 0.8,-5.8 c 1.1,-8.4 2.9,-7.5 8.7,4.5 2.7,5.7 4.7,9.2 4.4,7.8 -0.9,-3.7 -4.7,-13.3 -5.8,-14.8 -0.5,-0.7 -0.8,-1.5 -0.5,-1.7 0.9,-1 16.6,15.1 19.3,19.9 5.3,9.1 4.2,24.8 -2.5,35.8 l -2,3.3 V 165 c 0,-1.9 0.4,-5.1 1,-6.9 0.5,-1.9 0.8,-3.6 0.7,-3.8 -0.2,-0.1 -2.2,1.3 -4.5,3.3 l -4.2,3.6 v -3.7 c 0,-3.6 -5.4,-21.1 -7.1,-22.9 -0.4,-0.5 0.5,3.3 2.2,8.5 1.6,5.3 3,11.9 3.1,15 0.1,5.6 -2.8,15.9 -4.4,15.9 -0.4,0 -0.8,-2 -0.8,-4.5 0,-2.8 -1.3,-7.8 -3.2,-12.8 -2.6,-6.6 -3.3,-10.1 -3.8,-18.2 l -0.5,-10 -0.8,6.6 c -0.8,6.9 1.4,18.3 4.7,24.8 3.1,5.8 1.5,5.3 -2.4,-0.8 -8.7,-13.4 -9.4,-15.3 -8.7,-24.4 l 0.6,-8.2 -2.3,6.8 c -2.2,6.6 -6.6,12.5 -11.1,14.9 -1.9,1.1 -1.9,1 -0.2,-1.3 2.6,-3.6 7.7,-13.7 7.7,-15.1 0,-0.7 -1.3,1.4 -2.9,4.8 -2.6,5.4 -14.7,20.1 -15.8,19 -0.2,-0.2 1.1,-2.8 3,-5.7 8,-12.6 7.3,-13.5 -0.9,-1.2 -3.2,4.8 -6.4,10.9 -7.1,13.7 -1.3,5.2 -2.3,7 -2.3,4.3 0,-0.8 -1.4,-5 -3.1,-9.3 -2.6,-6.5 -3,-8.8 -2.7,-14.1 0.2,-3.4 0,-5.7 -0.4,-5 -1.3,2 -0.9,12.2 0.7,16.7 0.8,2.4 1.3,4.5 1.1,4.7 -0.9,1 -9.7,-10.5 -10.2,-13.5 -1.5,-8 1.3,-15.5 9,-24 4.2,-4.7 4.5,-5.2 1.6,-2.9 -1.9,1.5 -5.7,4.3 -8.5,6.2 -5.3,3.6 -9.1,7.9 -11.8,13.2 -2.7,5.1 -1.9,5.3 0.9,0.3 2.6,-4.7 9.2,-12 10.7,-12 0.4,0 0.1,1.2 -0.7,2.7 -0.9,1.6 -2.4,5 -3.5,7.8 -1.1,2.7 -3.1,7.9 -4.6,11.4 -2.5,6 -2.7,7.1 -2,15.5 0.4,5 0.5,8.9 0.2,8.6 -1.9,-1.9 -7.6,-11.1 -8.5,-13.9 -2.7,-7.8 -0.7,-19.5 4.8,-27.6 3.5,-5.1 5.4,-6.8 12.1,-10.5 7.2,-4.1 2.4,-2.7 -7.1,2 -8,4 -10.8,6.4 -16.7,14.1 -2,2.7 -3.9,4.7 -4.1,4.4 -1,-0.9 5.2,-12.3 8.6,-15.8 4.9,-5.1 8.1,-6.6 24.2,-11.7 7.4,-2.3 15.2,-5.1 17.3,-6.2 6.9,-3.5 14.5,-4.4 24.1,-2.8 z m -87.9,15.6 c 3.6,5.2 3.7,5.5 2.6,9.8 -3.3,13.1 1.3,33 10.4,45.1 5,6.6 10.7,10.7 14.5,10.3 2.1,-0.3 2.7,-1.1 3.4,-4.6 0.9,-3.8 2.6,-5.9 2.6,-3 0,0.6 0.9,0.3 2,-0.7 1.9,-1.7 2.1,-1.7 4.5,0.8 2.8,2.8 4.5,7.4 4.5,12.5 v 3.3 l -2.7,-1.9 c -4.1,-2.8 -7.7,-3.4 -9.9,-1.6 -1.9,1.5 -1.9,1.5 0.1,0.6 3.7,-1.8 12.5,3 13.9,7.6 0.4,1.2 1.8,3.4 3.1,5 l 2.3,2.7 -4.4,3.8 c -3.6,3.2 -4.7,3.6 -6.3,2.7 -2.5,-1.3 -12.2,-13.2 -14.5,-17.8 -0.9,-1.7 -1.9,-3.2 -2.2,-3.2 -1.6,0 6,11.5 11.7,17.5 5.9,6.2 6.5,7.3 5.6,9.2 -1.4,3.3 -2.8,2.9 -8.5,-2.2 -6.3,-5.7 -10.9,-11.9 -15.6,-21 -1.9,-3.9 -3.5,-6.6 -3.6,-6.1 0,2.2 7.3,15.5 11.5,20.9 2.5,3.2 6.7,7.3 9.4,9.2 4,2.9 4.7,3.9 4.3,6 -0.2,1.4 -1.1,2.5 -2,2.5 -2.8,0 -16.5,-15.1 -20.4,-22.5 -8.2,-15.9 -14.5,-37.6 -21.3,-73.4 -2,-10.7 -4,-20.2 -4.3,-21 -0.9,-2.7 5.4,3.7 9.3,9.5 z m 20.5,1.9 c 0,1.1 -5.2,7.9 -7.5,9.7 -4.3,3.4 -5.8,7.4 -5.2,14.1 1.1,12.4 13.4,30.3 15.5,22.6 0.3,-1.2 0.2,-1.2 -0.7,0.1 -3.1,4.5 -14.1,-15.4 -14.1,-25.5 0,-3.9 1.9,-8.3 4.4,-10.4 2,-1.7 2,-1 -0.3,6.6 -2.2,7.2 -1.5,7.3 5.2,0.8 4.3,-4.2 5.5,-3.2 3.8,3.1 -1.6,6.3 -1.5,12.6 0.2,16.8 1,2.1 1.7,4.3 1.7,4.8 0,0.5 1.6,2.2 3.5,3.9 3.1,2.7 3.5,3.7 3.5,7.8 0,2.6 -0.6,5.6 -1.4,6.6 -1.2,1.7 -1.7,1.7 -4.5,0.5 -1.7,-0.7 -5.2,-3.5 -7.7,-6.3 -14.1,-15.7 -18.9,-46.4 -8.5,-54.4 1.5,-1.1 12.1,-1.9 12.1,-0.8 z m 188,3.8 c 0,0.2 -1.4,4.5 -3,9.7 -1.7,5.2 -4.7,15.7 -6.6,23.4 -6.9,28 -17.3,55.2 -25,65.2 -8.7,11.3 -25.4,22.3 -34.5,22.7 -2.7,0.2 -3.5,-0.2 -3.7,-1.8 -0.2,-1.7 0.6,-2.3 4.4,-3.3 6.8,-1.8 13,-5.8 21.1,-13.6 7,-6.5 14.1,-16.1 17.7,-23.6 0.9,-1.9 1.1,-2.6 0.4,-1.6 -0.7,1.1 -3.4,5.1 -6,9.1 -9.3,14.1 -27.6,28.5 -36.3,28.5 -2.4,0 -3.7,-0.7 -4.9,-2.5 -2.2,-3.3 -2.1,-3.5 2.2,-3.5 7.2,0 21.2,-8.3 27.4,-16.3 2.7,-3.6 2.2,-3.3 -3.4,2.1 -12.2,11.5 -26.3,15.6 -33.3,9.6 -2.1,-1.8 -2.6,-2.7 -1.7,-3.1 0.8,-0.3 4.2,-3 7.5,-6 7.5,-6.7 9.6,-8.1 14.5,-9.9 2,-0.7 2.9,-1.3 1.9,-1.4 -1,0 -3.4,0.7 -5.4,1.5 -1.9,0.8 -3.7,1.5 -3.8,1.5 -0.2,0 1.2,-2.8 3.1,-6.3 1.8,-3.4 4.7,-10.5 6.4,-15.7 7.6,-22.7 15.9,-38 25.3,-46.8 9,-8.2 17.7,-10.4 20.5,-5.2 1.8,3.4 0.9,15.5 -1.8,24.5 -2.6,8.6 -9.7,22.1 -15.3,29.4 -3.9,5 -10.9,11.1 -12.8,11.1 -2,0 -4.9,-4.6 -4.9,-7.6 0,-6.2 4,-20.7 7.6,-27.5 3.7,-7 10.6,-14.4 12.7,-13.6 2.1,0.7 0.9,8.6 -2.3,15.4 -1.7,3.6 -2.9,6.8 -2.7,7 0.5,0.5 6.4,-12.5 7.2,-16 0.4,-1.5 0.4,-3.8 0.1,-5.2 -1,-3.9 -4.3,-3.1 -9.4,2.1 -7.7,8.1 -14.2,24.7 -14.2,36.4 0,6.9 1.9,10 6.2,10 6.2,0 20.3,-17.9 26.6,-34 3.4,-8.6 6.6,-24 5.9,-27.8 -0.3,-1.7 0.2,-3.7 1.6,-5.7 5.2,-7.4 10.7,-13.2 10.7,-11.2 z m -184.8,9.9 c -0.7,0.7 -1.2,0.8 -1.2,0.2 0,-0.6 0.3,-1.4 0.7,-1.7 0.3,-0.4 0.9,-0.5 1.2,-0.2 0.2,0.3 -0.1,1.1 -0.7,1.7 z m 63.4,12.3 c 0.9,2.2 3.4,6.4 5.6,9.3 4.5,6 9.8,15.7 9.8,17.8 0,3.2 1.9,1 4.8,-5.4 1.6,-3.7 4.5,-8.1 6.3,-9.7 l 3.3,-3 -1.8,2.9 c -1,1.6 -1.3,2.5 -0.6,2.1 1.8,-1.1 0.4,9.9 -1.8,14.4 -2,4.2 -4.9,6.2 -6,4.3 -0.5,-0.7 -1.5,1.1 -2.6,5 -1,3.5 -3,8.4 -4.4,11 -3.4,6.5 -12.9,15.3 -19.8,18.5 -5.2,2.4 -5.8,2.4 -9.2,1.1 -5.1,-2 -20.9,-13.4 -22.4,-16.1 -1.1,-1.9 -2.8,-14.7 -2,-14.7 0.1,0 1.5,0.8 2.9,1.7 1.5,1 2.4,1.2 2,0.5 -0.6,-0.8 -0.1,-1.2 1.7,-1.2 1.4,0 2.8,-0.5 3.1,-1 0.4,-0.6 1.1,-0.8 1.6,-0.5 0.5,0.4 0.9,0.1 0.9,-0.4 0,-1.8 -7.8,-9.1 -9.7,-9.2 -1.5,0 -1.5,-0.2 0.2,-0.9 1.5,-0.7 1.6,-0.9 0.4,-0.9 -0.9,-0.1 -3.3,0.6 -5.4,1.4 -2.9,1.3 -4,1.3 -5.1,0.4 -2.1,-1.7 -0.8,-2.5 1.3,-0.8 1.7,1.3 1.7,1.3 0.2,-1 -1.4,-2.3 -1.4,-3.2 0.3,-10.5 1,-4.4 2.1,-8.2 2.4,-8.5 0.8,-0.8 11.2,10.1 12.5,13.1 1.6,3.9 2.5,3.5 3.7,-1.5 1.3,-4.8 5.2,-9.3 13.2,-14.7 3,-2.1 7.1,-5.4 9,-7.5 2.9,-3 3.6,-3.3 3.8,-1.8 0.2,1 1,3.6 1.8,5.8 z m -46.5,0.7 c 0.8,1.9 0.7,4 -0.5,8 -0.8,2.9 -1.8,7.4 -2.1,9.9 -0.3,2.6 -1.2,5.5 -2,6.5 -1.3,1.7 -1.5,1.1 -1.7,-5.6 -0.3,-11.7 0.2,-16.2 2.4,-21 1.6,-3.5 2.2,-4.1 2.5,-2.5 0.2,1.1 0.9,3.2 1.4,4.7 z m 7.9,31.4 c 0,1.4 0.5,3.4 1,4.5 1.6,2.9 -0.5,2.4 -2.9,-0.7 -2.7,-3.4 -2.7,-6.4 -0.1,-6.4 1.5,0 2,0.7 2,2.6 z m 3.6,0.5 c 0.3,0.6 0.1,1.5 -0.6,1.9 -1.7,1.1 0.6,2.4 2.8,1.5 1.4,-0.5 1.5,-0.4 0.4,0.7 -1.7,1.7 -4.6,-0.1 -5,-3.1 -0.4,-2.2 1.2,-2.9 2.4,-1 z M 300,232 c 0.5,0.8 1.3,3.4 2,5.8 0.6,2.4 1.8,4.6 2.7,4.9 0.9,0.4 5.2,-0.3 9.6,-1.5 5.6,-1.5 8.6,-1.8 9.8,-1.1 2.8,1.5 7.7,9.2 10.5,16.6 2.9,7.4 3.3,13.1 2,25.8 -1.1,10.4 0.1,12.8 9.3,18.9 15.7,10.4 29,30.3 32.4,48.4 0.7,3.6 0.6,3.6 -4.7,-0.1 l -2.9,-2.1 0.6,2.5 c 1.3,5.3 1.7,13.5 0.8,16.4 -0.8,2.6 -0.9,2.7 -1,0.7 -0.1,-1.3 -1.7,-5.9 -3.6,-10.3 -1.9,-4.4 -4.6,-12.4 -6,-17.9 -1.5,-5.5 -3.8,-12.7 -5.1,-16.2 -2.4,-5.8 -7.9,-14.8 -9,-14.8 -0.3,0 0.4,1.3 1.6,3 4.1,5.7 6.4,12.2 11.4,31.5 0.7,2.7 3.2,9.1 5.4,14.1 2.3,5.1 4.2,10.1 4.2,11.3 0,2 -0.5,1.8 -6.2,-1.9 -3.5,-2.3 -9.1,-5.5 -12.5,-7.2 -3.4,-1.8 -6.4,-3.9 -6.6,-4.7 -0.3,-0.9 -0.5,0.9 -0.6,4 -0.1,4.4 -0.8,6.7 -3.7,11.5 -1.9,3.2 -4.4,6.8 -5.4,7.8 -1.8,1.8 -1.9,1.8 -3,-2.5 -2.1,-7.7 -9.4,-19.9 -11.9,-19.9 -0.4,0 -1.3,1.9 -2,4.2 -1.4,4.7 -11.1,23.8 -12,23.8 -1.5,0 -10.4,-19.2 -10.8,-23.4 -0.3,-2.5 -1.1,-4.6 -1.7,-4.6 -0.6,0 -5.9,5 -11.7,11.1 -6.5,6.8 -10.9,10.7 -11.3,10 -0.4,-0.6 -1,-5.1 -1.3,-10 -0.5,-7.1 -0.2,-9.5 1.1,-12.2 l 1.6,-3.3 -2.6,2.5 c -1.5,1.3 -4.4,4.6 -6.5,7.2 l -3.9,4.9 V 361 c 0,-5.2 1.1,-7.2 13.4,-25.5 5.6,-8.3 12.7,-18.9 15.6,-23.8 3,-4.8 5.8,-8.7 6.1,-8.7 0.8,0 1.9,5.3 1.9,9.6 0,1.8 0.4,3.5 0.8,3.8 1.2,0.7 0.3,-8.7 -1.5,-15.9 -2.6,-10.6 -7.2,-32.9 -7.3,-35.4 v -2.4 l 2.7,2.4 c 2.5,2.3 2.5,2.2 -0.5,-2.2 -6.8,-10.1 -6.2,-20.9 1.5,-28.6 4.4,-4.4 6.9,-5.1 8.3,-2.3 z m 91.3,27.5 c 5.4,6.8 8.8,14.8 9.4,22.1 0.5,5.4 0.3,6.3 -2,8.9 -3.6,4.3 -5.3,2.4 -5.9,-6.8 -0.5,-7.2 -3,-13.9 -6.8,-18.2 -1.5,-1.6 -5,-11.5 -5,-14 0,-1.7 6.7,3.5 10.3,8 z m -34,9.8 c 1.9,3.5 3.8,7.4 4.2,8.7 0.7,2.3 0.5,2.3 -3.1,-1 -2.6,-2.3 -2.2,-1.6 1.2,2 12,12.8 9.7,16.7 -2.5,4.2 -4.2,-4.2 -8.3,-9.2 -9,-11 -1.3,-3.1 -1.2,-3.4 1.4,-6.2 1.6,-1.7 3.2,-3 3.6,-3 0.4,0 2.3,2.8 4.2,6.3 z m 33.2,7 c 1.7,5.8 1.9,9.7 0.5,9.7 -0.8,0 -4.1,-9.5 -5.5,-16.5 l -0.6,-3 2,2.3 c 1.2,1.3 2.8,4.7 3.6,7.5 z M 354,362.2 c 2.1,1.5 2.2,2 1.2,4.3 -0.7,1.4 -1.2,3.5 -1.2,4.6 0,2 0,2 -3,-0.1 -3.8,-2.7 -5.7,-6.5 -5.2,-10.7 l 0.3,-3.2 2.7,1.7 c 1.5,0.9 3.8,2.5 5.2,3.4 z m -57.8,6.6 c 3.2,6.7 1.9,6.7 -2.7,0 -3.8,-5.8 -4.1,-6.8 -2.3,-8.6 1,-1 1.4,-0.8 1.9,1 0.3,1.3 1.7,4.7 3.1,7.6 z m 27,-8.1 c 3.3,3 1.2,13.2 -3.6,17.2 -1.4,1.2 -1.6,0.8 -1.8,-3.5 -0.2,-6.6 -0.1,-7.3 1.4,-11.7 1.5,-4.2 1.5,-4.3 4,-2 z m -32.3,6.9 2.1,3.6 -5,14.6 c -2.7,8.1 -5.2,16.6 -5.6,19 -0.4,2.4 -1.1,3.9 -1.5,3.5 -0.5,-0.5 -2.1,-7.8 -3.5,-16.2 l -2.6,-15.3 6.4,-6.4 c 3.4,-3.5 6.6,-6.4 6.9,-6.4 0.4,0 1.7,1.6 2.8,3.6 z m 56.9,2.1 c 2.6,4.1 3.4,2.7 -9.3,16.8 -20.7,22.9 -23.5,27 -23.5,34.1 0,3 0.4,5.4 1,5.4 0.5,0 0.7,-0.7 0.4,-1.5 -1.5,-3.8 1.5,-0.8 5.8,5.8 5.5,8.5 9.9,19.2 12.3,29.7 2.5,11.5 6.2,22.5 8.9,26.8 5.3,8.4 5.7,18 1.1,28.7 l -1.7,4 -1.9,-3.8 c -1.2,-2.3 -3.4,-4.4 -5.4,-5.4 -3.2,-1.5 -3.5,-2 -3.5,-6.2 0,-6.7 -3.4,-13 -14.4,-26.6 -5.3,-6.6 -12.9,-16.6 -16.9,-22.3 -4,-5.6 -9.5,-13.6 -12.4,-17.7 -6.6,-9.5 -7.7,-14.1 -5.7,-25.5 1.5,-8.7 11.1,-39 12.3,-39 1.1,0 7.7,7.2 9,9.7 0.7,1.3 1.6,2.3 2.1,2.3 0.5,0 2.8,-3.2 5.1,-7 2.3,-3.9 4.6,-7 5.2,-7 0.6,0 0.8,2 0.4,5.5 -0.3,3 -0.2,5.5 0.2,5.5 1.4,0 7.1,-6.6 9,-10.5 l 1.9,-3.9 1.7,6 c 1,3.2 1.9,6.5 2.1,7.2 0.7,2.5 2.9,0.6 7.9,-7.1 2.8,-4.1 5.2,-7.6 5.5,-7.6 0.3,0 1.5,1.6 2.8,3.6 z m -41.1,96.8 c 3.3,4.4 9,11.8 12.8,16.4 7.7,9.6 11.5,16.9 11.5,22.3 0,3.2 -0.4,3.7 -3.2,4.7 -1.7,0.6 -3.2,1 -3.3,0.9 -1.6,-1.8 -22.8,-46.8 -24,-50.8 -0.9,-3.2 -0.9,-3.1 6.2,6.5 z m 47.7,28.4 c 2.7,3 2.2,9.4 -1.2,17.1 -1.7,3.6 -3.9,10.1 -5.1,14.5 -2.6,9.4 -5.6,14.4 -11.3,18.5 -5.5,4 -7.5,3.9 -8.3,-0.4 -1.2,-5.9 -0.4,-7.8 3.9,-9.3 5.3,-1.8 7.2,-3.7 9.2,-9.2 0.9,-2.5 2.8,-6.9 4.1,-9.6 3.2,-6.8 4.7,-16.2 3.5,-20.8 -0.6,-2 -0.8,-3.8 -0.5,-4.1 0.8,-0.7 3.5,0.8 5.7,3.3 z m -17.5,18.7 c 7.8,6.5 3.3,18.9 -7.3,20.1 -4.2,0.5 -4.8,0.3 -7.6,-2.7 -9.4,-10 4.5,-26.2 14.9,-17.4 z m 20.5,9.9 c 5.4,2.3 7,5.4 6.2,12.3 -0.4,3.1 -1.1,13 -1.5,22 -0.8,15.8 -0.9,16.4 -3.7,20.4 -3.8,5.4 -5.9,6.7 -7.8,4.8 -2.8,-3 -2.7,-5.4 0.3,-7.2 6.5,-3.6 9,-12.9 5.2,-19.3 -1.9,-3.2 -2,-4.6 -1.5,-13.8 0.5,-8.7 0.3,-10.7 -1.3,-13.7 -1.8,-3.4 -2,-7 -0.3,-7 0.4,0 2.4,0.7 4.4,1.5 z m -4.9,17.1 v 10.5 l -6.7,0.3 c -6.2,0.2 -6.7,0 -7.1,-2 -0.3,-1.7 0.7,-3.3 3.5,-6.1 2.4,-2.3 4.7,-6 6,-9.6 3,-8.2 4.3,-6.1 4.3,6.9 z m -2.7,12.5 c 8.6,3 8.7,17 0.1,21.5 -4.5,2.3 -8.7,1.8 -12,-1.5 -2.4,-2.5 -2.9,-3.8 -2.9,-7.9 0,-5.7 2.5,-9.6 7.4,-11.8 3.8,-1.6 3.6,-1.6 7.4,-0.3 z"
                    id="path1"/>
            <path
                    d="m 332.2,76.2 c -2.3,2.3 -1.3,5.9 2.8,10 3.7,3.8 5.9,4.5 6.7,2.1 0.2,-0.5 -0.9,-1.8 -2.4,-2.8 l -2.8,-1.8 2.4,2.7 c 3.7,3.9 0.7,3.1 -3.4,-1 -8.2,-8.1 -0.5,-13.2 8.7,-5.7 2.7,2.3 3,2.3 1.3,0.4 -3.9,-4.5 -10.7,-6.5 -13.3,-3.9 z m -36.7,57.9 c -0.4,0.6 -0.5,1.2 -0.2,1.5 0.2,0.3 0.7,-0.2 1,-1.1 0.7,-1.7 0.1,-2 -0.8,-0.4 z m -37.4,17.5 c 0,1.1 0.3,1.4 0.6,0.6 0.3,-0.7 0.2,-1.6 -0.1,-1.9 -0.3,-0.4 -0.6,0.2 -0.5,1.3 z m 0.9,2.8 c 0,0.2 0.8,1 1.8,1.7 1.5,1.3 1.6,1.2 0.3,-0.4 -1.3,-1.6 -2.1,-2.1 -2.1,-1.3 z m 154.1,16.1 c -2.6,5.6 -4.6,14.4 -3.5,15.5 0.5,0.5 1,-0.9 1.1,-3.1 0,-2.2 0.6,-5.2 1.2,-6.7 0.6,-1.5 1.5,-4 2.1,-5.7 0.9,-2.3 1.3,-2.6 2,-1.5 0.8,1.2 1,1 1,-0.8 0,-3.5 -1.6,-2.6 -3.9,2.3 z m -18.3,39.2 c 1.2,0.2 3.2,0.2 4.5,0 1.2,-0.2 0.2,-0.4 -2.3,-0.4 -2.5,0 -3.5,0.2 -2.2,0.4 z m -73.3,-50.3 c -4.5,2 -8.9,5.6 -7,5.6 0.4,0 3.1,-1.4 6.1,-3 5.5,-3.2 9.2,-3.9 13.4,-2.7 l 2.5,0.8 -2.5,-1.5 c -3.5,-2.1 -6.7,-1.9 -12.5,0.8 z m 2.5,7.9 c -0.8,0.7 -2.2,2.1 -3,3.2 -1,1.3 -0.3,1 1.8,-0.8 3.2,-2.6 8,-3.8 6.7,-1.7 -0.3,0.5 -1.2,1 -1.9,1 -0.7,0 -2.4,1.2 -3.8,2.7 -3.8,4 -6.3,11.3 -3.8,11.3 0.5,0 0.7,-0.6 0.4,-1.4 -0.3,-0.8 -0.1,-2.4 0.6,-3.5 1.1,-2.1 1.1,-2.1 3.4,0.5 1.7,2.1 2.8,2.6 4.8,2.1 2.9,-0.8 5,-4.9 4.2,-8.3 -0.7,-2.6 1.3,-3.5 2.2,-0.9 1,2.5 -0.5,6.5 -3.3,9.1 -2.7,2.5 -2.1,3.3 0.8,1.1 2.2,-1.7 3.9,-5.1 3.9,-8 0,-1.4 0.7,-2.7 1.5,-3.1 0.8,-0.3 1.5,-1.2 1.5,-2 0,-1 -0.8,-1.3 -2.9,-1 -1.6,0.3 -3.2,0 -3.6,-0.6 -0.9,-1.4 -7.7,-1.2 -9.5,0.3 z m 8,7.7 c 0,1.6 -0.3,3.1 -0.7,3.3 -0.5,0.3 -0.8,-1.2 -0.8,-3.3 0,-2.1 0.3,-3.6 0.8,-3.3 0.4,0.2 0.7,1.7 0.7,3.3 z m -4,0 c 0,0.5 -0.5,1.2 -1.1,1.5 -0.6,0.5 -0.4,1.2 0.8,2.1 1,0.7 1.3,1.4 0.8,1.4 -1.8,0 -3.5,-2.3 -3.5,-4.7 0,-1.6 0.4,-2.1 1.5,-1.7 0.8,0.4 1.5,1 1.5,1.4 z m -41.2,-6.4 c -1.6,0.8 -2.8,1.7 -2.8,2 0,0.2 1,0 2.1,-0.7 1.3,-0.6 3.8,-0.9 6,-0.5 4.1,0.7 5.4,-0.8 1.7,-1.8 -3.2,-0.8 -3.9,-0.7 -7,1 z"
                    id="path2"/>
            <path
                    d="m 324.3,183.7 c 0.9,0.2 2.5,0.2 3.5,0 0.9,-0.3 0.1,-0.5 -1.8,-0.5 -1.9,0 -2.7,0.2 -1.7,0.5 z M 300,188 c -0.9,0.6 -1,1 -0.3,1 0.6,0 1.5,-0.5 1.8,-1 0.8,-1.2 0.4,-1.2 -1.5,0 z m 5.7,3.7 c -1,0.9 -0.9,3.3 0.1,3.3 0.4,0 0.8,-0.9 0.8,-2 0,-2.3 0,-2.2 -0.9,-1.3 z m 16.9,9.2 c -0.7,1 -8.1,2.2 -15.2,2.4 l -5.1,0.2 3.6,3.7 c 2.8,3.1 4.2,3.8 7.2,3.8 4.8,0 6.7,-0.8 8,-3.3 2.1,-3.7 3.3,-9.8 1.5,-6.8 z m -9.3,69.8 c 0.3,0.5 2.4,1.5 4.6,2.3 4.3,1.4 9.7,0.8 12.7,-1.5 1.7,-1.3 1.5,-1.3 -2.1,-0.4 -3.9,1.1 -10.4,0.8 -13.9,-0.7 -1.2,-0.4 -1.7,-0.4 -1.3,0.3 z m 30.7,33.7 c 0,0.2 0.8,1 1.8,1.7 1.5,1.3 1.6,1.2 0.3,-0.4 -1.3,-1.6 -2.1,-2.1 -2.1,-1.3 z m -39,33.1 c -2.5,1.3 -4.1,2.4 -3.7,2.5 1.1,0 8.7,-3.9 8.7,-4.5 0,-0.7 0,-0.7 -5,2 z m -0.5,5.2 c -5,2.1 -6.5,2.4 -9,1.4 -2.7,-0.9 -2.8,-0.9 -1.1,0.4 2.9,2.2 6.4,1.8 12.6,-1.5 6.7,-3.6 5.6,-3.7 -2.5,-0.3 z m -13.1,86.4 c -0.3,0.6 -0.3,1.3 0,1.6 0.3,0.4 0.6,0.1 0.6,-0.7 0,-1 0.3,-1 1.5,0 3.4,2.8 0.2,6.6 -3.3,3.9 -1.5,-1.3 -1.6,-1.2 -0.3,0.3 0.7,1 1.9,1.8 2.6,1.8 2,0 3.7,-2.7 3,-4.9 -0.7,-2.2 -3.2,-3.5 -4.1,-2 z m 45,91.2 c 0.3,0.9 0.1,2.8 -0.4,4.2 -0.5,1.4 -0.6,2.5 -0.1,2.5 1.3,0 2,-5.3 0.9,-7 -0.8,-1.2 -0.9,-1.2 -0.4,0.3 z m 15.2,39 c 0.3,1 0.9,1.5 1.2,1.2 0.3,-0.3 0,-1.1 -0.7,-1.8 -1,-0.9 -1.1,-0.8 -0.5,0.6 z m 0.3,6.4 c -1.3,1.6 -1.2,1.7 0.4,0.4 1.6,-1.3 2.1,-2.1 1.3,-2.1 -0.2,0 -1,0.8 -1.7,1.7 z M 349,569 c -0.9,0.6 -1,1 -0.3,1 0.6,0 1.5,-0.5 1.8,-1 0.8,-1.2 0.4,-1.2 -1.5,0 z M 193.1,198.2 c -0.1,0.9 -1,1.9 -2,2.3 -1.6,0.5 -1.8,1 -0.8,3.5 1,2.8 1.2,2.8 2.5,0.9 0.7,-1 2.1,-1.9 3,-1.9 1.2,0 1.3,-0.3 0.5,-0.8 -0.7,-0.4 -1.6,-1.9 -2.2,-3.2 -0.6,-1.7 -1,-1.9 -1,-0.8 z M 346.3,231 c -1.8,1.1 -3.3,2.4 -3.3,3 0,0.7 6.1,-2.7 7.9,-4.6 1.2,-1.2 -1.8,-0.2 -4.6,1.6 z m 93.8,15.7 c -0.1,0.7 -1.2,1.5 -2.6,1.9 -2.4,0.6 -2.5,0.8 -1,2.3 0.8,1 1.5,2.6 1.5,3.7 0,1.7 0.1,1.6 1.6,-0.4 0.8,-1.2 2.3,-2.2 3.2,-2.2 1.2,0 1.3,-0.3 0.5,-0.8 -0.7,-0.4 -1.6,-1.9 -2.2,-3.2 -0.5,-1.4 -1,-1.9 -1,-1.3 z M 198.8,252 c -1.2,2.2 -2.5,3 -4.5,3 -2.8,0.1 -2.8,0.1 -0.5,1.3 1.2,0.7 1.9,1.6 1.6,2 -0.4,0.4 -0.2,0.7 0.4,0.7 0.7,0 1.2,1.2 1.3,2.7 0,2.8 0,2.8 1.1,0.5 0.7,-1.3 1.7,-2.1 2.5,-1.8 0.8,0.3 1.1,0.1 0.8,-0.4 -0.4,-0.6 0.8,-1 2.7,-1 h 3.3 l -3.2,-1.9 c -2.2,-1.4 -3.3,-2.9 -3.5,-5 l -0.3,-3.1 z m 29.3,-2.3 c -0.1,0.7 -1.2,1.5 -2.6,1.9 -2.1,0.5 -2.3,0.8 -1,2.1 0.8,0.8 1.5,2.1 1.5,2.9 0,1.3 0.2,1.3 1.6,0 0.8,-0.9 2.5,-1.6 3.7,-1.6 2,-0.1 2.1,-0.1 0.4,-1.1 -1,-0.6 -2.2,-2 -2.7,-3.2 -0.5,-1.2 -0.9,-1.6 -0.9,-1 z m 213.1,22.7 c -1.2,3.2 -1.6,3.5 -3,2.4 -1.3,-1.1 -1.5,-1 -0.9,0.4 0.5,1.5 0,1.8 -3.1,1.8 l -3.7,0.1 3.3,1.7 c 2.7,1.5 3,2 2,3.1 -1.1,1.2 -1,1.3 0.5,0.8 1.4,-0.5 1.7,0 1.8,3.6 v 4.2 l 1.6,-3.8 c 1.2,-3 1.8,-3.5 2.9,-2.6 1.2,1 1.3,0.9 0.8,-0.5 -0.5,-1.3 0.1,-1.6 3.7,-1.7 h 4.4 l -3.8,-1.6 c -3,-1.2 -3.5,-1.8 -2.6,-2.9 0.9,-1.2 0.9,-1.3 -0.4,-0.8 -1.3,0.4 -1.6,-0.3 -1.9,-3.7 l -0.3,-4.3 z M 222,274.5 c -1.2,3.6 -2.5,4.4 -3.3,2.2 -0.3,-0.7 -0.6,-0.5 -0.6,0.5 -0.1,1.4 -1,1.8 -3.8,1.9 l -3.8,0.1 3.3,1.4 c 2.2,1 3.2,2 2.8,2.9 -0.3,0.9 0,1.2 1,0.8 1.1,-0.4 1.4,0.4 1.5,3.3 0.1,3.9 0.1,3.9 1.1,1.1 0.6,-1.8 1.5,-2.6 2.4,-2.3 0.8,0.3 1.4,-0.1 1.4,-0.9 0,-1 1.2,-1.5 3.8,-1.6 l 3.7,-0.1 -3.3,-1.4 c -2.7,-1.2 -3.1,-1.8 -2.2,-2.9 0.9,-1.1 0.7,-1.2 -0.9,-0.8 -1.7,0.4 -1.9,0.1 -1.4,-3.6 0.7,-5 -0.1,-5.3 -1.7,-0.6 z m 56,5.3 c 0,0.4 1,1.3 2.3,2.1 2.2,1.4 2.2,1.4 0.3,-0.8 -2,-2.2 -2.6,-2.5 -2.6,-1.3 z m -96.4,5.4 c -1,2.7 -2.1,4.8 -2.4,4.8 -0.3,0 -1.1,-0.8 -1.9,-1.8 -1.2,-1.5 -1.3,-1.5 -0.7,0.9 0.5,2.6 0.5,2.6 -4.8,2.2 l -5.3,-0.4 4.8,2.2 c 4.6,2.1 4.7,2.2 3,4.1 -1.7,1.9 -1.7,1.9 1.1,1.2 l 2.8,-0.7 -0.7,4.9 -0.6,4.9 2.3,-4.3 c 2.3,-4 2.4,-4.1 4.1,-2.5 1.8,1.7 1.8,1.7 1.1,-1.1 l -0.7,-2.9 5.4,0.6 5.4,0.5 -4.7,-2.2 c -4.2,-2 -4.6,-2.4 -3.2,-3.8 1.4,-1.4 1.4,-1.5 -0.8,-1.1 -2.2,0.4 -2.4,0.2 -2,-3 0.7,-6.4 -0.3,-7.5 -2.2,-2.5 z M 467,284 c 0,2.1 -4.1,5 -7.2,5.1 l -3.3,0.1 2.8,1.1 c 1.6,0.6 2.6,1.6 2.3,2.4 -0.3,0.7 0.1,1.3 0.9,1.3 0.9,0 1.2,0.8 0.9,2.6 -0.3,1.6 -0.1,2.3 0.6,1.9 0.5,-0.3 1,-1.3 1,-2.2 0,-0.9 0.6,-1.3 1.5,-0.9 0.9,0.3 1.5,0 1.5,-0.9 0,-0.8 0.9,-1.5 2.1,-1.5 1.9,0 1.8,-0.2 -0.7,-2.5 -2,-1.9 -2.5,-3 -2,-5 0.4,-1.4 0.4,-2.5 0.1,-2.5 -0.3,0 -0.5,0.4 -0.5,1 z m -20.9,29.3 c -0.1,1 -0.4,1.6 -0.8,1.4 -0.5,-0.3 -1.4,0.1 -2.1,0.9 -0.8,0.9 -0.9,1.4 -0.2,1.4 0.6,0 0.9,0.4 0.6,0.9 -1,1.5 1.8,1.8 4.4,0.4 1.4,-0.7 2,-1.3 1.3,-1.3 -0.6,0 -1.6,-1.2 -2.1,-2.8 -0.7,-1.8 -1.1,-2.1 -1.1,-0.9 z m -238.8,11.4 c 0.9,0.2 2.5,0.2 3.5,0 0.9,-0.3 0.1,-0.5 -1.8,-0.5 -1.9,0 -2.7,0.2 -1.7,0.5 z m -3.8,1.3 c 0.3,0.5 0.8,1 1.1,1 0.2,0 0.4,-0.5 0.4,-1 0,-0.6 -0.5,-1 -1.1,-1 -0.5,0 -0.7,0.4 -0.4,1 z m 5.1,7.6 c -2.1,2 -1.1,3.5 1.6,2.5 2.8,-1 9.6,1.6 16.7,6.3 3,2.1 11.0225,3.7728 12.6225,3.6728 2.6,-0.1 -1.9772,-0.4815 -4.8772,-1.1815 -1.6,-0.4 -6.0453,-2.3913 -9.5453,-4.6913 -3.5,-2.3 -7.2,-4.2 -8.3,-4.2 -1,0 -1.8,-0.5 -1.8,-1 0,-1.1 4.2,-0.4 7.4,1.2 1.2,0.7 1.6,0.7 1.2,0 -1.3,-2.1 -7.5,-3.4 -10.8,-2.3 -4,1.4 -4.3,1.4 -2.8,-0.4 2.6544,-3.2163 1.0242,-2.4407 -1.4,0.1 z m 235.8,15.1 c -2.1,1.2 -5.2,3.7 -6.9,5.6 -1.6,1.9 -4.3,4.1 -6,5 -2.3,1.3 -2.6,1.6 -1.1,1.7 1.1,0 4,-2.2 6.5,-4.9 5.4,-5.7 7.8,-7.1 15.1,-8.7 l 5.5,-1.3 -4.6,0.2 c -2.5,0.1 -6.3,1.2 -8.5,2.4 z M 217.5,402 c -2,4.3 -2.4,4.6 -4.4,2.7 -1.1,-1 -1.2,-0.8 -0.6,1 0.6,2.2 0.3,2.3 -4.2,2.4 l -4.8,0.1 4.3,2 c 4.1,1.8 4.3,2.1 2.8,3.7 -1.6,1.7 -1.5,1.8 0.6,1.4 2.2,-0.4 2.3,-0.2 2.1,4.4 l -0.3,4.8 2,-4.3 c 2,-4.4 2.9,-4.9 4.7,-3.1 0.9,0.9 1,0.7 0.6,-1 -0.5,-1.9 -0.1,-2.1 4.3,-2.2 h 4.9 l -4,-1.6 c -5.1,-2.1 -5,-2 -3.6,-3.7 1,-1.2 0.8,-1.3 -1,-0.9 -2.1,0.6 -2.2,0.4 -1.6,-4.5 0.3,-2.9 0.5,-5.2 0.3,-5.2 -0.2,0 -1.1,1.8 -2.1,4 z m 184.1,0.3 c -0.7,2.2 -1.1,2.5 -2.2,1.6 -1.2,-1 -1.3,-0.8 -0.8,0.6 0.6,1.5 0.3,1.7 -2.6,1.3 -3,-0.4 -3.1,-0.4 -1.5,0.9 1.1,0.7 2.3,1.3 2.8,1.3 0.4,0 0.5,0.4 0.2,1 -0.3,0.5 -0.1,1 0.4,1 0.6,0 1.1,1.2 1.2,2.7 0,2.8 0,2.8 1.1,0.5 0.6,-1.3 1.7,-2.1 2.5,-1.8 0.7,0.3 1.2,0 1,-0.7 -0.1,-0.7 0.9,-1.1 2.8,-0.9 l 3,0.3 -3.2,-2 c -2.3,-1.5 -3.3,-2.9 -3.5,-5.3 l -0.4,-3.3 z m -149,21 c -0.6,1.9 -1.3,2.6 -2.3,2.3 -0.8,-0.3 -1.1,-0.1 -0.8,0.4 0.4,0.6 -0.8,1 -2.7,1 h -3.3 l 3.3,2 c 2.5,1.5 3.2,2.7 3.3,5.2 l 0.1,3.3 1,-2.8 c 0.8,-2.3 1.3,-2.6 2.4,-1.6 1.2,1 1.3,0.9 0.8,-0.5 -0.5,-1.2 0,-1.6 2.2,-1.6 2.9,-0.1 2.9,-0.1 0.6,-1.3 -1.2,-0.7 -1.9,-1.6 -1.6,-2 0.4,-0.4 0.2,-0.7 -0.4,-0.7 -0.6,0 -1.2,-1.5 -1.4,-3.3 l -0.4,-3.2 z M 391,436.5 c -1,1.8 -1.9,2.4 -3.3,1.9 -1.8,-0.6 -1.8,-0.5 0.2,1.5 1.2,1.2 2.1,2.6 2.1,3.2 0,0.6 0.7,0.3 1.6,-0.5 0.8,-0.9 2.3,-1.6 3.1,-1.6 1.3,0 1.3,-0.3 -0.3,-1.8 -1.1,-0.9 -1.8,-2.5 -1.6,-3.5 0.5,-2.4 -0.2,-2.1 -1.8,0.8 z m -153.4,18.3 c -0.5,1.4 -1.3,2.1 -2.2,1.8 -0.7,-0.3 -1.3,0 -1.1,0.7 0.1,0.7 -1,1.1 -3.3,0.9 l -3.5,-0.2 3.3,1.5 c 1.8,0.8 3.1,1.9 2.7,2.5 -0.3,0.5 -0.1,1 0.4,1 0.6,0 1.1,1.2 1.2,2.7 0,2.8 0,2.8 1.1,0.5 0.6,-1.3 1.7,-2.1 2.4,-1.8 0.9,0.3 1.1,-0.1 0.7,-1.1 -0.5,-1.4 0,-1.5 3.3,-1.1 l 3.9,0.6 -3.3,-1.4 c -1.8,-0.8 -3,-1.9 -2.7,-2.4 0.3,-0.6 0.2,-1 -0.4,-1 -0.5,0 -1.1,-1.2 -1.3,-2.8 -0.3,-2.7 -0.4,-2.7 -1.2,-0.4 z m 191,8 c -0.5,1.5 -1.3,2.1 -2.2,1.8 -0.9,-0.3 -1.2,-0.1 -0.9,0.4 0.4,0.6 -0.8,1 -2.7,1.1 l -3.3,0.1 2.8,1 c 1.9,0.7 2.6,1.5 2.3,2.5 -0.3,0.8 -0.1,1.1 0.4,0.8 0.6,-0.4 1,0.8 1.1,2.7 l 0.1,3.3 1,-2.8 c 0.8,-2.3 1.3,-2.6 2.4,-1.6 1.2,1 1.3,0.9 0.8,-0.5 -0.5,-1.3 0.1,-1.6 2.7,-1.7 l 3.4,-0.1 -2.8,-1 c -1.5,-0.5 -2.5,-1.4 -2.1,-1.9 0.3,-0.5 0.1,-0.9 -0.5,-0.9 -0.5,0 -1.1,-1.2 -1.3,-2.8 -0.3,-2.7 -0.4,-2.7 -1.2,-0.4 z"
                    id="path3"/>
        </g>
        <path
                fill="#fccd97"
                fill-rule="evenodd"
                d="m 314.3754,216.479 c -4.6872,-1.9385 -17.8323,-11.0681 -21.342,-14.8226 -1.3785,-1.4746 -2.4253,-5.5984 -3.0332,-11.9487 l -0.3342,-3.4924 2.121,1.2431 c 2.3767,1.3928 3.2218,1.549 3.2218,0.5951 0,-0.399 0.735,-0.7465 1.9127,-0.9045 1.052,-0.141 2.2567,-0.542 2.6772,-0.891 0.4204,-0.349 1.1579,-0.5678 1.6388,-0.4863 2.6466,0.4484 -1.7919,-5.6527 -6.323,-8.6916 -1.1201,-0.7512 -2.1275,-1.4291 -2.2388,-1.5065 -0.1112,-0.0774 0.2085,-0.4514 0.7103,-0.831 0.8523,-0.6449 0.7957,-0.6914 -0.8581,-0.7055 -0.9739,-0.008 -2.8917,0.411 -4.2618,0.9318 -1.3701,0.5207 -2.6117,0.947 -2.759,0.947 -0.6583,6e-4 -2.3365,-3.841 -2.3365,-5.3482 0,-0.9175 0.7444,-4.6175 1.6542,-8.2223 0.9098,-3.6048 1.6556,-6.6075 1.6574,-6.6726 0.0304,-1.149 5.4717,3.7943 9.1271,8.292 1.4265,1.755 2.9701,3.9369 3.4303,4.8484 1.5955,3.1606 2.6081,2.803 3.7989,-1.3418 1.5058,-5.2411 4.925,-9.1824 13.2424,-15.2641 2.6044,-1.9044 6.269,-4.9136 8.1437,-6.6871 1.8746,-1.7735 3.5976,-3.2246 3.829,-3.2246 0.2313,0 0.7815,1.2981 1.2226,2.8847 1.1131,4.0039 2.6372,6.8516 7.2637,13.5727 4.4571,6.475 9.1366,15.1294 9.1366,16.8977 0,1.6712 0.951,2.0212 1.9937,0.7336 0.4913,-0.6067 2.1562,-3.5706 3.6998,-6.5863 2.933,-5.7303 6.913,-11.0362 6.3332,-8.4429 -0.1977,0.8844 -0.1002,1.3023 0.304,1.3023 0.872,0 0.2756,7.0362 -0.923,10.8911 -1.6952,5.4523 -4.7154,9.0042 -6.4396,7.5732 -0.4462,-0.3703 -0.9176,-0.4466 -1.1718,-0.1897 -0.234,0.2364 -1.3152,2.9868 -2.4027,6.1121 -3.1386,9.019 -5.1654,12.5001 -10.5071,18.046 -4.9125,5.1004 -9.8342,8.8326 -14.1845,10.7565 -4.0408,1.787 -5.0233,1.8647 -8.0031,0.6323 z m 1.6673,-5.5126 c 3.4844,-0.5706 5.053,-1.9586 6.357,-5.6249 1.439,-4.0457 1.633,-5.2753 0.8326,-5.2753 -0.374,0 -0.7565,0.23 -0.8502,0.511 -0.292,0.8762 -5.536,1.8205 -12.8904,2.3213 -3.8846,0.2645 -7.1275,0.5456 -7.2065,0.6246 -0.1114,0.1115 4.7918,5.1799 6.5503,6.771 0.3078,0.2784 2.8538,0.9816 3.9307,1.0856 0.2604,0.025 1.7348,-0.1609 3.2765,-0.4133 z m -9.483,-16.3845 c 0.416,-1.0845 0.3529,-3.5128 -0.0915,-3.5128 -0.7698,0 -1.5153,1.1726 -1.5153,2.3834 0,1.8649 1.0431,2.598 1.6067,1.1294 z m -5.192,-6.151 c 0.7923,-0.7923 0.9847,-1.6235 0.3759,-1.6235 -0.6143,0 -2.473,1.4438 -2.473,1.921 0,0.703 1.2778,0.5218 2.097,-0.2975 z m 26.7882,-4.9383 c 0,-0.2604 -0.959,-0.4735 -2.1309,-0.4735 -1.172,0 -2.1309,0.2131 -2.1309,0.4735 0,0.2605 0.959,0.4736 2.1309,0.4736 1.172,0 2.1309,-0.2131 2.1309,-0.4736 z m -7.5765,-2.1544 c 0,-0.9244 0.3335,-2.3257 0.741,-3.1139 l 0.7412,-1.433 2.3165,2.1668 c 2.8577,2.673 4.4074,2.8324 6.8326,0.703 1.8773,-1.6482 2.7627,-4.1658 2.537,-7.214 -0.1786,-2.4131 1.0053,-2.791 1.6544,-0.528 0.6305,2.1988 -0.3264,4.8973 -2.739,7.7236 -2.253,2.6396 -2.5729,3.3764 -1.4656,3.3764 2.1476,0 5.941,-5.6494 5.9508,-8.8622 0.003,-1.0119 0.481,-2.0651 1.4252,-3.1404 0.7814,-0.89 1.4206,-2.0693 1.4206,-2.621 0,-0.901 -0.2669,-1.0028 -2.628,-1.0028 -1.484,0 -3.2663,-0.3302 -4.0947,-0.7586 -1.071,-0.5538 -2.4031,-0.7112 -4.9371,-0.5833 -3.3782,0.1706 -3.5273,0.2312 -5.6126,2.2777 -3.026,2.9697 -2.7094,3.7572 0.5805,1.4445 2.9082,-2.0442 5.602,-3.085 6.0614,-2.3416 0.1504,0.2433 -0.6458,0.8372 -1.7693,1.3197 -3.621,1.555 -7.8658,7.1986 -8.6804,11.5406 -0.3555,1.8949 -0.0554,2.7274 0.9832,2.7274 0.466,0 0.6823,-0.533 0.6823,-1.6809 z m -32.9565,-11.5114 c 1.0163,-0.26 3.307,-0.3505 5.0904,-0.201 2.7775,0.2329 3.2426,0.1625 3.2426,-0.4905 0,-0.9941 -1.3455,-1.6856 -3.9836,-2.0472 -1.7493,-0.2397 -2.5737,-0.0618 -4.636,1.0007 -1.3796,0.7108 -2.828,1.6164 -3.2187,2.0125 -0.7791,0.79 -0.5992,0.7759 3.5053,-0.2745 z m 32.6903,-7.358 c 6.4123,-3.363 9.1457,-3.9844 13.1209,-2.983 1.6403,0.4131 3.0582,0.6753 3.151,0.5825 0.0928,-0.0927 -0.8295,-0.7536 -2.0494,-1.4685 -4.0313,-2.3625 -7.932,-2.0191 -14.5277,1.2788 -2.751,1.3754 -6.058,3.9531 -6.058,4.722 0,0.892 1.6544,0.3378 6.3632,-2.1318 z m -83.2028,182.8047 c -1.2174,-0.2122 -2.6865,-0.5422 -3.2646,-0.7333 -1.7888,-0.5914 -6.2797,-2.9005 -9.0872,-4.6723 -3.4861,-2.2002 -6.3315,-3.6143 -7.9399,-3.9462 -0.6837,-0.141 -1.343,-0.3393 -1.465,-0.4405 -0.3426,-0.2844 -0.2635,-0.6335 0.1906,-0.8403 0.8513,-0.388 4.6566,0.542 6.9448,1.697 0.5523,0.2788 1.0818,0.507 1.1765,0.507 0.2823,0 0.1963,-0.4265 -0.1835,-0.9093 -1.1945,-1.5186 -4.7337,-2.5461 -8.2855,-2.4055 -1.5384,0.0609 -2.1294,0.1722 -3.7922,0.7143 -1.0833,0.3532 -2.0164,0.5955 -2.0734,0.5384 -0.0571,-0.057 0.3592,-0.7169 0.925,-1.4663 0.5658,-0.7493 1.093,-1.4772 1.1715,-1.6175 0.1258,-0.2247 0.4386,-0.2313 2.6352,-0.055 6.0064,0.4822 10.6278,1.8028 14.9523,4.2728 0.9232,0.5273 1.7615,0.9311 1.8627,0.8973 0.3483,-0.116 -1.2258,-1.8313 -2.416,-2.6328 -0.6556,-0.4414 -2.4224,-1.4242 -3.9264,-2.184 -2.569,-1.298 -3.8785,-2.1616 -3.8785,-2.5578 0,-0.266 2.0886,-0.005 4.3184,0.5395 3.8798,0.9474 7.2024,2.1663 8.2967,3.0436 0.853,0.6837 1.8897,0.9762 3.4612,0.9762 1.802,0 3.1783,-0.6897 4.815,-2.4126 2.2056,-2.322 3.5415,-4.6088 6.5615,-11.232 8.014,-17.5757 14.226,-29.3754 20.0955,-38.1713 3.8822,-5.8178 5.9135,-9.3203 6.6799,-11.5178 1.0311,-2.9567 3.9362,-15.2648 6.2415,-26.444 l 0.889,-4.3107 1.6323,-3e-4 c 0.8978,-1e-4 1.6324,0.039 1.6324,0.0868 0,0.0479 -0.1916,0.5564 -0.4256,1.13 -1.0552,2.5862 -1.5097,5.4316 -1.3565,8.4932 0.1053,2.1054 0.2053,2.67 1.4234,8.036 0.84,3.7 1.2266,6.0746 2.8722,17.6428 l 1.331,9.3555 -2.3246,5.301 c -3.1553,7.1955 -4.5904,10.2468 -6.0298,12.82 -3.7503,6.7046 -6.7587,10.1946 -15.1601,17.5872 -1.5645,1.3766 -4.352,3.9445 -6.1945,5.7066 -3.053,2.9196 -4.547,4.4757 -10.777,11.2244 -2.402,2.602 -5.1063,5.146 -6.7778,6.3758 -0.6587,0.4846 -1.499,1.1306 -1.8673,1.4355 l -0.6697,0.5543 z m 44.961,-62.4912 c -0.117,-0.3226 -2.4028,-2.886 -2.9366,-3.293 -0.6768,-0.5163 -1.119,-0.4736 -1.1877,0.1146 -0.0665,0.5703 0.8,1.4207 2.5546,2.5073 1.3181,0.8163 1.678,0.9701 1.5696,0.6711 z"
                paint-order="markers stroke fill"
                id="path4"/>
        <path
                fill="#fccd97"
                fill-rule="evenodd"
                d="m 426.4135,362.883 c -1.6926,-0.6083 -3.4744,-1.8773 -6.1575,-4.385 -1.4123,-1.32 -5.7276,-5.1826 -9.5896,-8.5835 -11.0627,-9.742 -16.3953,-14.665 -21.1014,-19.4807 -5.2206,-5.3422 -6.4154,-6.7792 -9.2848,-11.1678 -4.5635,-6.9795 -5.9307,-10.1532 -8.4557,-19.628 -4.0183,-15.0786 -12.9877,-34.249 -18.1597,-38.813 -1.6634,-1.4678 -7.7101,-5.1913 -7.9846,-4.9168 -0.0878,0.0878 1.0615,1.2832 2.554,2.6565 l 2.7135,2.4969 -1.3173,1.6665 c -0.7246,0.9167 -3.0494,3.9456 -5.1663,6.731 l -3.849,5.0646 -0.39,-3.5787 c -1.1725,-10.7595 -3.3368,-17.6632 -7.4727,-23.8361 -2.3354,-3.4856 -5.6083,-7.3506 -7.0102,-8.2784 -2.2294,-1.4754 -5.1994,-1.4666 -11.5027,0.0342 -2.7602,0.6572 -5.9175,1.2366 -7.0161,1.2875 l -1.9975,0.0925 -0.6208,-1.2996 c -0.8828,-1.8481 -2.5785,-8.4903 -2.581,-10.1102 -10e-4,-1.0244 0.2065,-1.5607 0.835,-2.151 0.7717,-0.7251 1.126,-1.6742 0.6247,-1.6742 -0.5373,0 -5.9317,2.9375 -8.4934,4.6252 -3.3567,2.2114 -7.5266,6.2949 -8.7052,8.5248 -0.818,1.5477 -0.8717,1.5827 -2.4275,1.5827 -1.0509,0 -1.5903,-0.142 -1.5888,-0.4185 0.006,-1.1167 3.1612,-13.827 4.2335,-17.0549 1.4118,-4.2499 3.0324,-6.9334 5.9482,-9.8491 2.476,-2.4761 3.8316,-2.9965 6.0591,-2.3261 3.0986,0.9325 10.3356,5.3314 12.7875,7.7727 0.7737,0.7703 2.0043,2.5796 2.7348,4.0207 2.416,4.766 3.055,5.0533 2.0646,0.9278 -0.4969,-2.0693 -0.5497,-2.7516 -0.2376,-3.0709 0.2206,-0.2257 1.6801,-0.6484 3.2434,-0.9393 5.1973,-0.9671 10.0217,-3.9278 17.7425,-10.8885 l 3.8506,-3.4714 0.2375,2.3668 c 0.4318,4.3027 2.7973,8.6818 7.0922,13.1292 4.0703,4.2148 8.1594,6.943 13.267,8.8518 5.3822,2.0113 8.3548,4.1326 10.7656,7.6826 3.5259,5.1921 5.4046,11.155 11.157,35.4114 1.6227,6.8422 3.2781,11.9073 5.0413,15.4247 0.7908,1.5776 3.3218,5.3805 5.6245,8.451 7.0633,9.4183 11.969,17.6689 18.9527,31.8745 5.9044,12.0102 8.7086,16.6461 11.7055,19.3517 3.1283,2.8242 5.5736,2.6385 10.0781,-0.7654 5.1328,-3.8785 14.4877,-6.7912 21.9318,-6.8286 3.2858,-0.0165 6.8903,0.5492 6.4303,1.0092 -0.0916,0.0916 -2.1786,0.4565 -4.6378,0.8107 -9.5585,1.377 -20.4523,4.8028 -24.3102,7.6448 -2.16,1.5912 -1.7037,1.8636 0.9138,0.5454 3.72,-1.8733 7.2346,-3.166 11.038,-4.0598 1.9439,-0.4568 4.9525,-1.2827 6.6858,-1.8353 2.7733,-0.8841 3.3414,-0.964 4.7332,-0.6656 2.8622,0.6139 9.6942,3.568 10.2203,4.4194 0.2665,0.4311 0.4253,0.4527 -5.716,-0.777 -3.4175,-0.6844 -4.4434,-0.7627 -6.8642,-0.5243 -8.6287,0.8497 -11.3664,2.13 -17.7473,8.2995 -1.9331,1.8691 -4.5305,4.0263 -5.772,4.7938 -1.2415,0.7674 -2.2586,1.4923 -2.2602,1.6107 -0.002,0.1184 0.2441,0.31 0.546,0.4259 1.0872,0.4172 3.4716,-1.243 8.126,-5.6578 5.7133,-5.4192 6.8751,-6.058 14.4021,-7.919 l 5.4376,-1.3443 2.6616,1.7474 c 2.7239,1.7883 5.321,4.0645 5.321,4.6635 0,0.6688 -1.4672,0.3066 -4.3035,-1.0622 -2.7377,-1.3213 -3.0597,-1.3975 -5.909,-1.399 -2.5873,-0.002 -3.4284,0.1535 -5.947,1.0955 -2.8631,1.0709 -4.629,2.1158 -4.2387,2.508 0.1068,0.1074 1.3122,-0.1079 2.6787,-0.4783 1.3664,-0.3704 3.3072,-0.8973 4.3127,-1.1708 3.2936,-0.896 6.8813,-0.5027 7.312,0.8016 0.1225,0.3713 -0.266,0.4292 -1.9826,0.2954 -5.272,-0.411 -11.526,1.7443 -18.4775,6.3678 -4.4085,2.932 -6.5399,3.7659 -9.5362,3.7306 -1.2362,-0.0145 -2.6997,-0.1889 -3.2521,-0.3874 z m -80.538,-129.8524 c 3.6458,-1.8968 6.4088,-4.3377 4.91,-4.3377 -1.6121,0 -7.9136,4.1534 -7.9136,5.216 0,0.665 0.0851,0.64 3.0036,-0.8783 z"
                paint-order="markers stroke fill"
                id="path5"/>
        <path
                fill="#fcf997"
                fill-rule="evenodd"
                d="m 279.7777,250.2506 a 443.893,443.893 0 0 0 0.5624,-2.6866 c 0.8956,-4.333 1.662,-7.9704 2.2433,-10.6467 l 0.0965,-0.4447 0.0654,-0.003 c 0.038,-0.002 0.0654,10e-4 0.0654,0.007 0,0.006 -0.0444,0.2119 -0.0988,0.4583 -0.2862,1.2968 -0.4453,2.143 -0.4453,2.3688 0,0.0878 0.0204,0.1344 0.0843,0.192 0.117,0.1057 0.3672,0.177 0.7825,0.2228 0.1375,0.0151 0.2699,0.0181 0.8231,0.0184 0.671,3e-4 0.7747,-0.005 0.9731,-0.0427 0.1866,-0.036 0.2987,-0.0797 0.4311,-0.1676 0.2499,-0.1658 0.4224,-0.4138 0.8694,-1.2499 0.1832,-0.3425 0.2798,-0.505 0.466,-0.784 0.1806,-0.2703 0.438,-0.6201 0.6642,-0.9025 l 0.0985,-0.123 h 0.0879 c 0.0483,0 0.0878,0.002 0.0878,0.005 0,0.003 -0.0817,0.1146 -0.1815,0.2485 -0.3578,0.4803 -0.7392,1.0407 -1.045,1.5358 -2.1977,3.5573 -3.1431,7.4705 -2.849,11.7925 0.008,0.1237 0.0181,0.252 0.0217,0.2851 0.006,0.0546 0.005,0.0602 -0.0137,0.0602 -0.0222,0 -0.0245,-0.0276 -0.0606,-0.7191 -0.1202,-2.302 0.1064,-4.5114 0.6711,-6.5409 0.2104,-0.7561 0.3903,-1.2774 0.7574,-2.1939 0.2286,-0.5709 0.3453,-0.8862 0.3453,-0.9328 0,-0.0297 -0.035,-0.0401 -0.1883,-0.0557 -0.2922,-0.0295 -0.5065,-0.0343 -1.7631,-0.039 l -1.3185,-0.005 -0.4699,2.2793 c -0.8214,3.9845 -1.0229,4.9427 -1.6778,7.9794 l -0.049,0.2276 h -0.0663 z"
                paint-order="markers stroke fill"
                id="path6"/>
        <path
                fill="#fbd13a"
                fill-rule="evenodd"
                d="m 346.5245,173.371 c -0.0848,-0.293 -0.2515,-1.8167 -0.3704,-3.386 -0.3455,-4.5587 -0.8397,-6.446 -4.244,-16.2063 -1.9631,-5.6288 -2.411,-8.4758 -2.9756,-18.9155 -0.1855,-3.4302 -0.3812,-6.2808 -0.435,-6.3346 -0.1178,-0.1177 -0.5375,3.0243 -0.9166,6.8615 -0.6997,7.0818 1.3719,17.6085 4.928,25.0418 0.7294,1.5244 1.2797,2.911 1.223,3.0811 -0.332,0.9962 -9.283,-12.9058 -11.0487,-17.16 -1.5132,-3.6461 -1.7048,-6.1805 -1.079,-14.2768 0.2047,-2.6496 0.335,-5.0033 0.2897,-5.2306 -0.0454,-0.2273 -0.7557,1.5578 -1.5785,3.9669 -2.4088,7.0532 -4.8583,11.3002 -8.479,14.7009 -1.3924,1.3077 -3.9166,3.0565 -4.412,3.0565 -0.0746,0 0.4268,-0.8258 1.1144,-1.835 2.5743,-3.7787 7.1473,-12.6873 7.408,-14.4313 l 0.1343,-0.8992 -0.484,0.4735 c -0.266,0.2605 -1.2972,2.0141 -2.2913,3.897 -0.9941,1.883 -2.5707,4.4933 -3.5035,5.8008 -3.541,4.9634 -9.079,11.527 -11.0875,13.1412 -1.9873,1.597 -1.5131,0.4708 2.645,-6.282 4.2607,-6.9195 5.1471,-8.6253 4.482,-8.6253 -0.4711,0 -5.0272,6.3265 -7.9512,11.041 -3.2014,5.1618 -4.985,8.955 -6.1533,13.087 -0.3464,1.2249 -0.7949,2.61 -0.9967,3.0779 l -0.3669,0.8507 -0.2738,-1.3022 c -0.3647,-1.7345 -1.0437,-3.7623 -2.987,-8.921 -2.6593,-7.059 -2.6301,-6.917 -2.7929,-13.5524 -0.1016,-4.1395 -0.2216,-5.808 -0.4226,-5.8746 -0.7791,-0.2584 -1.2158,4.9409 -0.8,9.5252 0.2934,3.2344 0.7936,5.7711 1.797,9.1138 0.9198,3.0637 0.7621,3.2694 -1.0843,1.4144 -1.491,-1.4979 -4.9453,-5.924 -6.2342,-7.9881 -2.1862,-3.5014 -2.7896,-6.2059 -2.3037,-10.326 0.685,-5.8085 3.2292,-10.6811 9.217,-17.6523 a 6060.0168,6060.0168 0 0 0 3.3162,-3.863 c 0.1954,-0.2286 0.2884,-0.4827 0.2065,-0.5646 -0.082,-0.082 -1.7771,1.0737 -3.767,2.5681 -1.99,1.4944 -4.737,3.4983 -6.1043,4.453 -6.3914,4.4631 -9.657,8.096 -12.7425,14.1755 -1.4304,2.8185 -1.6935,3.5787 -1.2386,3.5787 0.3053,0 1.1199,-1.134 2.6136,-3.6386 2.2073,-3.701 6.322,-8.7555 8.7257,-10.7183 2.1907,-1.789 2.3174,-1.3103 0.5727,2.1636 -2.0399,4.0617 -9.0845,21.6098 -9.6186,23.96 -0.4306,1.8949 -0.4902,5.2584 -0.1586,8.9502 0.4272,4.7568 0.5708,9.4353 0.2841,9.2581 -0.8276,-0.5115 -6.3398,-9.2664 -7.6612,-12.168 -3.05,-6.6977 -2.1043,-17.06 2.3415,-25.6574 1.2983,-2.5107 3.8234,-6.129 5.4782,-7.8497 1.425,-1.4818 3.1044,-2.671 7.5303,-5.332 4.2244,-2.54 5.1844,-3.3445 3.6169,-3.031 -2.2845,0.4568 -12.433,5.3623 -16.1339,7.7986 -2.9754,1.9587 -6.0247,4.9651 -9.7724,9.6351 -3.1293,3.8994 -4.5035,5.4008 -4.733,5.1712 -0.4205,-0.4204 2.3392,-6.1371 5.091,-10.5461 3.003,-4.8115 6.3511,-8.0298 10.652,-10.2389 3.5376,-1.8172 6.0439,-2.7298 19.8277,-7.2204 7.6404,-2.489 11.7067,-3.9763 15.0968,-5.5217 3.1359,-1.4295 5.7104,-2.2626 8.6753,-2.8074 3.008,-0.5528 9.2924,-0.552 13.0954,10e-4 3.7763,0.5497 7.534,1.3098 7.8088,1.5794 0.1383,0.1358 0.004,0.9578 -0.3552,2.1741 -0.7409,2.5088 -0.7604,6.4356 -0.0455,9.1771 0.2547,0.9767 0.523,1.616 0.5965,1.4206 0.0734,-0.1953 0.4036,-2.2457 0.7338,-4.5565 1.3235,-9.261 2.2821,-8.797 8.9255,4.3198 3.3853,6.6838 3.8818,7.5467 4.1744,7.2541 0.4068,-0.4067 -3.8345,-11.7588 -5.5221,-14.7805 -0.4574,-0.819 -0.7943,-1.601 -0.7486,-1.738 0.3608,-1.0824 12.8144,11.3253 17.514,17.4494 3.5536,4.6307 5.122,10.3963 4.8583,17.859 -0.1505,4.2589 -0.6033,7.0885 -1.7427,10.8913 -1.012,3.3773 -2.4002,6.5227 -4.2351,9.5958 l -1.4096,2.3608 -0.0718,-1.8941 c -0.0871,-2.295 0.262,-5.09 1.0337,-8.275 0.6543,-2.7007 0.7116,-3.4449 0.2652,-3.4449 -0.3332,0 -3.3318,2.3452 -6.4359,5.0334 l -1.8941,1.6403 -0.1476,-3.0409 c -0.1119,-2.3048 -0.329,-3.7286 -0.8971,-5.882 -2.198,-8.3324 -5.229,-16.935 -6.1721,-17.5179 -0.5151,-0.3183 -0.1987,1.0804 1.6678,7.3722 1.708,5.7576 2.6487,9.7647 3.196,13.6135 0.3496,2.4588 0.3695,3.2508 0.1359,5.4047 -0.4517,4.1646 -1.9933,9.8764 -3.2396,12.003 -0.6772,1.1555 -0.9301,1.2635 -1.1533,0.4925 z m -50.4449,-38.1533 c 0.4694,-0.7163 0.742,-2.2743 0.398,-2.2743 -0.3412,0 -1.2113,1.1372 -1.3778,1.8007 -0.2683,1.069 0.3834,1.384 0.9798,0.4736 z"
                paint-order="markers stroke fill"
                id="path7"/>
        <path
                fill="#a0cd4a"
                fill-rule="evenodd"
                d="m 304.6212,380.1185 c -2.4068,-3.6757 -6.9523,-14.2035 -8.642,-20.0156 -0.868,-2.9862 -2.0073,-5.4294 -2.5315,-5.4294 -0.5243,0 -5.7673,4.7042 -11.6512,10.4536 -9.7458,9.5232 -10.7496,10.2608 -11.2784,8.2868 -1.1248,-4.199 -0.621,-16.8707 0.8122,-20.4281 1.3215,-3.2801 0.9551,-3.0412 -5.353,3.4903 l -6.7715,7.0115 0.5357,-3.9946 c 0.6166,-4.5968 2.8918,-8.4748 21.0614,-35.8996 14.1355,-21.3355 14.3547,-21.5134 14.585,-11.8302 0.052,2.183 0.5206,4.2325 1.0415,4.5544 1.9856,1.2272 0.8207,-8.5547 -3.3147,-27.835 -2.344,-10.9283 -4.2618,-20.8015 -4.2618,-21.9406 0,-1.748 0.2251,-1.8842 1.4435,-0.873 2.3722,1.9687 2.6979,0.2958 0.534,-2.743 -7.158,-10.0527 -5.8954,-22.5787 3.002,-29.78 4.1424,-3.3527 5.4625,-2.7412 7.2768,3.3707 2.1331,7.1858 3.2823,7.5562 14.9648,4.8239 l 6.8593,-1.6043 2.4418,2.294 c 3.2718,3.0737 9.692,16.3154 10.76,22.1928 0.4727,2.601 0.6222,10.0619 0.3323,16.5799 -0.5252,11.8111 -0.5185,11.861 2.009,14.8648 1.3948,1.6576 5.2495,4.9501 8.5659,7.3166 14.0765,10.0448 27.6127,30.26 30.4122,45.4177 l 0.6782,3.6727 -3.6257,-2.4638 c -1.9942,-1.355 -3.7554,-2.3341 -3.9139,-2.1757 -0.1584,0.1585 0.1609,2.7167 0.7096,5.685 0.5487,2.9681 0.8672,7.1955 0.7078,9.394 -0.289,3.984 -0.3015,3.9672 -3.735,-4.9996 -1.8948,-4.9484 -5.226,-14.9635 -7.4025,-22.2559 -3.8125,-12.7735 -8.541,-22.826 -13.7927,-29.3218 -4.0253,-4.979 -3.4496,-1.9346 0.8453,4.4703 3.9985,5.9628 7.1302,13.9878 10.622,27.2192 0.8934,3.3857 3.6901,11.3346 6.2149,17.6643 2.5247,6.3296 4.5904,11.959 4.5904,12.5099 0,0.8955 -5.1621,-1.9463 -19.5285,-10.7505 -2.5418,-1.5577 -4.88,-2.9579 -5.1958,-3.1115 -0.3159,-0.1537 -0.8178,2.0798 -1.1154,4.9633 -0.3794,3.6758 -1.551,6.9053 -3.9204,10.8057 -4.2707,7.0303 -5.9871,8.5872 -6.7738,6.1445 -2.927,-9.0886 -9.876,-21.1787 -12.173,-21.1787 -0.6434,0 -2.7656,3.6744 -4.7161,8.1653 -1.9505,4.491 -4.9626,10.7205 -6.6935,13.8435 l -3.1471,5.6782 z m 2.04,-36.4209 c 6.9789,-3.4777 6.1038,-4.6059 -1.386,-1.7867 -4.4226,1.6647 -7.3233,2.2107 -9.7074,1.8273 -3.203,-0.5151 -3.2936,-0.461 -1.5618,0.9325 2.6766,2.1538 7.056,1.817 12.6551,-0.973 z m -0.7877,-5.1105 c 3.8,-1.9386 5.6728,-3.8018 3.8215,-3.8018 -1.4719,0 -8.5141,4.1082 -8.523,4.972 -0.0109,1.0596 0.656,0.8936 4.7015,-1.1702 z m 23.2599,-65.7858 c 1.8063,-0.7548 3.2842,-1.5584 3.2842,-1.7859 0,-0.2274 -3.3028,-0.3557 -7.3397,-0.285 -4.0368,0.0706 -8.5117,-0.1993 -9.944,-0.6 -3.6837,-1.03 -3.328,0.8801 0.4735,2.5426 4.0577,1.7745 9.4632,1.8258 13.526,0.1283 z M 245.2882,120.278 c -1.3022,-1.7834 -4.4206,-5.576 -6.9298,-8.428 -4.3073,-4.8959 -4.7138,-5.8373 -7.2757,-16.8472 -1.4925,-6.4139 -3.5947,-14.1789 -4.6717,-17.2555 -2.8403,-8.1141 -2.4267,-8.4307 1.9718,-1.509 8.7235,13.7279 21.6071,40.9432 21.632,45.6955 0.0138,2.6287 -2.1521,1.87 -4.7266,-1.6558 z"
                paint-order="markers stroke fill"
                id="path8"/>
        <path
                fill="#d4ece4"
                fill-rule="evenodd"
                d="m 379.7706,245.3617 c 0,-0.741 1.5982,-1.8646 3.5515,-2.497 12.6999,-4.1116 27.7008,-17.4483 36.6637,-32.5961 4.881,-8.249 4.1003,-9.6517 -1.0605,-1.9056 -8.8405,13.2694 -19.4942,23.6306 -30.0908,29.2648 -5.6544,3.0065 -11.393,3.284 -12.8188,0.6198 -1.4253,-2.6633 -1.2743,-2.9035 1.8252,-2.9035 4.532,0 12.3617,-3.456 19.0711,-8.4178 5.4268,-4.0132 11.5444,-10.5234 9.889,-10.5234 -0.3098,0 -3.4286,2.3642 -6.9307,5.2538 -8.2448,6.8029 -15.1872,10.1705 -21.9794,10.6618 -4.6678,0.3377 -5.7112,0.0812 -8.1281,-1.9978 l -2.773,-2.3851 2.643,-2.0789 c 1.4535,-1.1434 4.8619,-3.9875 7.5741,-6.3204 2.7122,-2.3329 6.9557,-5.278 9.4299,-6.5446 2.4742,-1.2667 4.4985,-2.5622 4.4985,-2.879 0,-0.623 -4.1346,0.0598 -6.9465,1.1472 -1.4765,0.571 -1.3153,-0.1663 1.0723,-4.9057 1.5456,-3.0677 4.5934,-10.6241 6.773,-16.792 7.7375,-21.8953 15.2453,-35.6375 23.9863,-43.9044 8.3915,-7.9364 16.6585,-10.967 19.7475,-7.2392 1.8005,2.1729 1.5005,14.3421 -0.5437,22.053 -3.5407,13.356 -12.3202,28.7646 -21.2335,37.2664 -3.1173,2.9734 -6.3277,5.4061 -7.1343,5.4061 -2.6178,0 -4.6314,-5.4489 -3.9399,-10.6617 0.7338,-5.5315 4.7723,-18.7157 7.193,-23.4819 1.9045,-3.7502 10.082,-13.2093 11.4194,-13.2093 1.8389,0 0.7018,8.2992 -2.0075,14.652 -3.1853,7.4692 -3.0898,7.1303 -2.0087,7.1303 1.0343,0 6.5513,-11.93 7.3395,-15.871 1.7437,-8.7186 -3.0758,-10.471 -9.7218,-3.5348 -10.059,10.4982 -17.608,35.4797 -13.305,44.0294 0.8932,1.7746 2.0709,2.441 4.702,2.6604 3.0707,0.256 4.1217,-0.2778 8.3893,-4.2618 13.131,-12.258 23.0567,-33.831 25.3226,-55.037 0.5766,-5.3968 1.2857,-7.3008 4.1953,-11.2644 3.697,-5.0363 6.3736,-7.6992 6.3532,-6.3206 -0.007,0.4545 -0.8855,3.5964 -1.9529,6.9822 -1.0673,3.3857 -4.5014,15.5092 -7.6313,26.9411 -10.1687,37.1418 -18.6232,56.9688 -28.617,67.1113 -6.832,6.9336 -12.4732,10.9875 -20.7165,14.8872 -6.4246,3.0393 -12.0995,3.727 -12.0995,1.4662 z m 18.9412,-35.5882 c 1.0652,-0.6884 0.5914,-0.918 -1.8941,-0.918 -2.4856,0 -2.9594,0.2296 -1.8942,0.918 0.7814,0.505 1.6337,0.918 1.8942,0.918 0.2604,0 1.1127,-0.413 1.894,-0.918 z m 12.3117,-26.3337 c 0,-1.4615 0.883,-5.272 1.9622,-8.4677 1.4782,-4.377 2.3164,-5.6745 3.398,-5.2594 1.0596,0.4066 1.352,0.01 1.1158,-1.514 -0.551,-3.555 -2.119,-2.6538 -4.8395,2.782 -2.864,5.7223 -4.5515,15.1164 -2.7154,15.1164 0.5934,0 1.079,-1.1958 1.079,-2.6573 z M 247.3451,122.5746 c -0.6058,-0.5187 -1.2591,-1.2608 -2.1236,-2.4124 -1.6444,-2.1904 -4.008,-5.061 -6.8873,-8.3649 -0.5461,-0.6267 -1.179,-1.3634 -1.4064,-1.6372 -2.0801,-2.505 -2.9666,-4.2225 -3.9663,-7.6854 -0.4541,-1.5732 -0.877,-3.2584 -1.7042,-6.7922 -1.1247,-4.8042 -2.2922,-9.3643 -3.344,-13.0615 -0.1126,-0.3962 -0.2048,-0.7258 -0.2048,-0.7325 0,-0.0068 0.911,-0.0123 2.0243,-0.0123 h 2.0244 l 0.4585,0.8065 c 7.7783,13.6814 16.3846,32.2652 17.6126,38.0313 0.0563,0.264 0.1183,0.6107 0.1379,0.7705 0.0405,0.3305 0.0239,0.9407 -0.0314,1.1522 l -0.0367,0.1406 h -2.3162 z m 4.8358,-0.8849 c -0.0172,-0.0448 -0.7963,-2.259 -1.7314,-4.9203 -0.935,-2.6614 -1.8252,-5.1852 -1.9783,-5.6084 -1.6175,-4.4737 -4.4021,-11.0042 -6.499,-15.2417 -1.3222,-2.6718 -3.4208,-6.438 -5.7635,-10.3437 -0.5385,-0.8976 -2.0388,-3.3536 -2.2193,-3.6328 l -0.043,-0.0666 h 6.1572 l 0.871,0.9396 c 1.9774,2.133 3.8075,4.1981 6.0917,6.8736 4.0412,4.7333 5.6976,7.224 7.028,10.5681 1.2891,3.24 2.8248,8.8339 3.8872,14.159 0.4844,2.4278 0.7211,4.0257 0.7257,4.8981 0.003,0.6253 -3e-4,0.6378 -0.1976,0.6933 -0.0853,0.024 -0.7743,0.2115 -1.5312,0.4168 -0.757,0.2053 -2.1309,0.5922 -3.0533,0.8598 -0.9224,0.2676 -1.6852,0.4865 -1.695,0.4865 -0.01,0 -0.0322,-0.0366 -0.0493,-0.0813 z m -24.5346,-40.132 c -0.0635,-0.167 -0.1154,-0.3573 -0.1154,-0.4228 0,-0.0656 -0.53,-1.7269 -1.178,-3.6918 -1.584,-4.804 -1.8963,-5.9993 -1.568,-5.9993 0.2855,0 1.2857,1.3368 3.0889,4.1285 0.9467,1.4658 3.2767,5.2949 3.6767,6.0422 0.1314,0.2456 0.1222,0.2469 -1.8283,0.2469 h -1.9604 z"
                paint-order="markers stroke fill"
                id="path9"/>
        <path
                fill="#d4ece4"
                fill-rule="evenodd"
                d="m 247.3759,123.6418 c -0.1716,-0.135 -0.312,-0.3173 -0.312,-0.4051 0,-0.0878 -0.2396,-0.5172 -0.5327,-0.9541 -0.293,-0.437 -0.5327,-0.823 -0.5327,-0.858 0,-0.035 0.3863,0.3107 0.8583,0.768 1.1669,1.1307 1.9714,1.518 2.6287,1.2659 0.5641,-0.2165 0.6955,-1.5764 0.3075,-3.182 -1.877,-7.7666 -14.0928,-32.8422 -21.819,-44.7885 -1.924,-2.9749 -2.8297,-4.1626 -3.1738,-4.1626 -0.4994,0 -0.3088,0.8257 1.366,5.919 1.7207,5.2333 2.6686,8.7758 5.8603,21.9008 1.2,4.9347 1.9942,7.0658 3.4268,9.1947 0.3869,0.575 1.7797,2.2973 3.0952,3.8274 3.5753,4.1587 7.0677,8.4717 6.9529,8.5866 -0.0286,0.0286 -0.639,-0.6531 -1.3564,-1.515 -1.8356,-2.2048 -6.8482,-7.779 -10.3515,-11.511 l -0.4446,-0.4735 -1.492,-7.075 c -2.3093,-10.9508 -3.5452,-15.6705 -6.0987,-23.29 -2.4416,-7.2854 -2.6597,-8.7985 -1.246,-8.6432 1.4285,0.1569 8.9672,6.6584 14.1742,12.2242 l 1.3013,1.391 -3.0025,-2e-4 -3.0025,-2e-4 -0.644,-1.0356 c -1.1113,-1.7868 -3.4988,-5.3724 -4.6375,-6.9648 -1.3088,-1.8302 -1.9371,-2.6237 -2.7326,-3.4512 -1.6867,-1.7546 -0.4647,0.6397 3.2768,6.4208 3.865,5.9716 6.66,10.9547 10.5781,18.8589 6.7742,13.6658 11.322,25.3999 10.5585,27.243 -0.3378,0.8155 -2.2866,1.2756 -3.0061,0.7097 z m 16.6759,-2.1992 c -0.9127,-0.1283 -2.1062,-0.4084 -2.4106,-0.5658 -0.4658,-0.2409 -1.0187,-0.8991 -1.321,-1.5726 -0.3888,-0.8658 -0.9737,-3.2555 -1.834,-7.492 -0.8165,-4.021 -1.4384,-6.7404 -1.8354,-8.0257 -0.4813,-1.5584 -0.2603,-1.647 0.8421,-0.3373 2.6738,3.1765 6.9137,10.671 8.2675,14.614 0.6135,1.7866 0.5863,2.8467 -0.082,3.2043 -0.2652,0.142 -1.1698,0.2393 -1.6266,0.1751 z"
                paint-order="markers stroke fill"
                id="path10"/>
        <path
                fill="#d4ece4"
                fill-rule="evenodd"
                d="m 268.0033,118.7104 c -0.3993,-0.3607 -0.7815,-1.0373 -2.0899,-3.6994 -2.2745,-4.628 -3.495,-6.7853 -5.9007,-10.4304 -5.6843,-8.6123 -13.1578,-17.616 -21.7616,-26.2169 -6.0466,-6.0446 -10.0371,-9.5034 -15.2757,-13.24 -2.6275,-1.8742 -3.968,-3.1374 -3.968,-3.7391 0,-0.0698 0.1308,-0.1864 0.2907,-0.2593 0.2622,-0.1194 0.4223,-0.0448 1.6278,0.7593 2.3554,1.571 5.6145,4.0375 8.2623,6.2529 2.9101,2.4348 4.9484,4.3328 8.9453,8.3299 8.5865,8.587 16.348,17.5204 31.3047,36.0318 1.8557,2.2967 3.3867,4.2137 3.4023,4.26 0.0324,0.0958 -2.4932,1.76 -3.2496,2.1414 -0.7107,0.3583 -1.0218,0.321 -1.5876,-0.1902 z m -11.2741,80.2016 c -0.09,-0.2117 -0.4858,-1.1378 -0.8795,-2.0582 -6.1715,-14.4283 -11.534,-34.6116 -17.4835,-65.8045 -1.6668,-8.7388 -3.8083,-19.1539 -4.0914,-19.8985 -0.3089,-0.8124 -0.0658,-0.8243 0.9683,-0.0476 1.4185,1.0655 4.419,4.397 6.6856,7.4231 1.5206,2.0301 3.656,5.2566 4.1146,6.217 0.7837,1.6413 0.7858,2.326 0.017,5.5956 -1.5397,6.5473 -1.4224,13.876 0.3544,22.1375 1.9696,9.1582 5.8991,17.8952 10.8197,24.0567 2.9387,3.6799 6.2136,6.6142 9.0068,8.0703 2.1518,1.1216 3.7703,1.4757 5.246,1.1474 1.6324,-0.3632 2.1616,-1.1066 2.857,-4.0135 0.6189,-2.5865 1.454,-4.5223 2.0496,-4.7509 0.2875,-0.1103 0.5025,0.2457 0.5025,0.832 0,0.2977 0.0714,0.5549 0.179,0.644 0.2835,0.2354 1.0585,-0.1324 2.0111,-0.9544 1.1646,-1.0049 1.6186,-1.2282 2.1444,-1.0547 0.5532,0.1826 2.3584,1.9176 3.312,3.183 1.3964,1.8535 2.4718,4.3735 3.0194,7.0764 0.211,1.0413 0.2694,1.822 0.3146,4.2084 0.0306,1.6115 0.0182,2.93 -0.0276,2.93 -0.0457,0 -0.7575,-0.4733 -1.5818,-1.0516 -0.8242,-0.5784 -2.0313,-1.3487 -2.6824,-1.7117 -2.6796,-1.494 -5.3886,-1.9326 -7.1754,-1.1615 -0.84,0.3624 -2.766,1.9123 -2.3764,1.9123 0.0757,0 0.6043,-0.1998 1.1748,-0.444 1.005,-0.43 1.0797,-0.4436 2.3987,-0.435 1.127,0.007 1.5448,0.0645 2.4268,0.3321 4.3013,1.3053 8.6523,4.8783 9.3563,7.6832 l 0.0808,0.3218 -8.6252,-10e-5 -8.6251,-1e-4 -1.0427,-1.6277 c -0.5735,-0.8952 -1.418,-2.2935 -1.877,-3.1074 -1.1513,-2.0423 -1.864,-2.8868 -2.1057,-2.4957 -0.2984,0.483 0.981,3.045 3.0937,6.1951 l 0.6948,1.0359 h -8.2755 l -0.9407,-1.7462 c -0.5174,-0.9603 -1.3447,-2.5452 -1.8385,-3.5218 -1.561,-3.0872 -2.5317,-4.6761 -2.857,-4.6761 -0.1357,0 -0.1357,0.1067 0,0.6807 0.2905,1.2285 1.7545,4.4278 3.4653,7.5728 0.4682,0.8607 0.8513,1.5932 0.8513,1.6277 0,0.0346 -1.0115,0.0629 -2.2477,0.0629 h -2.2477 z"
                paint-order="markers stroke fill"
                id="path11"/>
        <path
                fill="#d4ece4"
                fill-rule="evenodd"
                d="m 268.8432,184.23 c -2.131,-0.8596 -4.2214,-2.4112 -7.049,-5.2319 -2.0241,-2.0191 -3.3422,-3.622 -5.017,-6.1014 -5.3863,-7.9734 -8.9304,-17.8466 -10.1449,-28.2614 -0.2559,-2.1944 -0.2929,-7.5501 -0.0648,-9.3835 0.2348,-1.8878 0.6877,-4.0033 1.1595,-5.4167 1.1247,-3.3691 3.2962,-6.3088 5.05,-6.8363 1.7563,-0.5284 5.2057,-0.9185 8.197,-0.927 1.7202,-0.005 2.2156,0.031 2.5712,0.1868 0.4312,0.1889 0.4375,0.201 0.3047,0.5822 -0.2092,0.6001 -2.0603,3.2955 -3.4828,5.0713 -1.2324,1.5386 -2.687,3.0568 -5.2175,5.4456 -3.1087,2.9348 -4.3494,6.7099 -3.9589,12.0464 0.3365,4.5976 1.5515,8.7299 4.0984,13.9385 2.0176,4.1261 3.9836,7.0706 6.211,9.302 1.614,1.617 2.4555,2.122 3.536,2.122 0.6,0 0.684,-0.0352 1.081,-0.4525 0.4547,-0.478 0.8394,-1.4413 0.8292,-2.0768 l -0.006,-0.3711 -0.3788,0.4626 c -0.8745,1.068 -1.105,1.254 -1.5547,1.254 -1.8613,0 -5.1319,-3.9794 -8.028,-9.7678 -2.6796,-5.3556 -4.3638,-10.4752 -4.8284,-14.678 -0.307,-2.777 0.2558,-5.6935 1.62,-8.3942 0.7169,-1.4192 1.4028,-2.3603 2.419,-3.3189 0.9407,-0.8874 1.3437,-1.1275 1.5485,-0.9226 0.2198,0.2198 -0.1682,1.9483 -1.3248,5.9017 -0.5883,2.0107 -1.182,4.2191 -1.3192,4.9076 -0.222,1.113 -0.231,1.2901 -0.0805,1.5981 0.4385,0.8978 1.5301,0.191 5.487,-3.5526 2.1935,-2.0754 3.0182,-2.7482 3.8161,-3.1136 0.7208,-0.33 1.0228,-0.2807 1.2756,0.2082 0.3492,0.6753 0.1849,2.2126 -0.5493,5.1394 -1.6642,6.6338 -1.4757,13.1158 0.5098,17.5283 0.5507,1.2238 1.3952,3.6665 1.3978,4.0428 0.003,0.4344 1.0203,1.6376 2.7647,3.2699 2.3271,2.1774 2.9768,2.8798 3.4054,3.6813 0.5537,1.0354 0.7028,1.7304 0.7796,3.6345 0.0818,2.0307 -0.086,3.8913 -0.497,5.512 -0.3745,1.4763 -0.6784,2.0864 -1.4203,2.8525 -0.5847,0.6036 -0.626,0.6242 -1.2491,0.6227 -0.481,-0.002 -0.9605,-0.129 -1.8905,-0.5042 z m -6.8749,-27.4622 c -0.233,-0.4481 -1.4151,-1.85 -1.9767,-2.3443 -0.5617,-0.4945 -0.8994,-0.5878 -1.0171,-0.2811 -0.1348,0.3513 0.305,0.8419 1.9402,2.1642 0.9556,0.7727 1.2923,0.9201 1.0536,0.4612 z m -3.2376,-4.5243 c 0.2064,-0.494 0.223,-1.3593 0.0341,-1.774 -0.1533,-0.3364 -0.509,-0.402 -0.6194,-0.1142 -0.0933,0.243 -0.0933,1.8684 0,2.1115 0.1214,0.3165 0.4049,0.2083 0.5853,-0.2233 z m 26.0381,61.0023 c -1.3207,-0.4917 -4.2007,-3.3818 -8.0021,-8.03 -1.0107,-1.2359 -3.5721,-4.583 -4.2352,-5.5344 l -0.2682,-0.3847 8.6204,0.004 8.6203,0.004 0.587,1.0568 c 0.7817,1.4072 1.8026,2.826 3.3151,4.6074 0.6862,0.808 1.2447,1.5006 1.2412,1.539 -0.009,0.0957 -5.7811,5.0414 -6.602,5.6564 -1.3518,1.0129 -2.47,1.3821 -3.2765,1.0819 z m -3.3148,7.1971 c -1.7819,-0.839 -6.2544,-4.7173 -9.3829,-8.1364 -2.981,-3.2579 -5.572,-6.7373 -8.0112,-10.7584 -0.688,-1.1343 -1.251,-2.105 -1.251,-2.157 0,-0.052 1.8341,-0.0944 4.076,-0.0944 h 4.076 l 0.6827,0.9766 c 2.6521,3.794 5.0052,6.69 8.3735,10.3058 3.9403,4.23 4.9204,5.5844 4.9266,6.8087 0.004,0.7374 -0.6336,2.1892 -1.2381,2.82 -0.453,0.4729 -0.5432,0.516 -1.077,0.515 -0.3632,-8e-4 -0.8055,-0.1062 -1.1746,-0.28 z"
                paint-order="markers stroke fill"
                id="path12"/>
        <path
                fill="#d4ece4"
                fill-rule="evenodd"
                d="m 279.235,227.57 c -2.2641,-1.2285 -7.3777,-6.2698 -12.0647,-11.8942 -2.7567,-3.3081 -5.2776,-6.748 -6.7745,-9.244 -0.421,-0.7019 -2.7349,-5.382 -3.2497,-6.5728 l -0.243,-0.5623 h 4.5481 l 1.1079,1.9237 c 3.5929,6.2387 5.9347,9.4932 9.4102,13.0775 2.0913,2.1569 3.8555,3.7148 6.3151,5.5769 2.3011,1.742 3.282,2.6907 3.6791,3.558 0.2557,0.5584 0.2835,0.7474 0.2246,1.5265 -0.119,1.572 -1.0594,2.9925 -1.975,2.9828 -0.1639,-0.002 -0.604,-0.1692 -0.978,-0.3721 z m 83.9325,-0.1792 c -0.5356,-0.1638 -0.8954,-0.3183 -2.1901,-0.94 -2.0583,-0.9886 -2.9853,-1.5434 -3.5959,-2.1522 -0.2221,-0.2214 -0.3403,-0.3878 -0.3403,-0.4789 0,-0.152 -0.1346,-0.374 -0.3238,-0.5338 -0.2015,-0.1703 -0.6208,-0.2786 -1.31,-0.3384 -1.2312,-0.1068 -1.9462,-0.5334 -2.3457,-1.3996 -0.1196,-0.2593 -0.1342,-0.3822 -0.1333,-1.12 8e-4,-0.8033 0.008,-0.8486 0.225,-1.4797 0.6115,-1.7786 4.5684,-8.7816 9.3144,-16.4848 2.7692,-4.4947 6.3479,-10.1229 9.5972,-15.0937 0.862,-1.3185 1.7,-2.6037 1.8625,-2.856 l 0.2953,-0.4587 h 1.5309 c 0.842,0 1.5309,0.0157 1.5309,0.035 0,0.0193 -0.4762,0.7984 -1.0582,1.7313 -5.8057,9.3074 -10.5025,17.6587 -14.9189,26.527 -2.8804,5.784 -4.4766,9.28 -4.3121,9.4445 0.2088,0.2089 0.8346,-0.7198 2.2959,-3.407 0.885,-1.6277 1.4945,-2.6536 2.268,-3.8178 2.619,-3.9422 5.6938,-7.2478 9.0958,-9.7786 0.9642,-0.7172 1.5854,-1.1211 3.2556,-2.117 2.226,-1.3273 3.8474,-2.4305 3.8474,-2.6178 0,-0.2703 -1.1636,0.1465 -3.1667,1.1345 -2.4987,1.2323 -4.5144,2.4647 -6.0055,3.6717 -0.8613,0.6972 -1.3216,1.0005 -1.6822,1.1086 -0.2116,0.0634 -0.2387,0.058 -0.3405,-0.0678 -0.255,-0.315 -0.0352,-1.1132 0.7213,-2.6193 1.402,-2.7914 4.1868,-6.4876 6.419,-8.5196 1.6386,-1.4917 4.614,-3.3947 7.0753,-4.525 1.7867,-0.8206 2.8322,-1.403 3.2854,-1.8306 0.6435,-0.6068 -0.2972,-0.5504 -1.9973,0.1199 -0.994,0.392 -2.6018,1.1605 -3.4801,1.6638 -0.3419,0.1958 -1.1658,0.6692 -1.831,1.052 -1.36,0.7824 -3.2336,1.7364 -3.2932,1.6768 -0.1108,-0.1108 2.0524,-3.7052 4.8717,-8.0952 l 0.4752,-0.7399 6.3324,-0.015 6.3325,-0.0151 -0.3185,0.9029 c -0.1752,0.4966 -0.7067,2.0749 -1.1812,3.5073 -1.5566,4.6995 -2.7106,7.7937 -4.1832,11.2168 -5.1857,12.0537 -11.3151,20.6987 -18.4807,26.0652 -1.1529,0.8634 -1.7887,1.2833 -2.3198,1.532 -0.3444,0.1612 -0.4803,0.191 -0.9357,0.2047 -0.3862,0.0117 -0.6304,-0.0138 -0.8878,-0.0925 z m 75.188,-89.0595 c -1.027,-1.0853 -2.5554,-3.3296 -2.6648,-3.9131 -0.2482,-1.323 0.2593,-2.8229 2.8544,-8.4362 5.6094,-12.1335 13.37,-24.0812 25.0116,-38.5061 3.8085,-4.719 7.5772,-8.8732 8.0499,-8.8732 0.2991,0 -0.2372,1.083 -1.74,3.5135 -2.8447,4.6008 -5.1786,9.9316 -11.802,26.9566 -4.6138,11.8596 -5.458,13.3835 -10.0762,18.1877 -2.9249,3.0427 -4.8776,5.3898 -6.0076,7.2208 -1.4684,2.3793 -2.7624,4.296 -2.934,4.3458 -0.096,0.0278 -0.407,-0.1953 -0.6913,-0.4958 z"
                paint-order="markers stroke fill"
                id="path13"/>
        <path
                fill="#d4ece4"
                fill-rule="evenodd"
                d="m 380.737,181.2152 c 2.8017,-4.31 8.6457,-13.03 11.0565,-16.4974 11.4845,-16.5188 36.944,-48.2786 38.7015,-48.2786 0.1716,0 -0.0965,1.0483 -0.8563,3.3483 -0.4107,1.2431 -0.927,3.0512 -1.1473,4.018 -0.405,1.7771 -0.5435,4.1855 -0.2406,4.1855 0.3072,0 0.6448,-0.9336 1.8477,-5.1102 2.8634,-9.9418 3.6697,-11.166 15.49,-23.5183 8.0736,-8.4368 19.1764,-19.2347 27.2834,-26.534 5.0302,-4.529 10.3692,-8.9414 10.5728,-8.7378 0.1332,0.1332 -2.2287,2.7029 -7.1986,7.832 -10.5613,10.8996 -12.4496,12.9165 -15.3548,16.4001 -4.5404,5.4446 -11.1476,14.6547 -14.5854,20.3314 -4.3815,7.235 -8.3548,15.009 -10.7154,20.9652 -0.5625,1.4193 -1.1812,2.8125 -1.3749,3.096 -0.5967,0.8734 -1.3086,1.1352 -3.0865,1.1352 -2.4335,0 -2.9322,-0.3526 -3.3851,-2.3933 -0.3517,-1.5849 -0.5334,-1.4318 -0.7388,0.6222 -0.2045,2.0447 -0.9286,2.918 -4.2334,5.106 -1.1282,0.7468 -2.9728,2.129 -4.0992,3.0714 -3.0224,2.5288 -7.8351,7.4029 -9.6587,9.7818 -5.8818,7.6729 -11.6974,18.5433 -16.1496,30.1867 -0.6162,1.6114 -1.191,3.0993 -1.2772,3.3065 -0.1495,0.359 -0.2451,0.3767 -2.0438,0.377 -1.038,2e-4 -3.8703,0.0501 -6.2942,0.111 l -4.4071,0.1105 z"
                paint-order="markers stroke fill"
                id="path14"/>
        <path
                fill="#d4ece4"
                fill-rule="evenodd"
                d="m 375.8114,183.9516 c -0.7136,-0.0314 -1.2975,-0.0938 -1.2975,-0.1387 0,-0.1486 7.605,-11.458 10.9684,-16.3113 13.6655,-19.7185 30.5879,-41.7568 44.3511,-57.7591 7.3085,-8.4976 12.4921,-14.0966 19.9226,-21.5192 10.7244,-10.713 18.689,-17.5455 27.8036,-23.8514 4.7324,-3.274 9.1243,-5.6976 9.1243,-5.035 0,0.0974 -1.4663,1.343 -3.2584,2.7681 -8.2538,6.5631 -19.516,16.8509 -31.073,28.3844 -22.4292,22.3837 -47.886,53.1786 -66.3523,80.2661 -2.6937,3.9512 -7.6121,11.437 -8.3945,12.7764 -0.1748,0.2993 -0.3581,0.529 -0.4073,0.5104 -0.0492,-0.0185 -0.6734,-0.0594 -1.387,-0.0907 z m 19.0088,108.2345 c -0.9502,-1.0392 -1.432,-3.0182 -1.8847,-7.743 -0.4753,-4.96 -0.9114,-7.2003 -2.0265,-10.41 -0.7515,-2.1635 -2.3605,-5.302 -3.5034,-6.834 -1.797,-2.409 -2.3066,-3.2495 -3.073,-5.0693 -1.549,-3.6771 -3.066,-8.5172 -3.1603,-10.0821 -0.043,-0.7147 -0.024,-0.751 0.3732,-0.7063 1.677,0.1886 7.6924,5.5137 10.4782,9.2757 5.7335,7.7428 8.7748,16.1869 8.7748,24.3632 0,2.5309 -0.411,3.5092 -2.3807,5.6668 -1.7109,1.874 -2.8468,2.36 -3.5976,1.539 z"
                paint-order="markers stroke fill"
                id="path15"/>
        <path
                fill="#d4ece4"
                fill-rule="evenodd"
                d="m 390.7938,285.6568 c -0.9053,-1.1273 -3.0867,-7.4637 -4.481,-13.0164 -0.5016,-1.9975 -1.2477,-5.5848 -1.1764,-5.656 0.1246,-0.1247 2.3339,2.693 2.9341,3.7421 2.4752,4.326 4.527,13.08 3.4508,14.7224 -0.3055,0.4663 -0.48,0.5161 -0.7275,0.208 z m -25.0693,4.6699 c -2.766,-1.2928 -9.9122,-8.095 -14.5236,-13.8243 -2.0434,-2.5388 -2.7313,-3.5947 -3.3337,-5.118 -0.612,-1.5474 -0.6088,-2.3183 0.0136,-3.2997 0.8838,-1.3936 4.6518,-4.9874 5.2291,-4.9874 0.6473,0 5.5475,8.5203 7.6065,13.226 0.6076,1.3885 1.1249,3.0182 0.9982,3.1449 -0.136,0.136 -0.7598,-0.3369 -2.6887,-2.0385 -1.8368,-1.6205 -2.663,-2.1705 -2.3082,-1.5364 0.0737,0.1318 1.356,1.582 2.8496,3.2228 4.3444,4.7727 6.8467,8.0924 7.5829,10.0602 0.5824,1.5567 0.1647,1.8938 -1.4257,1.1504 z m -24.078,226.4055 c -1.3802,-2.797 -3.6635,-5.2623 -6.054,-6.5364 -3.0261,-1.613 -3.144,-1.824 -3.4437,-6.1725 -0.5473,-7.9407 -2.5623,-11.5824 -15.5223,-28.0541 -9.2073,-11.7022 -21.001,-27.9121 -29.2337,-40.1803 -7.0798,-10.5504 -7.1797,-17.0695 -0.6001,-39.1758 3.1865,-10.7062 7.5818,-23.4385 8.0912,-23.4385 0.9234,0 6.4704,6.0164 8.848,9.5966 1.7612,2.6522 2.2022,2.8367 3.396,1.4212 0.529,-0.627 2.2507,-3.1743 3.8261,-5.6605 3.1154,-4.9163 5.0842,-7.5268 5.4196,-7.1859 0.1175,0.1195 0.2137,2.5623 0.2137,5.4284 0,3.9028 0.1064,5.2475 0.4236,5.3556 0.5276,0.1797 4.4883,-3.7693 6.4157,-6.3968 0.7915,-1.079 2.0977,-3.1884 2.9028,-4.6877 0.805,-1.4993 1.4754,-2.6507 1.4897,-2.5586 0.0142,0.092 0.8894,3.1056 1.9448,6.6967 1.8148,6.1756 1.9654,6.5348 2.7787,6.6307 1.1923,0.1406 2.8557,-1.7863 7.9986,-9.2655 2.2948,-3.3373 4.323,-6.0195 4.5072,-5.9604 0.4715,0.1511 2.6959,3.1342 3.5846,4.8073 0.7138,1.3436 0.7218,1.4505 0.1919,2.5616 -0.6539,1.3712 -2.7232,3.8228 -10.6441,12.6107 -12.4641,13.8283 -17.4072,19.756 -20.2483,24.2812 -2.2955,3.6564 -2.995,5.9137 -3.0072,9.7046 -0.0126,3.8875 0.333,5.607 1.0951,5.449 0.4328,-0.0896 0.5503,-0.4312 0.4968,-1.4438 l -0.0701,-1.3265 1.4196,1.5417 c 3.1485,3.419 7.7775,11.2043 10.7302,18.0462 2.593,6.0086 4.244,11.1566 6.3895,19.9228 2.6603,10.8697 5.0896,17.9636 8.2788,24.1752 3.4366,6.6934 4.1046,9.0572 4.0974,14.4983 -0.005,3.1947 -0.1823,4.8962 -0.7523,7.188 -0.701,2.8177 -3.1431,9.4218 -3.6866,9.969 -0.1354,0.1364 -0.7101,-0.6923 -1.2772,-1.8415 z m -47.6452,-81.0377 c 1.6403,-1.2926 2.1363,-3.7032 1.153,-5.6045 -0.937,-1.8122 -3.2322,-2.3137 -3.8983,-0.8518 -0.3764,0.8262 -0.2034,1.863 0.3109,1.863 0.1544,0 0.4228,-0.403 0.5965,-0.8956 l 0.3157,-0.8955 1.0882,1.0887 c 0.6965,0.6968 1.0883,1.418 1.0883,2.0035 0,2.24 -1.9845,2.8172 -4.3358,1.2612 -1.7198,-1.138 -1.7493,-0.5325 -0.0565,1.1603 1.3674,1.3673 2.7107,1.6802 3.738,0.8707 z"
                paint-order="markers stroke fill"
                id="path16"/>
        <path
                fill="#facb95"
                fill-rule="evenodd"
                d="m 280.817,407.7518 c -0.3733,-0.6118 -2.0193,-8.7325 -3.422,-16.882 -0.835,-4.8521 -1.7298,-9.9522 -1.9882,-11.3334 l -0.4698,-2.5112 6.5531,-6.5228 6.5531,-6.5227 0.9018,1.0802 c 0.496,0.594 1.558,2.2272 2.3602,3.6292 l 1.4584,2.549 -3.7245,11.097 c -3.7077,11.0464 -5.902,18.2796 -6.946,22.8963 -0.5191,2.2955 -0.9246,3.0965 -1.276,2.5204 z m 60.6558,108.314 c -1.5318,-2.6559 -3.1326,-4.2938 -5.9806,-6.1194 -1.2433,-0.7969 -2.3704,-1.6267 -2.5047,-1.8439 -0.1342,-0.2172 -0.4481,-2.1494 -0.6975,-4.2938 -0.9497,-8.1666 -2.6126,-11.298 -13.3607,-25.1608 -11.0746,-14.2839 -21.659,-28.7154 -29.3463,-40.013 -3.8264,-5.6233 -4.9338,-7.5712 -6.1869,-10.882 -0.907,-2.397 -0.9497,-2.763 -0.9362,-8.0362 0.012,-4.733 0.1427,-6.1016 0.9113,-9.5506 2.3443,-10.5197 10.6902,-36.6567 11.705,-36.6567 0.5962,0 5.068,4.8143 7.5967,8.1785 1.3172,1.7525 2.5396,3.2758 2.7165,3.3852 0.835,0.516 1.8722,-0.65 5.7673,-6.4837 2.3085,-3.4575 4.437,-6.4854 4.7302,-6.7287 0.4833,-0.401 0.533,0.0119 0.533,4.4264 0,5.0697 0.1206,5.928 0.8333,5.928 0.9432,0 6.3781,-6.2526 8.3717,-9.6312 1.1034,-1.8699 2.0947,-3.293 2.203,-3.1624 0.1083,0.1305 0.8425,2.4974 1.6314,5.2598 1.9203,6.7235 2.1298,7.199 3.1719,7.199 1.2209,0 2.6293,-1.5615 7.1708,-7.95 2.1937,-3.086 4.2856,-5.9748 4.6486,-6.4195 l 0.66,-0.8087 1.353,1.8132 c 1.548,2.0747 2.4354,3.7137 2.4354,4.4986 0,1.0006 -1.9581,3.405 -11.6356,14.2877 -20.7707,23.3576 -22.6012,26.1305 -22.478,34.0513 0.0546,3.5177 0.313,4.5583 1.1322,4.5583 0.4717,0 0.7124,-0.284 0.8338,-0.9837 l 0.1707,-0.9836 1.3826,1.6533 c 2.1365,2.555 5.2904,7.5917 7.6398,12.2007 3.7248,7.307 6.0643,13.8523 8.693,24.3201 2.9588,11.7817 4.8146,17.1696 8.9029,25.8471 3.2408,6.8787 3.8608,9.4611 3.5871,14.941 -0.1016,2.0353 -0.4278,4.6046 -0.725,5.7096 -0.6858,2.5509 -3.2711,9.5428 -3.5285,9.5428 -0.1068,0 -0.7374,-0.9417 -1.4012,-2.0927 z m -46.6796,-80.9723 c 1.7225,-2.047 0.936,-5.8173 -1.3987,-6.705 -1.2075,-0.459 -2.4221,0.4014 -2.4221,1.7159 0,1.1611 0.9582,1.4134 1.2423,0.3271 0.2376,-0.9085 0.5116,-0.8444 1.3734,0.3213 1.0297,1.3927 0.9753,2.9309 -0.1214,3.4305 -0.7269,0.3312 -1.1256,0.256 -2.6787,-0.5058 -2.1933,-1.0757 -2.4227,-0.6073 -0.597,1.2185 1.6464,1.6463 3.3226,1.7182 4.6022,0.1975 z"
                paint-order="markers stroke fill"
                id="path17"/>
        <path
                fill="#facb95"
                fill-rule="evenodd"
                d="m 280.6355,406.4764 c -0.5544,-2.0696 -2.1754,-10.5214 -3.9062,-20.366 l -1.5815,-8.9958 6.4287,-6.4066 6.4287,-6.4066 0.8976,1.1369 c 0.4937,0.6252 1.5211,2.1856 2.2832,3.4675 l 1.3856,2.3308 -2.9835,8.9213 c -3.4937,10.4472 -5.9085,18.2424 -7.1721,23.1519 -1.1699,4.5455 -1.3333,4.836 -1.7805,3.1666 z m 39.675,95.8429 c -9.2763,-18.8722 -20.1713,-42.6466 -19.9028,-43.4307 0.0591,-0.1725 2.7443,3.1787 5.9671,7.4473 3.2228,4.2685 8.2359,10.7586 11.1402,14.4225 6.073,7.6613 8.732,11.5507 10.8041,15.8032 1.7248,3.5396 2.4987,6.2866 2.4987,8.869 0,2.8152 -0.8376,3.6894 -4.6033,4.8046 l -1.7572,0.5204 z"
                paint-order="markers stroke fill"
                id="path18"/>
        <path
                fill="#a0cd4a"
                fill-rule="evenodd"
                d="m 318.2625,377.5307 c -0.1163,-0.3665 -0.2293,-2.8903 -0.2512,-5.6085 -0.0366,-4.5684 0.0312,-5.1573 0.8967,-7.7882 1.136,-3.4529 1.7445,-4.6877 2.31,-4.6877 0.6238,0 2.465,2.0131 2.9093,3.181 0.2102,0.5524 0.3737,2.046 0.3634,3.319 -0.0323,3.9624 -1.586,8.0291 -4.1164,10.7742 -1.5273,1.657 -1.8088,1.765 -2.1118,0.8102 z m 32.9173,-6.6959 c -4.2996,-3.1572 -5.9525,-7.1482 -5.024,-12.13 l 0.2319,-1.2438 3.6832,2.3666 c 4.0105,2.5768 5.5248,3.832 5.5248,4.5797 0,0.2655 -0.3767,1.527 -0.8371,2.8034 -0.4604,1.2763 -0.837,2.9054 -0.837,3.6202 0,0.7148 -0.1195,1.3734 -0.2654,1.4636 -0.1459,0.0902 -1.2603,-0.5667 -2.4764,-1.4597 z m -55.2206,0.9167 c -3.0757,-3.8882 -5.6565,-8.2667 -5.6565,-9.5967 0,-0.8514 1.452,-2.5505 1.928,-2.2563 0.2,0.1236 0.6994,1.2402 1.1097,2.4812 0.4104,1.2411 1.467,3.8386 2.3482,5.7723 1.5854,3.4794 2.2365,5.3574 1.8571,5.3574 -0.1077,0 -0.8216,-0.791 -1.5865,-1.7579 z m 34.197,175.8385 c -1.1803,-0.6143 -1.9333,-3.242 -1.9333,-6.7464 0,-1.9787 0.025,-2.1351 0.4578,-2.8716 0.7425,-1.263 1.43,-1.678 5.2344,-3.1595 1.8302,-0.7127 2.94,-1.3747 4.0915,-2.441 1.5027,-1.3912 2.2457,-2.7072 4.0335,-7.1445 0.8987,-2.2302 2.0634,-4.9967 2.5883,-6.1477 2.4025,-5.2678 3.3634,-7.9965 4.1586,-11.8095 0.6416,-3.0768 0.8473,-4.9554 0.8423,-7.6947 -0.004,-2.1214 -0.0728,-2.7972 -0.4443,-4.3529 -0.9089,-3.8066 -0.6884,-4.2649 1.5255,-3.1707 1.5788,0.7803 3.9427,3.0404 4.5422,4.3427 0.671,1.4578 0.917,3.399 0.7,5.5248 -0.341,3.3399 -1.204,6.2115 -3.4967,11.6355 -1.4612,3.4567 -2.88,7.5662 -4.4,12.7439 -0.6488,2.21 -1.52,4.8988 -1.936,5.9752 -2.4,6.21 -5.5453,10.1678 -10.8638,13.6703 -2.5929,1.7075 -4.0674,2.1835 -5.1,1.646 z m 21.1601,35.7988 c -1.3171,-0.8032 -2.5847,-2.9072 -2.5847,-4.2903 0,-1.325 0.5958,-2.112 2.6325,-3.4765 3.194,-2.14 5.0905,-4.7853 6.109,-8.5211 0.3142,-1.1522 0.3806,-1.8193 0.3805,-3.8233 -2e-4,-3.0206 -0.2939,-4.157 -1.8542,-7.1752 -1.6966,-3.2817 -1.7975,-4.324 -1.3068,-13.4976 0.29,-5.4204 0.233,-9.0924 -0.1662,-10.718 -0.1357,-0.5525 -0.6632,-1.9086 -1.1722,-3.0136 -1.0567,-2.2936 -1.504,-3.9624 -1.4017,-5.2292 0.0754,-0.9334 0.4655,-1.5512 0.9795,-1.5512 0.1638,0 1.188,0.3096 2.276,0.688 5.1133,1.7782 7.402,3.7727 8.1909,7.1373 0.3139,1.3389 0.2534,4.7168 -0.1612,9.0002 -0.3612,3.7319 -0.7053,9.041 -1.1936,18.416 -0.8597,16.5043 -0.9476,16.9597 -4.1182,21.3362 -3.114,4.2981 -5.0419,5.6744 -6.6096,4.7183 z"
                paint-order="markers stroke fill"
                id="path19"/>
        <path
                fill="#facb95"
                fill-rule="evenodd"
                d="m 340.454,551.2383 c -1.2748,-0.2703 -2.0042,-1.695 -1.6126,-3.1495 0.2815,-1.045 1.3166,-2.4815 3.351,-4.6502 2.885,-3.0754 4.564,-5.7995 6.2942,-10.2125 0.946,-2.4125 1.2619,-3.0548 1.8423,-3.7445 0.5521,-0.6562 0.8344,-0.6618 1.1647,-0.023 0.6384,1.2345 0.7902,3.4285 0.8757,12.656 l 0.0824,8.8883 -1.9456,0.1112 c -3.4202,0.1953 -9.3699,0.2688 -10.0522,0.1242 z"
                paint-order="markers stroke fill"
                id="path20"/>
        <path
                fill="#d4ece4"
                fill-rule="evenodd"
                d="m 322.9935,531.217 c -1.133,-1.197 -2.3975,-2.8346 -2.81,-3.639 -1.8873,-3.6807 -0.0553,-10.6078 3.5567,-13.449 4.6733,-3.6761 9.0034,-3.5403 13.244,0.4153 2.1805,2.0339 2.7364,3.0652 3.023,5.6083 0.4694,4.1643 -0.0886,6.0477 -2.6593,8.9755 -2.5916,2.9517 -5.484,4.2654 -9.3907,4.2654 -2.407,0 -3.2561,-0.3723 -4.9637,-2.1764 z m 14.1146,-4.9098 c 0.5238,-1.365 0.5238,-5.2221 0,-6.5872 -0.801,-2.0874 -1.2698,-0.9759 -1.3914,3.2998 -0.1175,4.1272 0.5049,5.5976 1.3914,3.2874 z m 4.053,48.6335 c -0.7567,-0.3065 -2.3388,-1.654 -3.5157,-2.9944 -1.8516,-2.1088 -2.1399,-2.933 -2.1399,-6.1185 0,-4.6576 1.1653,-7.4465 4.2388,-10.1451 4.1948,-3.6831 8.6955,-3.7372 12.777,-0.1536 5.3802,4.7239 3.9366,14.802 -2.6551,18.5356 -2.6899,1.5236 -6.2272,1.8795 -8.705,0.876 z m 9.5312,-5.8872 c 0.2266,-0.6445 1.1746,-1.9975 2.1066,-3.0065 0.932,-1.009 1.46,-2.0638 1.1733,-2.3439 -0.2867,-0.28 -1.018,0.2016 -1.6253,1.0703 -0.6073,0.8687 -1.7821,2.2593 -2.6108,3.0903 -1.769,1.7737 -1.8888,2.3618 -0.4813,2.3618 0.564,0 1.211,-0.5274 1.4375,-1.172 z m 2.2247,-9.1684 c 0,-1.0053 -1.2023,-2.074 -1.7345,-1.5418 -0.467,0.467 0.4576,2.5068 1.1365,2.5068 0.3289,0 0.598,-0.4343 0.598,-0.965 z"
                paint-order="markers stroke fill"
                id="path21"/>
        <path
                fill="#fbd13a"
                fill-rule="evenodd"
                d="m 278.3246,173.9341 c -0.5786,-1.6598 -0.7108,-14.7049 -0.1928,-19.0308 0.4188,-3.4985 1.1726,-6.0137 2.7334,-9.1215 0.7275,-1.4487 1.1073,-2.0064 1.366,-2.0064 0.2322,0 0.253,0.048 0.5118,1.1838 0.0965,0.4232 0.5336,1.8616 0.9716,3.1963 0.7858,2.3953 0.7962,2.4438 0.7982,3.729 0.002,1.5057 -0.0536,1.8091 -0.9944,5.3865 -0.8981,3.4147 -1.5725,6.5596 -2.0155,9.399 -0.4667,2.9913 -0.9448,4.8172 -1.6085,6.1429 -0.3228,0.6448 -1.0565,1.5051 -1.2837,1.5051 -0.0837,0 -0.2125,-0.1727 -0.286,-0.3839 z"
                paint-order="markers stroke fill"
                id="path22"/>
        <path
                fill-rule="evenodd"
                d="m 292.2723,186.4812 c -0.8146,-0.555 -2.3651,-2.3078 -3.047,-3.4444 -0.9365,-1.5611 -1.2971,-3.1227 -0.926,-4.0107 0.2636,-0.631 0.7965,-0.9189 1.7023,-0.9194 1.4723,-8e-4 1.7756,0.395 1.937,2.5272 0.1312,1.7328 0.5227,3.3776 1.1175,4.695 0.4455,0.9867 0.5035,1.5666 0.1632,1.631 -0.1052,0.02 -0.5314,-0.1954 -0.947,-0.4787 z m 35.3509,-6.7352 c -1.5657,-0.8513 -2.5453,-2.5822 -2.5453,-4.4972 0,-1.0025 0.2255,-1.604 0.6403,-1.7081 0.6248,-0.1568 2.2017,0.9194 2.2001,1.5016 -7e-4,0.3723 -0.3178,0.837 -0.925,1.3566 -0.272,0.233 -0.4948,0.5286 -0.4948,0.657 0,0.4153 0.3342,0.896 1.031,1.4825 1.1974,1.0083 1.3778,1.3462 0.7152,1.34 -0.2116,-0.002 -0.4913,-0.0616 -0.6215,-0.1324 z m 3.2764,-1.8186 c -0.3768,-0.8271 -0.4463,-3.8869 -0.1227,-5.407 0.4263,-2.0022 1.2886,0.4031 1.1325,3.159 -0.1078,1.904 -0.6334,3.074 -1.0098,2.248 z m -35.1543,7.6758 c -0.7173,-0.2538 -1.621,-1.1807 -2.0547,-2.1077 -0.4253,-0.9089 -0.5857,-2.3916 -0.3137,-2.9009 0.3512,-0.6575 0.989,-0.6668 1.6761,-0.0244 0.8116,0.7589 0.7943,1.5854 -0.0484,2.3067 -1.1065,0.9472 -0.6533,1.8143 1.0183,1.9484 0.6005,0.0483 0.9544,-0.004 1.7743,-0.259 0.5632,-0.1757 1.045,-0.2985 1.0705,-0.273 0.0255,0.0255 -0.196,0.2992 -0.492,0.6082 -0.8512,0.8883 -1.565,1.0787 -2.6304,0.7017 z"
                paint-order="markers stroke fill"
                id="path23"/>
        <path
                fill-rule="evenodd"
                d="m 295.66,185.4595 c -1.1757,-0.5413 -2.1767,-2.1067 -2.2812,-3.5672 -0.072,-1.0065 0.0142,-1.3626 0.3896,-1.6086 0.3792,-0.2484 0.8516,-0.0735 1.3576,0.503 0.6537,0.7444 0.618,1.1604 -0.1764,2.0548 -0.2815,0.317 -0.5475,0.689 -0.5912,0.8267 -0.1089,0.343 0.22,0.8114 0.715,1.0182 0.5742,0.2398 1.8703,0.2076 2.7766,-0.0691 0.4232,-0.1292 0.7936,-0.2354 0.8231,-0.2359 0.13,-0.002 -0.914,0.9824 -1.202,1.1335 -0.4393,0.2306 -1.2434,0.206 -1.8112,-0.0554 z"
                paint-order="markers stroke fill"
                id="path24"/>
        <path
                fill="#a32832"
                fill-rule="evenodd"
                d="m 310.3389,210.5166 c -1.271,-0.4757 -2.2127,-1.2543 -5.1389,-4.2496 l -2.5882,-2.6494 4.071,-0.1693 c 8.7443,-0.3638 15.1601,-1.444 16.2039,-2.7282 0.6697,-0.8239 0.6828,-0.4831 0.0732,1.9004 -0.5945,2.3246 -1.846,5.0218 -2.8726,6.191 -1.2912,1.4706 -2.453,1.8552 -5.9005,1.9533 -2.1388,0.061 -3.206,-0.008 -3.848,-0.2482 z"
                paint-order="markers stroke fill"
                id="path25"/>
        <path
                fill="#fbd13a"
                fill-rule="evenodd"
                d="m 357.0412,111.2141 c 0,-0.2313 0.4695,-1.175 1.0433,-2.097 1.9483,-3.1306 2.6858,-4.9031 3.3221,-7.9839 1.23,-5.9549 0.8579,-12.2215 -0.9674,-16.2887 -0.5731,-1.2771 -1.602,-2.5496 -1.856,-2.2955 -0.0645,0.0645 0.3346,1.3878 0.8869,2.9407 l 1.0042,2.8235 -0.0152,4.617 c -0.014,4.2536 -0.0656,4.8031 -0.657,6.9845 -0.7364,2.7166 -2.8295,7.1365 -4.0606,8.5748 -1.6745,1.9562 -2.7403,1.8623 -8.1766,-0.7207 -5.6968,-2.7067 -9.7202,-4.0157 -15.1473,-4.928 -4.0771,-0.6854 -9.4318,-0.6833 -13.4956,0.005 -3.0703,0.5204 -6.0484,0.6657 -5.8123,0.2838 0.074,-0.1199 1.5986,-0.7012 3.3878,-1.2919 11.3018,-3.731 17.2735,-3.7015 26.9171,0.1331 2.4374,0.9692 4.6295,1.4178 4.6295,0.9475 0,-0.3735 -1.693,-1.48 -4.1434,-2.7078 -4.096,-2.0526 -5.905,-2.4427 -13.4818,-2.9072 -5.5248,-0.3387 -8.9565,-0.6873 -9.3874,-0.9536 -0.4094,-0.253 -1.3658,-2.1436 -2.0028,-3.959 -0.3554,-1.0128 -0.696,-1.7916 -0.7569,-1.7307 -0.0609,0.0609 0.0216,1.582 0.1833,3.3803 0.2588,2.8787 0.2496,3.3748 -0.0775,4.1491 -0.4426,1.048 -1.3408,1.3918 -2.2714,0.8695 -1.253,-0.7033 -2.0725,-2.2057 -3.3356,-6.1154 -0.6756,-2.091 -1.3134,-3.802 -1.4175,-3.802 -0.6663,0 -0.165,3.623 1.0236,7.397 0.4746,1.507 0.863,3.1037 0.863,3.5481 0,0.9622 -1.154,2.4417 -2.4482,3.1387 -0.7217,0.3886 -0.922,0.4092 -1.4154,0.1452 -2.1684,-1.1605 -3.7265,-9.5314 -2.6634,-14.3096 0.765,-3.4386 2.516,-6.0406 5.136,-7.6322 0.7857,-0.4773 1.3402,-0.9549 1.2322,-1.0614 -0.108,-0.1065 -2.079,-0.2268 -4.3798,-0.2674 -2.301,-0.0406 -4.2642,-0.1548 -4.3629,-0.2538 -0.607,-0.6092 8.628,-5.1458 11.4986,-5.6485 0.7202,-0.1262 1.599,-0.3428 1.9527,-0.4814 0.7297,-0.2859 1.0621,-1.0176 0.6745,-1.4846 -0.4178,-0.5034 -2.7362,-1.0477 -6.1644,-1.4473 -1.7535,-0.2043 -3.2147,-0.398 -3.2471,-0.4304 -0.1725,-0.1725 4.511,-2.336 5.71,-2.6377 3.7065,-0.9329 8.2809,-0.6663 12.3647,0.7206 1.3225,0.4491 2.7342,0.8165 3.1372,0.8165 0.6416,0 0.7325,-0.0808 0.7318,-0.651 -10e-4,-0.8341 -0.519,-1.6505 -2.4385,-3.845 -0.8532,-0.9753 -1.524,-1.8004 -1.4909,-1.8335 0.1213,-0.1213 5.9875,0.6764 7.4817,1.0173 5.2002,1.1865 9.3461,3.412 12.1703,6.5328 1.7465,1.93 3.8302,6.0884 4.8864,9.7517 0.4376,1.518 0.8966,2.7601 1.0198,2.7601 0.2981,0 -0.002,-4.5612 -0.4337,-6.5992 -0.4866,-2.2954 -0.9537,-3.4673 -2.016,-5.0581 -1.0626,-1.5913 -1.1029,-1.728 -0.5698,-1.9325 1.177,-0.4516 5.5405,3.1966 6.798,5.6836 0.7527,1.4887 1.746,2.6974 2.2165,2.6974 0.4684,0 0.2534,-1.0204 -0.6569,-3.1176 -0.7693,-1.7725 -0.825,-2.0912 -0.3656,-2.0912 1.0889,0 4.924,4.012 7.127,7.4559 2.7014,4.223 3.9814,8.4463 3.9832,13.1426 0.002,5.776 -2.2991,10.8826 -6.7967,15.081 -1.986,1.8538 -4.0547,3.3866 -4.5707,3.3866 -0.1645,0 -0.2991,-0.1892 -0.2991,-0.4204 z m -16.229,-21.509 c 0.2108,-0.0809 0.5419,-0.4538 0.7357,-0.8286 0.6112,-1.1819 -0.1004,-2.1115 -3.1548,-4.1218 -0.9456,-0.6224 -1.7725,-1.0785 -1.8374,-1.0136 -0.065,0.065 0.4986,0.8006 1.2523,1.6348 3.0495,3.3753 3.3143,3.9124 1.4267,2.893 -1.8588,-1.004 -5.3764,-4.6051 -6.2957,-6.4453 -1.1716,-2.3453 -0.919,-4.294 0.6624,-5.1118 2.5585,-1.323 6.4872,-0.1086 10.7775,3.3315 1.0392,0.8333 1.9694,1.5167 2.067,1.5186 0.7978,0.016 -1.828,-2.7974 -3.8912,-4.169 -2.489,-1.6546 -4.373,-2.295 -6.8223,-2.3184 -2.35,-0.0226 -3.2087,0.3292 -4.1366,1.6948 -0.4796,0.7058 -0.5987,1.17 -0.5987,2.3333 0,2.307 1.1558,4.357 4.13,7.325 2.8408,2.835 4.4383,3.756 5.685,3.2775 z"
                paint-order="markers stroke fill"
                id="path26"/>
    </g>
</svg>
